<?xml version="1.0" encoding="utf-8"?>
<!-- Generator: Adobe Illustrator 23.0.3, SVG Export Plug-In . SVG Version: 6.00 Build 0)  -->
<svg version="1.1"
	 id="svg2" xmlns:cc="http://creativecommons.org/ns#" xmlns:dc="http://purl.org/dc/elements/1.1/" xmlns:inkscape="http://www.inkscape.org/namespaces/inkscape" xmlns:rdf="http://www.w3.org/1999/02/22-rdf-syntax-ns#" xmlns:sodipodi="http://sodipodi.sourceforge.net/DTD/sodipodi-0.dtd" xmlns:svg="http://www.w3.org/2000/svg"
	 xmlns="http://www.w3.org/2000/svg" xmlns:xlink="http://www.w3.org/1999/xlink" x="0px" y="0px" viewBox="0 0 550.4 506.7"
	 style="enable-background:new 0 0 550.4 506.7;" xml:space="preserve">
<style type="text/css">
	.st0{fill:none;stroke:#C7C7C7;stroke-width:4;stroke-miterlimit:10;}
</style>
<path id="FR-2A" inkscape:label="Corse-du-Sud" d="M506.8,450.5v2.2l2,1.4l3.3,1.9l0.2,1.6l-2,0.6l-3.1,0.6v1.3l1.2,1.2l0.2,3.9
	l4.3,1.4l1.6,0.4l1.4,2.2l-1,1.4l-1.6,0.6l-1.2,2.2l-1.2,1.4l0.6,3.5l2.9-0.2l0.8,0.6l2.8-1.4l0.8,0.8l-1.4,2.9l1.4,1.4l-2.3,1.8
	l-1.6,3.5l4.3,1l6.1,0.6l-2.5,2.9c0,0-1.2-0.5-1.7-0.2c0,0,0,0-0.1,0l0,0l0,0l0,0l0,0l0,0v0.1l0,0c0,0,0,0,0,0.1c0,0,0,0,0,0.1
	c0,1-1.3,3.3-1.3,3.3l1.9,2.1l3.5,2.2l6.6,1.8l1.9,0.8l1.8,0.8l-1.2,2.2l3.1-0.2l0.6,1.4h3.1l0.8-3.7l-2-0.4l2.8-2.9l-1-1l0.2-1.8
	l3.5-1.9l0.2-2.2l-2.3-0.2l-1.6,1.3v-2.2l3.1-0.2l1-2.3l0.8-6.8l-0.6-2.9l-0.1-2.8l-3.4,2.2l-4.1,0.2l-0.3-2.8l0.5-0.7l-1.2-0.9
	l-0.3-4.8l-0.5-0.9h-2.1l-1.1-0.9v-3.4l-1.4-0.9l-1.1-0.5l-2.1-2.7l0.2-1.6h-2.6l-0.9-2.7h-3.7l-1.9-2.7l0.5-0.9l-1.2-0.7l-2.8,0.5
	l-1.1-0.7h-3.9l-0.4-1.1l-2.2-0.4h-1.9V450.5z"/>
<path id="FR-2B" inkscape:label="Haute-Corse" d="M539.5,411.4l-2.9,2l0.4,1.9l1.6,2l-1.8,1.3l0.8,1.6l-1.2,1.4v1.8l2,1.8v2.7
	l-1.2,2.5l-1.3,0.6l-1.6-2.2l-2.8,0.2l-0.6-0.4h-2.3l-2.1,2l-0.8,3.3l-5.1,1l-3.9,3.3l-0.8,2.2l-1.9-0.2l-1-1.2l-0.6,3.3l-1.4,0.6
	l-0.4,3.1l0.6,1.4L509,449l-0.6,1.6l2.2,0.4l0.4,1.1h3.9l1.1,0.7l2.8-0.5l1.2,0.7l-0.5,0.9l1.9,2.7h3.7l0.9,2.7h2.6l-0.2,1.6
	l2.1,2.7l1.1,0.5l1.4,0.9v3.4l1.1,0.9h2.1l0.5,0.9l0.3,4.8l1.2,0.9l-0.5,0.7l0.3,2.8l4.1-0.2l3.4-2.2l-0.1-5.8l4.7-6.6v-10.9
	l-1.9-3.7l-0.6-11.7l-1.4-2.2l-2.5-1.9l-0.4-7.2l1.2-3.3l-1.6-5.3l-1-4.3l-0.8-1.2L539.5,411.4z"/>
<path id="FR-13" inkscape:label="Bouches-du-Rh√¥ne" d="M401.2,405.8l-5.5,3.1l-1.4,10.5l-5.8-0.8l-1.7,4.4l1.4,1.9
	l-6.3,3.9l-1.7,4.1l6.2,0.3l8.2,0.6l1.6,1.6h-3l-1.9,3.3l8.4,1.8l6.7-1.2l-3.5-3.3l2.3-1.9l3.7,1.6l1.8,3.7l11.2,0.2l2.9-1.2
	l0.6,1.8l-3.1,2.7l4.3,0.2l-0.8,2l-1.2,1.4h9.6l4.7,1.6l0.5,0.6l0.2-3.9l1.4-1.6l1.8-1.1l-0.2-1.1l-1.4-1.4h-1.4l-0.9-1.1l1.6-1.4
	v-0.5l-1.8-0.9v-1.4l3.9,0.2l0.9-0.7l-3.4-3.2l0.2-3.7l-2.1-1.8l1.8-3.5l4.2-2.8l-3.2-2.1l-2.3,1.8l-5.3,1.2l-4.2-0.5l-7.6-3.2
	l-4.6,0.2l-3.9-1.8l-1.4-2l-3-3.3l-7.1-3L401.2,405.8z"/>
<path id="FR-84" inkscape:label="Vaucluse" d="M408.5,377.2l-2.8,0.2l-2.1,3.3l0.6,3.5l3.3,0.4l-0.6,1.6l-2.6,0.2l-2.9,2.9l-0.8-1
	l0.6-3.9L400,383l-5.3,0.8l-1,2.1l0.6,0.3l3.3,5.5v4.4l5.8,5.8v2.5l-2.2,1.3l0.2,0.1l7.1,3l3,3.3l1.4,2l3.9,1.8l4.6-0.2l7.6,3.2
	l4.2,0.5l5.3-1.2l2.2-1.7l0.3-1.5l-4.1-4.6h-4.4v-1.5l1.6-1.8v-1.9l-3.5-1.8l-0.3-2.8l1.9-0.9v-2.5l-2.1-0.4l-0.2-2.7v-0.2l-1.8-0.1
	l-2.9-2.2l-0.8-2.5l-5.5-0.4l-4.1-0.4l-0.4-2.3l1.4-2.9l-2.5,2.2l-4.1-0.4l-0.8-1.4l2.7-3.7L408.5,377.2z"/>
<path id="FR-83" inkscape:label="Var" d="M479.2,409.1l-3,0.1l-1.4,1.4l-5.3-0.2l-4.6,3.3l-3.2-2.1l-5,1.6l-0.9,1.8l-3.5,2.7
	l-6.4-4.2l-5.2,1.7l-0.2,1.4l0.1-0.1l3.2,2.1l-4.2,2.8l-1.8,3.5l2.1,1.8l-0.2,3.7l3.4,3.2l-0.9,0.7l-3.9-0.2v1.4l1.8,0.9v0.5
	l-1.6,1.4l0.9,1.1h1.4l1.4,1.4l0.2,1.1l-1.8,1.1l-1.4,1.6l-0.2,3.9l0.5,0.7l3.5,1.6l1,3.9l2.2,0.4l2-1.4l3.5-2.2l6.1,0.6l-0.2,1.6
	l-2,1l4.7,0.2l-1.2-1.2l-0.4-2.5l2.5-1.8l2.9,1l1.2,0.4l1,1.2l1.4-1l0.4-2.6l1.6-1.3h4.1l1.2-1.8l2.7,0.8l3.1-1.3v-5.1l-4.1,0.2
	l3.1-1.9l1.6-2.2l0.4-3.1l5.7-0.8l3.2-3.5l-2.2-2.2V425l-1.1-1.1l1.4-1.2l-0.3-2l-2.3-0.9H485l-2.1-2.1l-0.4-3.7l-2.3-1.1l-2.3-0.2
	l-0.9-2.1L479.2,409.1z"/>
<path id="FR-04" inkscape:label="Alpes-de-Haute-Provence" d="M485.3,360.2l-2.1,3.2l-3,1.8l-1.1,2.1l-2.7,0.2v1.9l-0.7,1.1
	l-1.1,2.7l-6.3-0.2l-3-1.6l-2,1.4l-3.7-0.2l-0.9,1.2h0.9l0.5,3.3l-0.9,0.4l-3.3-2.1v-1.2l-1.9-1.6h-1.1v1.8l-1.6,0.3l-3.4,1.9
	l-2.1,3.6l-0.5,1.8l1.2,0.3l0.2,2.8h-1.2l-1.9-1.8l-1.1,0.2l0.5,1.6l3,3.3l-1.9,0.7l-1.4-0.9h-3.5l-3,2.8l0,0l-0.1,1.2l-1.2-1.4
	l-1.6-1.4l-1,2.9l-1.8,1.6l-0.8-0.1v0.2l0.2,2.7l2.1,0.4v2.5l-1.9,0.9l0.3,2.8l3.5,1.8v1.9l-1.6,1.8v1.6h4.4l4.1,4.6v0.1l5.2-1.7
	l6.4,4.2l3.5-2.7l0.9-1.8l5-1.6l3.2,2.1l4.6-3.3l5.3,0.2l1.4-1.4l3-0.1h0.1l-0.7-1.8l0.9-1.1l-0.3-1.4h2.8l0.7-0.9l2.7-1.4l2.1,1.4
	l1.4-0.9l-3.3-3l-3.6-3.3l-1.2-0.4l-0.2-2.7l-2.1-3.2l0.7-4.6l1.1-2.5l1.9-1.6l0.2-2.5l2.7-1.4l0.4-0.2v-3.8l2.8-0.4l-1.6-1.4
	l-2-0.6l-1-2.5l0.8-1.8l3.5-3.7l-0.6-2.8l0.5-0.5L485.3,360.2z"/>
<path id="FR-06" inkscape:label="Alpes-Maritimes" d="M485.4,377.8L485,378l-2.7,1.4l-0.2,2.5l-1.9,1.6l-1.1,2.5l-0.7,4.6l2.1,3.2
	l0.2,2.7l1.2,0.4l3.6,3.3l3.3,3l-1.4,0.9l-2.1-1.4l-2.7,1.4l-0.7,0.9h-2.8l0.3,1.4l-0.9,1.1l0.7,1.8l-2.3,1.4l0.9,2.1l2.3,0.2
	l2.3,1.1l0.4,3.7l2.1,2.1h1.2l2.3,0.9l0.3,2l-1.4,1.2l1.1,1.1v1.2l2.2,2.2l0.2-0.2l0.2-4.5l3.9,0.8l1.4-1.8l2,0.4l0.2-6.1l4.5-0.4
	l3.9-3.5h3.5l0.2-2.2l3.5-2.1l-2-4.5l2.9-2.5l-0.6-2.9l4.3-1.4l1.2-4.3l-0.6-2.9l-1-1.8l-0.8-2.6l-2.9,0.2l-9.2,3.3h-2.9l-5.1-4.1
	l-5.1-1.4h-2.9v-3.5l-4.1-2.5L485.4,377.8L485.4,377.8z"/>
<path id="FR-05" inkscape:label="Hautes-Alpes" d="M468.8,335.1l-1.8,0.8l-0.4,2.9l-3.5,0.4l-0.6-2.8l-1.2-1.2l-3.5,0.4l-1.4,1.2
	l-0.8,4.1l0.6,1l4.1,0.4l0.8,2.5l1.6,0.8v4.3l-3.7-0.2l-1.6,1.8l-4.5-0.8l-2.5,2.2l-1.8-0.8l-2.5,2l1,1.8l-1.6,1.6h-4.9v2.3l1.6,0.8
	l-0.6,1.4l-3.3,1.3l-4.1,0.4l-1.2,3.7l-0.2,2.3l2.2,1.8l-2.2,2.5l-2.7-1.4l-3.1-0.2l-0.4,1.8l2,1.4l-2.4,1.6l0.8,3.3l6.6,1.8
	l1.2,2.5l1.9,0.4l-0.7,6.1l0,0l3-2.8h3.6l1.4,0.9l1.9-0.7l-3-3.3l-0.5-1.6l1.1-0.2l1.9,1.8h1.2l-0.2-2.8l-1.2-0.3l0.5-1.8l2.1-3.6
	l3.4-1.9l1.6-0.3v-1.8h1.1l1.9,1.6v1.2l3.3,2.1l0.9-0.4l-0.5-3.3h-0.9l0.9-1.2l3.7,0.2l2-1.4l3,1.6l6.3,0.2l1.1-2.7l0.7-1.1v-1.9
	l2.7-0.2l1.1-2.1l3-1.8l2.1-3.2l2.5,0.1l1.8-2l2.1,0.2V357l-2.7-1.4l-0.6-5.7l-2.2-0.8l-2.7,0.4l-5.1-2.6l-0.8-5.8l-2.9-1l-1-2
	l-1.3-2.8L468.8,335.1z"/>
<path id="FR-48" inkscape:label="Loz√®re" d="M342.2,348.1l-5.5,2l-1.6,3.5l-3.5-2.3l-2.8,8.6l-2.8,6.5l4.1,5l-0.3,3.9
	l2.8,1.9v4.7l0.8,6.6l3.3,1.4l-0.3,2.2l4.7-0.8l1.7,0.8l-1,0.9l6,4l5.2-1.1l0.9-1.2l-0.7-1.8l2.1-0.5l3,2.8l5.1,0.5l2.3-3.5v-3
	l1.4-1.6l-1.2-0.3v-4.1l-2.8-3l2.3-0.4l1.2-1.1l1-1.9l-1-0.6l0.6-4.1l-3.3-3.6l-1.4-7.2l-5-6.3l-3.6,0.9l-0.8-2.7h-2l-0.4,2.3
	l-5.1,1.6L342.2,348.1z"/>
<path id="FR-03" inkscape:label="Allier" d="M323.1,243.9l-2.7,3.5l-1.6,0.2l-1.8,1.8l-2-2.2l-5.2,5.3v3.1l1,0.8l0.2,1.6l-2.7,2.1
	l-2.6-0.8l-4.9,1l-2.5,2.9l-0.9,2h0.2l2.3,3.3v2.3l1.3,1.8l1.4-1.8l1.6,2.8l2.2,0.8l2.2,5.1l0.1,1.5l3,2.3l1.6-0.7l1.2-3l1.2-0.3
	v-1.6l2.1-0.2l0.2,1.1l2.7-3h3l0.5,1.1l-1.4,1.9l2.1,2.3l0.4,1.4l4.9,2.8l6,0.9l1.8-0.2l2.7,0.5l2.3-1.4l1.8,0.9l0.3,2.5l2.3,0.5
	l3-0.2l0.9,2.1l2.8,1.1l0.1-1l4.7-0.2l-0.4-11.1l-1.4-2.7l0.6-2.2l3.2-0.6l0.1-0.2l4.1-3.1l0.2-7.6l-1.4-1.9h-3.1l-1.2-1.6h-3.3
	l-1-1.2v-2.9l-3.9-7.4l-1.9-1.4l-3.7,5.1l-1.6,0.4l-0.6-2.5l-1.8-0.8l-0.8,1.6h-2.9l-0.4-1.8l-2,1.2l-2.1,1.2l-2.3-2.6l-3.3-1.6
	l-0.2-2.5L323.1,243.9z"/>
<path id="FR-30" inkscape:label="Gard" d="M367.7,376.9l-1,1.9l-1.2,1.1l-2.3,0.4l2.8,3v4.1l1.2,0.3l-1.4,1.6v3l-2.3,3.5l-5.1-0.5
	l-3-2.8l-2.1,0.5l0.7,1.8l-0.9,1.2l-5.2,1.1l-6-4l-1.2,1v2.8l-2.2,0.5l0.6,2.2l2.8,0.6h3l0.8,3.8l-3.6,1.7v1.8l2.8,1v1.6l1.2,0.7
	l1.1-0.9h1.4l0.7,1.6h2.1l1.1-3.7h1.8l2.7-3.3l3.2,0.3l0.5,4.6l1.2,1.4l2-1.1l3.3,1.8l1.2,2.1l5.8,3.5l2.1,5v2.6l-3.7,2.1l-2.4,2.2
	l3,0.2v3.9l4.5-0.2l2.4,0.1l1.8-4.1l6.3-3.9l-1.4-1.9l1.7-4.4l5.8,0.8l1.4-10.5l7.7-4.4v-2.5l-5.8-5.8v-4.4l-3.3-5.5l-6.9-3.9
	l-0.5,3l-2.8,0.3l-0.8-3l-2.8,0.5l-0.5,3.9l-2.2-0.8l-4.7-3.1l-2.2,1.1v-5.5L367.7,376.9z"/>
<path id="FR-11" inkscape:label="Aude" d="M295.7,434.4l-0.3,3.6l-3.6-1.1h-3.9l0.3-1.4l-1.9,0.3l-4.1,1.4l-1.4-2.5l-2.8,2.5
	l0.8,1.9l-3.1,1.4l-0.5,3l-2.5,1.1l2.2,2.5l-0.6,1.7l9.7,4.7l0.8,6.7v3.6l0.6,4.7h-5l-1.4,1.9l6.3,5.2l3.6-1.9l4.4,5.2l-0.7,0.1
	l0.8,0.5l7.9-3.9l-1.9-2.8l-0.2-3.3h18.5l-0.3-2.5l4.2-2.3l4.9,3.9l2.6,1.2l-0.2-5.6l0.2-6.4l-2.3,0.2l-2-2.9l1.6-2.6l3.3,3.1
	l2.9-2.3l2-1.9l0.2-2.1l-2.5-0.1l-0.9-2.8l-2.5-0.2l-2.3-3.4l-1.8,0.2l-2.1-1.2l-0.4-3l-1.1,0.5l0.5,2.1h-2.5l-0.2,3.5l-3.7,1.2
	l-1.8-3.7L311,444l-2.1-1.6l-1.1-2.5l1.8-2.1l-0.8-2.3l-0.2,0.1h-5.8l-6.1-1.1h-1V434.4z"/>
<path id="FR-34" inkscape:label="H√©rault" d="M357,404.3l-2.7,3.3h-1.8l-1.1,3.7h-2.1l-0.7-1.6h-1.4l-1.1,0.9l-1.2-0.7
	v-1.6l-2.8-1v1l-3.3,0.5l-1.7,1.4l0.5,3.3h-3l-3-1.7h-1.7v1.9l0.3,5.8h-3.3h-1.7l-1,2.4l-7.2,2.5l-2.8-1.9l-1.7,2.5l-0.8,2.8l3,2.8
	l-1.1,3.6l-4.2,1.3l0.8,2.3l-1.8,2.1l1.1,2.5l2.1,1.6l2.5-1.6l1.8,3.7l3.7-1.2l0.2-3.5h2.5l-0.5-2.1l1.1-0.5l0.4,3l2.1,1.2l1.8-0.2
	l2.3,3.4l2.5,0.2l0.9,2.8l2.5,0.1l0.1-1.1l7-2.2l0.8-1.8l5.5-0.2l1.8-2.2l10.6-8.4l6.6-4.7l2.7,0.2l2.4-2.2l3.7-2.1V422l-2.1-5
	l-5.8-3.5l-1.2-2.1l-3.3-1.8l-2,1.1l-1.2-1.4l-0.5-4.6L357,404.3z"/>
<path id="FR-66" inkscape:label="Pyr√©n√©es-Orientales" d="M322,464.6l-4.2,2.3l0.3,2.5h-18.5l0.2,3.3l1.9,2.8
	l-7.9,3.9l-0.8-0.5l-6.5,0.5l-0.8,1.7l-3.5,0.8l-2.2,1.9l-6.1,1.4l0.3,2.1l2.9,2.8l5.8,1.6l0.2,3.5l3.1,2.8l2.3-0.4l3.3-4.1l4.1-0.8
	l6.4,2.2l5.5,4.7l1.6-2h1.4l1.4,1l1.2-0.6l0.2-2.8l5.9-1.4l1.9-2.5l2.9-1h4.1l2.6,2.7l3.1,0.2v-3.1l-1.6-2.2l-2.8-1.2l-0.4-17.1
	l-2.6-1.2L322,464.6z"/>
<path id="FR-15" inkscape:label="Cantal" d="M307.3,319.6l-0.6,2.2l1,2.3l-1.2,1.4h-1.9l-2-2.2l-1.8-1l-0.2,5.5l-3.5,2.2l-2.5,3.5
	l0.6,3.5l-0.8,1.6l-1,3.1h-1.6l-1.6,1.9l1.2,1.2l0.8,1.9l-2.5,1.8l1,6.5l3.3,2.5l-2.5,5.8l2.5,1.1l-1.1,3.3l2.2,0.3l1.7-2.8h2.8
	l0.5,0.8h6.1l1.1-2.5l1.4-0.6l0.6-4.4h1.4v-4.7l5.5-4.7l0.6,0.8l0.5,3.6l3.9-0.6l0.8,5.5h1.9l0.6,5.5l1.7,2.1l2.8-6.5l2.8-8.6
	l3.5,2.3l1.6-3.5l5-1.8v-1.7l-1.1-1.6l-2.1-1.2l1.1-1.6l-0.9-0.9l1.1-0.3l1.2-1.1l-2.1-0.2l-1.1-1.4l-0.3-3.7l-1.2-1.2l-0.9-3.2
	h-4.4l-0.9-2.5l-1.4-0.2l-0.7,1.4l-2.8-0.2l-2.7-4.1l-1.1-0.2l-2.1-1.1l-1.2,1.2h-3.2l-1.6-3.3L307.3,319.6z"/>
<path id="FR-43" inkscape:label="Haute-Loire" d="M339.3,322.2l-1.4,0.7v1.2l-2.1,0.2l-1.9,1.6l-3.5,0.5l-0.8,1.2l0.6,0.1l0.9,2.5
	h4.4l0.9,3.2l1.2,1.2l0.3,3.7l1.1,1.4l2.1,0.2l-1.2,1.1l-1.1,0.3l0.9,0.9l-1.1,1.6l2.1,1.2l1.1,1.6v1.7l0.5-0.2l3.5,9l5.1-1.6
	l0.4-2.3h2l0.8,2.7l3.6-0.9l4.5,5.8l2.8-4.5l5.1-3.7h4.7l1.6-4.9l3.1-0.2l0.2-3.7h2.9l-0.6-1.4l-0.8-2.5l1.2-2l2.8-1.2l1.2-4.7
	l-2.5-2.9l-3.1,0.2l0.4-3.7l-6.2-2.7l-2.1,0.2l-4.3,3.5l-3.9-1.3l-0.8,0.8l-2.5-0.7l-1.8-1.8l-1.1,2.1l-3-0.2l-1.4-1.2l-1.1,2.5
	l-1.9-0.9l-1.2-2.3h-1.6l-1.4-1.2l-2.1,0.9l-2.5,0.2l-1.4-0.9l-0.9,0.5L339.3,322.2z"/>
<path id="FR-63" inkscape:label="Puy-de-D√¥me" d="M320.6,275.4l-2.7,3l-0.2-1.1l-2.1,0.2v1.6l-1.2,0.3l-1.2,3l-1.6,0.7
	l-3-2.3l0.3,4.6l1.6,1.9l0.8,3.7l-2.3,1.8l-0.6,2.8l-2.2,1.2l-3.7,2.2l0.4,1.8l4.5,4.5l0.4,2.8L306,311v2.8l1.2,1.4l0.6,3.3
	l-0.4,1.3l6,1.8l1.6,3.3h3.2l1.2-1.2l2.1,1.1l1.1,0.2l2.7,4.1l2.8,0.2l0.7-1.4l0.8,0.1l0.8-1.2l3.5-0.5l1.9-1.6l2.1-0.2v-1.2
	l1.4-0.7l0.4,0.9l0.9-0.5l1.4,0.9l2.5-0.2l2.1-0.9l1.4,1.2h1.6l1.2,2.3l1.9,0.9l1.1-2.5l1.4,1.2l3,0.2l1.1-2.1l1.8,1.8l2.5,0.7
	l0.8-0.8l-1.5-0.5l-0.6-2.3l3.7-3.5l-1.8-6.4l-5.1-3.3l-2.1-5.1l-2.3-3.1l0.6-4.3l1.8-1.8l-3.1-2.5l0.1-0.8l-2.8-1.1l-0.9-2.1
	l-3,0.2l-2.3-0.5l-0.3-2.5l-1.8-0.9l-2.3,1.4l-2.7-0.5l-1.8,0.2l-6-0.9l-4.9-2.8l-0.4-1.4l-2.1-2.3l1.4-1.9l-0.5-1.1h-3.1V275.4z"/>
<path id="FR-65" inkscape:label="Haute-Pyr√©n√©es" d="M200.7,424.4l-1.9,1h0.3l3.3,5.5l-2.2,2l1.6,2.3l2.3,3.5
	l-1.9,2.5l-3.1,7l-5.3,4.5l1.4,2.8l-1.2,0.8l-2.9-0.6l-0.8,6.4l-1.6,1.2l-0.3,4l0.5-0.3l3.3,2l3.9,2.9l0.4,2.3l3.1,2.5h2.6l6.4-2.8
	l2.7,3.1l3.7,1l1.4-2.3l1.8,0.8l3.8,0.2l-0.2-10.5h2l1.8,0.9l1.2-1.2l-0.2-1.9l2.5-1.4l-0.9-3.7l-1.1-0.9l-2.1,0.7l1.1-1.8l-0.5-2.3
	l-3.2-2.3l0.2-1.6l1.8-3l2.3-0.9v-1.2l1.4-2.1l0.9-1.3l-3.6-1.8h-4.8l-0.7-1.4h-2.5l-0.7-1.6h-2.3l-0.7,0.7H211l-0.2-1.6l-2.1-1.4
	l0.7-0.7l0.3-1.8l-0.5-0.5l-1.1-2.8l-2.3-0.3l-2.3-1.2l0.2-3.3h-3V424.4z"/>
<path id="FR-64" inkscape:label="Pyr√©n√©es-Atlantiques" d="M193.6,424.8l-2.8,1.6l-5.7-0.2l-0.5-0.9l-3.7,1.2
	l-2.8,0.9l-2.1-1.6l-2.3,0.7l-0.7-0.9h-2.8l-1.8,0.9l-4.6-0.2l-2.5,1.9l-4.4-0.3l-0.9,1.2l-1.1-0.4l1.4-1.4l-2.5-1.9l-3,2.7
	l-5.1,0.3l-5.6-2.8l-0.8,1.4l-4.5,5.5l-3.5,1.4l-2.5,0.4v2.2l2.3,2.2l3.5,0.2l0.2,2.5l2.8,0.2l0.8-1.8l3.7,1.6l2.3,0.6l0.6,2.3
	l-1.3,1.2v3.7l-2.8,1.4l-0.2,1.8l1.8,2l3.1,1l0.6-2.9l1.8-1.9l-0.2,2.5l1.4,2h3.5l1.6,2.1l4.7,0.8l4.5,2.8h7.4l0.4,4.1l5.1,3.9
	l2,2.3l2.2-1.2l1.9-0.4l1,1l1.8-1l3.4-1.9l0.3-4l1.6-1.2l0.8-6.4l2.9,0.6l1.2-0.8l-1.4-2.8l5.3-4.5l3.1-7l1.9-2.5l-2.3-3.5l-1.9-2.6
	l2.2-2l-3.3-5.5l-5.3-0.4L193.6,424.8z"/>
<path id="FR-40" inkscape:label="Landes" d="M161.3,370.3l-6.2,3.2l-1.6,0.1l-3.5,18.6l-4.5,17.2l-1.4,6.7l-1.2,4.7l-2.9,5l5.6,2.8
	l5.1-0.3l3-2.7l2.5,1.9l-1.4,1.4l1.1,0.4l0.9-1.2l4.4,0.3l2.5-1.9l4.6,0.2l1.8-0.9h2.8l0.7,0.9l2.3-0.7l2.1,1.6l2.8-0.9l3.7-1.2
	l0.5,0.9l5.7,0.2l2.8-1.6l-1.4-2.4l1.4-3.7l1.9-2.5l-0.6-3.3l1.6-1.6l-2.3-3.9l1.9-2.3l2.2-0.4l1.9,0.8l2.8-2.3l1,2.9l1,1.4l2.2-0.6
	l-0.2-2.5l0.6-1.4L207,402l0.5-3.9l2.1-2.1l-1.1-1.2l-2.3-0.2l-2.7-1l-3.9,0.3l-0.7-4.2l-2.5-3l-1.1-0.3l0.4,3.5v1.1l-3.4,0.2
	l-3.5-1.2l-0.7-4.4l-2.5-2.7l-1.8-0.2l-0.2-1.6l-1.9-1.2l-3.2-0.9l0.9-1.1v-1.1l-1.1-0.9l-1.2-1.1l-3.6,0.5l-2.1,1.8l-1.4,0.2
	l-2.3-1.6l-3.4,1.4l-1.6-1.1l1.4-1.8l0.2-2.3L161.3,370.3z"/>
<path id="FR-33" inkscape:label="Gironde" d="M162.7,311.1l-3.1,4.7l-1,16.4l-2.5,16.6l-1.8,12.9l-0.2,3.3l1.4-4.5l2.7-3.5l3.9,3.5
	l0.4,1.2l1.2,1.6l-4.9,0.2l-0.8-1.2l-1.9,0.8l-0.4,2.9l-2.2,2.9v4.5v0.2l1.6-0.1l6.2-3.2l3.3,1.2l-0.2,2.3l-1.4,1.8l1.6,1.1l3.4-1.4
	l2.3,1.6l1.4-0.2l2.1-1.8l3.6-0.5l1.2,1.1l1.1,0.9v1.1l-0.9,1.1l3.2,0.9l1.9,1.2l0.2,1.6l1.8,0.2l2.5,2.7l0.7,4.4l3.5,1.2l3.4-0.2
	v-1.1l-0.4-3.5l1.1,0.3l2,2.4l3.1-0.5l1.4-1.4l-0.2-1.9l-1.2-1.1l0.4-2h1.9l1.9-1.2l-0.9-1.8l-0.5-2.7l1.4-2.5l3-4.6l1.8-2.1
	l1.6-0.5l0.3-1.8l-2.1-0.2l-0.9-1.9l0.7-1.9l2.5-0.5l1.8-0.5l2.1-0.3l-0.1-0.1l-0.2-3.9l1.9-1.4l-2.5-1.6l-2.5,3l-6,0.2l-0.5-1.4
	l-1.8-0.9l1.4-1.8v-1.9l-0.7-1.1v-1.1l1.8-1.1l0.5-3.2l1.1-2.8l-1.1-1.6h-1.9l-1-1.2l-1,2.1l-1.9-1.4l-2.8,1.4l-2.3-0.4l-4.5-4.5
	l-2.8-0.2l-0.8-6.2l-5.1-0.6l-0.2-2.9l-1,1H177l0.3,1.2l1.4,5.7l0.4,5.7l-1,1.6l-1-4.7l-2.8-10.7l-10-9l0.2-4.1L162.7,311.1z"/>
<path id="FR-24" inkscape:label="Dordogne" d="M231.3,306.4l-1.8,3.1l-2.8,0.4l-0.2,4.7l-9.2,6.2l-0.2,6.8l-3.5,3.5l-1.9,1.8
	l-3.9-0.4l-2.2,3.7l-0.6,1.2l1,1.2h1.9l1.1,1.6l-1.1,2.8l-0.5,3.2l-1.8,1.1v1.1l0.7,1.1v1.9l-1.4,1.8l1.8,0.9l0.5,1.4l6-0.2l2.5-3
	l2.5,1.6l-1.9,1.4l0.2,3.9l2.8,2l0.3,3.7l3,1.1l1.8-1.6h3.9l2.1-1.8l1.2,0.2l0.3,1.4h3.9l0.9-1.1l1.4,0.2l1.6,1.8v1.2l-1.4,0.9
	l0.5,1.2l1.9,0.2l2.5-2.3h2.1l1.4,1.6l3.1,1.3l0.2-0.5l1.8-1.8l0.2-2.9l4.3-0.4l2.8-3.9l-1.2-0.4l-0.2-2.1l3.3-0.4l0.2-1.9l1.6-1
	l1.8-3.1l-1.8-1.9v-2.2l1.3-1.2l-1.8-2.8l0.2-4.3l-4.3,0.2l-1.8-1.2l1.6-1.9l-2.2-1.8l1.6-2l-1.6-0.8v-2.7l3.9-3.5l-2.2-1.8
	l-1.2-2.9l-4.1-0.6l-1.4-1l2.9-1.4l-1-1.3l-4.3-0.6l-1-3.9l-6.2-0.6l-1.4,2l-1.3,0.4l-1.8-2.3l0.8-2.2l-1-1.9L231.3,306.4z"/>
<path id="FR-47" inkscape:label="Lot-et-Garonne" d="M216.7,359.3l-2.1,0.3l-1.8,0.5l-2.5,0.5l-0.7,1.9l0.9,1.9l2.1,0.2l-0.3,1.8
	l-1.6,0.5l-1.8,2.1l-3,4.6l-1.4,2.5l0.5,2.7l0.9,1.8l-1.9,1.2h-1.9l-0.4,2l1.2,1.1l0.2,1.9l-1.4,1.4l-3.1,0.5l0.5,0.6l0.7,4.2
	l3.9-0.3l2.7,1l2.3,0.2l1.1,1.2l-2.1,2.1l-0.5,3.9l0.5,1.2l0.8-1.6l2.3,2l3.1-3.1l1.4,1.9l3.3-0.6l3.5-0.4l1.6-2.8l5.8-0.6l2.9,2.9
	l1-1l1.9-0.6l-0.8-2.7l2.9-0.8l3.7-0.8l-0.8-2.3l1.2-1.4l1-3.7l-2.2-2.3l1.4-4.5l2.9,1.8l4.3-0.8l-2-4.3l-1.6-5.8l3.9-0.2l0.8-2.1
	l-3.1-1.3l-1.4-1.6h-2.1l-2.5,2.3l-1.9-0.2l-0.5-1.2l1.4-0.9v-1.2l-1.6-1.8l-1.4-0.2L236,364h-3.8l-0.3-1.4l-1.2-0.2l-2.1,1.8h-3.9
	l-1.8,1.6l-3-1.1l-0.3-3.7L216.7,359.3z"/>
<path id="FR-46" inkscape:label="Lot" d="M268.9,343.2l-4.2,1.9l-0.6,0.1l0.1,0.2l-1.3,1.2v2.2l1.8,1.9l-1.8,3.1l-1.6,1l-0.2,1.9
	l-3.3,0.4l0.2,2.1l1.2,0.4l-2.8,3.9l-4.3,0.4l-0.2,2.9l-1.8,1.8l-1,2.6l-3.9,0.2l1.6,5.8l1.7,3.6l2.5-0.1l0.2,1l-1.4,1.6l1.1,2.1
	h1.6l1.8,1.9h1.6l1.2-1.4l0.3,0.4v1.8l0.5,2.3l3.7,0.2l3-3.2l1.6-0.2l0.5,0.9l0.9,1.9h1.4l0.5-3.5l3,0.4l1.8-2.1l2.8,0.7l4.2-1.9
	v0.4l1.4-1.4l-1.8-2.7l-0.7-3.5l2.3-1.9l1.1,0.3l3.2-3.5l1.8,0.2l0.7-0.9h3.5l1.2-1.4l0.3-1.1l-1.6-0.2l1.1-3.3l-2.5-1.1l2.5-5.8
	l-3.3-2.5l-1.1-7.2l-3-0.8l-2.2,2.2l-1.1-1.9l-3.3,3.3l-2.2,0.3l-3.8-5.5L268.9,343.2z"/>
<path id="FR-09" inkscape:label="Ari√®ge" d="M258.7,442.3l-1.2,0.9l-0.5,1.1l2.5,1.8l0.7,1.2l-0.5,1l-4.2,0.4l-1.2,1.8
	l0.2,0.5l1.6,0.5l0.9,1.2l-1.1,1.8l-1.2-0.2l-1.9-1.8l-2.3-0.7l-2.3,0.2l-4.1,2.5l0.2,3.4l1.1,0.7l-0.7,2.6l-4.6,1.2l-1.8,2.1v3.5
	l0.7,1.1l-1.7,1.5l1.1,0.6l6,1.2h2.6l3.3,4.3l8.4-0.4l3.3,5.3l2.9-1.2l8.6,1.2l0.6,3.6l6.1-1.4l2.2-1.9l3.3-0.8l0.8-1.7l7.2-0.5
	l-4.4-5.2l-3.6,1.9l-6.3-5.2l1.4-1.9h5l-0.6-4.7v-3.6l-0.8-6.7l-9.7-4.7l0.6-1.7l-1.8-2.1l-1.6,0.7l-2.1,0.3l-3.9-1.8l-1.1-0.3
	l1.6,1.9l-0.7,1.6l-3.4-0.3l-0.2-1.8l-2-2.7L258.7,442.3z"/>
<path id="FR-32" inkscape:label="Gers" d="M229.3,397.8l-5.8,0.6l-1.6,2.8l-3.5,0.4l-3.3,0.6l-1.4-1.9l-3.1,3.1l-2.3-2l-1.4,2.9
	l0.2,2.5l-2.2,0.6l-1-1.4l-1-2.9l-2.8,2.3l-1.9-0.8L196,405l-1.9,2.3l2.3,3.9l-1.6,1.6l0.6,3.3l-1.9,2.5l-1.4,3.7l1.6,2.8l4.9,0.3
	l1.9-1h3l-0.2,3.3l2.3,1.2l2.3,0.3l1.1,2.8l0.5,0.5l-0.3,1.8l-0.7,0.7l2.1,1.4l0.2,1.6h2.7l0.7-0.7h2.3l0.7,1.6h2.5l0.7,1.4h4.8
	l3.6,1.8l0.3-0.4l1.9-1.1l3.5-4.6l6.6,0.5l2.8,1.9l0.9-1.2l1.4-4.2l1.8-4.1l3.7-1.6l1.8-0.7L253,425l-1.8-0.2l-0.7-1.8h-1.4
	l-2.3-2.3l0.2-1.6l-3-3l-0.5-1.9l-1.9,0.8l-0.5-1.1l1.2-1.9l-1.4-1.4v-2.5l-1.2-1.2l-3.9-0.2v-2.3l2.1-1.6V401l2.3-1.1l-1.2-0.7
	l-1.4,0.7h-2.8l-0.9-0.8l-0.5,0.2l-1,1L229.3,397.8z"/>
<path id="FR-31" inkscape:label="Haute-Garonne" d="M266.5,408.3l-2.8,1.1l-0.9,1.4l-1.1-1.2l-1.9-0.2l-0.4,1.8l-1.2,0.5l1.8,0.9
	l-1.2,1.9l-4.4,1.2l-1.9-2.3h-1.8l-1.4,0.9h-5.1l-0.5,0.2l0.5,1.9l3,3L247,421l2.3,2.3h1.4l0.7,1.8l1.8,0.2l0.5,1.6l-1.8,0.7
	l-3.7,1.6l-1.8,4.1l-1.4,4.2l-0.9,1.2l-2.8-1.9l-6.6-0.5l-3.5,4.6l-2,1l-1.2,1.8l-1.4,2.1v1.2l-2.4,0.9l-1.8,3l-0.2,1.6l3.2,2.3
	l0.5,2.3l-1.1,1.8l2.1-0.7l1.1,0.9l0.9,3.7l-2.5,1.4l0.2,1.9l-1.2,1.2l-1.8-0.9h-2l0.2,10.5l7.9,0.5l0.4-9.6l2.7,0.4l4,2.3l1.7-1.5
	l-0.7-1.1v-3.5l1.8-2.1l4.6-1.2l0.7-2.6l-1.1-0.7l-0.2-3.4l4.1-2.5l2.3-0.2l2.3,0.7l1.9,1.8l1.2,0.2l1.1-1.8l-0.9-1.2l-1.4-0.5
	l-0.2-0.5l1.2-1.8l4.2-0.4l0.5-1l-0.7-1.2l-2.5-1.8l0.5-1.1l1.2-0.9l1.2,0.3l2,2.7l0.2,1.8l3.4,0.3l0.7-1.6l-1.6-1.9l1.1,0.3
	l3.9,1.8l2.1-0.3l1.6-0.7l-0.4-0.4l2.5-1.1l0.5-3l3.1-1.4l-0.8-1.9l2.8-2.5l1.4,2.5l4.1-1.4l0.8-0.1l0.1-1.3v-2.5l-2.1,0.4l-2.7-0.7
	l-2.3-2.8l-0.9-1.2l-4.6-1.9l-1.1-1.6l1.4-0.5v-1.9l-1.4-1.6l-1.8-2.8l-0.2-2.5l-0.5-0.3l-2.1-2.5l-0.9-2.6L266.5,408.3z"/>
<path id="FR-82" inkscape:label="Tarn-et-Garonne" d="M241.7,380.6l-1.4,4.5l2.2,2.3l-1,3.7l-1.2,1.4l0.8,2.3l-3.7,0.8l-2.9,0.8
	l0.8,2.7l-1.5,0.4l0.9,0.8h2.8l1.4-0.7l1.2,0.7l-2.3,1.1v1.8l-2.1,1.6v2.3l3.9,0.2l1.2,1.2v2.5l1.4,1.4l-1.2,1.9l0.5,1.1l2.5-1.1
	h5.1l1.4-0.9h1.8l1.9,2.3l4.4-1.2l1.2-1.9l-1.8-0.9l1.2-0.5l0.4-1.8l1.9,0.2l1.1,1.2l0.9-1.4l2.8-1.1l1.3,0.6l1-1.7l-1.8-1.9h3.3
	l1.1-1.9l2.3-2.1h-2.3l0.7-3l6-0.7l2.3-1.4l2.8-1.1l0.9-0.9l-1.1-2.8l1.6-3.2l-2.8-0.2l-0.3-4.4l-4.2,1.9l-2.8-0.7l-1.8,2.1l-3-0.4
	L269,390h-1.4l-0.9-1.9l-0.5-0.9l-1.6,0.2l-3,3.2l-3.7-0.2l-0.5-2.3v-1.8l-0.3-0.4l-1.2,1.4h-1.7l-1.8-1.9h-1.6l-1.1-2.1l1.4-1.6
	l-0.2-1l-2.5,0.1l0.3,0.7l-4.3,0.8L241.7,380.6z"/>
<path id="FR-12" inkscape:label="Aveyron" d="M316.2,349.3l-5.5,4.7v4.7h-1.5l-0.6,4.4l-1.4,0.6l-1.1,2.5H300l-0.5-0.8h-2.8
	l-1.7,2.8l-0.6-0.1l-0.3,1.1l-1.2,1.4h-3.5l-0.7,0.9l-1.8-0.2l-3.2,3.5l-1.1-0.3l-2.3,1.9l0.7,3.5l1.8,2.7l-1.4,1.4l0.3,4l2.8,0.2
	l-1.6,3.2l1.2,3.2l1.6-0.9l0.7,1.6l2.3-2.3l3.4-0.2l3.3,2.5l5.8,1.1l2.1,3.7l3,1.4l1.6,4.1l-0.2,1.6l1.9,3.6v1.9l3.5,4.6l3.4,1.8
	l2.1-0.5l1.1-1.4l1.6,0.4l3.7,2.3l0,0h1.6h3.3l-0.3-5.8v-1.9h1.7l3,1.7h3l-0.5-3.3l1.7-1.4l3.3-0.5v-2.8l3.6-1.7l-0.8-3.8h-3
	l-2.8-0.6l-0.6-2.2l2.2-0.5v-2.8l2.2-1.9l-1.7-0.8l-4.7,0.8l0.3-2.2l-3.3-1.4l-0.8-6.6v-4.7l-2.8-1.9l0.3-3.9l-5.8-7.2l-0.6-5.5
	h-1.9l-0.8-5.5l-3.9,0.6l-0.5-3.6L316.2,349.3z"/>
<path id="FR-81" inkscape:label="Tarn" d="M292.3,392.8l-3.4,0.2l-2.3,2.3l-0.7-1.6l-1.6,0.9l-0.2-0.4l-0.9,0.9l-2.8,1.1l-2.3,1.4
	l-6,0.7l-0.7,3h2.3l-2.3,2.1l-1.1,1.9H267l1.8,1.9l-1,1.7l0.3,0.1l0.9,2.6l2.1,2.5l0.5,0.3l0.2,2.5l1.8,2.8l1.4,1.6v1.9l-1.4,0.5
	l1.1,1.6l4.6,1.9l0.9,1.2l2.3,2.8l2.7,0.7l2.1-0.4v2.5l-0.1,1.3l1.2-0.2l-0.3,1.4h3.9l3.6,1.1l0.3-3.6h1.7l6.1,1.1h5.8l4.4-1.4
	l1.1-3.6l-3-2.8l0.8-2.8l1.7-2.5l2.8,1.9l7.2-2.5l1.1-2.2l-3.7-2.3l-1.6-0.4l-1.1,1.4l-2.1,0.5l-3.4-1.8l-3.5-4.6v-1.9l-1.9-3.6
	l0.2-1.6l-1.6-4.1l-3-1.4l-2.1-3.7l-5.8-1.1L292.3,392.8z"/>
<path id="FR-01" inkscape:label="Ain" d="M404.7,258.5l-2.2,0.2l-1.4,2.5l-3.7,14.4l-0.5,1.2l-0.4,4.6l-1.1,1.5v6.6l-0.6,1.5
	l3.8,2.3l1.5,0.2l2.3,2.1l0.4,3.4l2.6-0.8l4,1.2l0.1-0.8h1.9l2.8,2.6l2.6-1.3l1.3-3.8l1.3-1.5l1.7,0.2l1.7,1.5l0.9,2.8l7.8,9.6
	l2.3-1.7l0.4-3.6l2.6-0.4v-6.4l1.3-1.1l0.4-5.7l0.5,0.4l-0.1-2.1l-1.1-1.9l0.4-5.5l1.9,1.1l1.1-1.9l1.9-0.6l2-1.6H443V274l2.3-1.4
	l3.5-0.4l0.2-2l-1.2-0.8l2.9-3.7l-0.4-1.2l-3.3-1.8l-8.1,8.9h-5.7v-2.3l-3.1-1.6l-3.7,4.1l-2.9,0.4v-2.8l-2.5-1.2l-3.9-5.5l-3.5-1.4
	l-1.2-2.5l-2-0.4l-1.9,1.4l-1.6,0.4L404.7,258.5z"/>
<path id="FR-38" inkscape:label="Is√®re" d="M419.4,294.6l-1.3,1.5l-1.3,3.8l-2.6,1.3l-2.8-2.6h-1.9l-0.2,2.8l2.8,2.3
	l-4.2,5.5l-5.5,1.3l-4.2,1.5l2.8,2.8l0.7,1.3l-4.2,2.1l-0.4,6.2l-0.1,0.1l1.2,2.5l3.4,1.1l2.3-0.8l2.8-1.9l3.6,3h3l2.1,3l-0.9,2.1
	l0.4,3l-1.1,3l0.4,1.1l1.5-0.4l3.4,1.1l4.5,1.3l1.9-1.3l0.8-1.5h0.7l0.2,15.9l1.1,1.1h2.8l2.5,1.5l1.9,1.5l1.9,0.2l1.2,1.1l3.5,0.4
	l0.2-0.6l-1.6-0.8v-2.3h4.9l1.6-1.6l-1-1.8l2.5-2l1.8,0.8l2.5-2.2l4.5,0.8l1.6-1.8l3.7,0.2v-4.3l-1.6-0.8l-0.8-2.5l-4.1-0.4l-0.6-1
	l0.8-4.1l1.4-1.2l-1.1-1.5l-2.1-1.3l-1.3,1.3l0.4-1.7V331l-1.7-1.7l0.9-4l1.9-1.1l-0.2-2.8l-4-4h-1.5l-1.1,1.5l-2.5-3.4l-1.5,0.2
	l-1.3,2.8l0.9,1.7l-0.7,0.7l-1.7-1.3l-4.9-1.1l-2.3-4.2v-1.7l-2.3-2.5l-0.2-1.1l-7.8-9.5l-0.9-2.8l-1.7-1.5L419.4,294.6z"/>
<path id="FR-74" inkscape:label="Haute-Savoie" d="M467.6,262.1l-4.5,0.8l-4.3,3.5l-1.2-1.8l-2.2,0.2l-2,4.3l0.2,1.8l2.1,1.8
	l-3.9,2.6l-2.5,2.3H445l-2,1.6l-1.9,0.6l-1.1,1.9l-1.9-1.1l-0.4,5.5l1.1,1.9l0.1,2.1l1.6,1.3v5.5l3.8,0.6l1.5,2.8l3.4,0.4l0.6-1.2
	h1.7l3,3.2l1.1,1.1l3.4-0.7l0.8-1.7l0.8-3.4l1.9-1.5l1.5-4.4l1.9-1.3l1.5,0.4l0.4,1.3l-1.1,1.3l1.9,2.3h3.2l1.9,3.2l-0.4,1.1
	l1.9-1.3l1.5-1.7l1.3,0.2l0.1-3.4l6.7-2.8l0.8-1.9l-0.4-4.3l-4.3-4.5l-1.4,0.8v-1.8v-2.9l-3.7-1.8l-0.2-1.6l2.2-2.3v-2.7l-3.5-3.7
	l-0.2-2.5L467.6,262.1L467.6,262.1z"/>
<path id="FR-42" inkscape:label="Loire" d="M361,273.9l-3.5,0.6l-0.6,2.2l1.4,2.7l0.4,11.1l-4.7,0.2l-0.2,1.8l3.1,2.5l-1.8,1.8
	l-0.6,4.3l2.3,3.1l2.1,5.1l5.1,3.3l1.8,6.4l-3.7,3.5l0.6,2.3l5.5,1.8l4.3-3.5l2.1-0.2l6.2,2.7l-0.4,3.7l3.1-0.2l2.5,2.8l1.8-0.5
	l3.4-0.6l0.9-3.8l4.7-2.8l0.4-6.2l0.2-0.1l-2.3-0.3l-2.1,0.8l-1.7-1.1l2.1-2.5l-0.6-1.9l-6.6-1.1l-5.5-5.1V305l1.3-1.1v-1.5
	l-1.5-0.9l1.2-1.9v-2.8l-2.5-2.3v-2.3l-1.7-1.7v-1.6l-0.8-3.2l1.3-1.3l0.2-3.8h4l1.1-1.3l-1.3-2.1v-1.9l-1.1-0.8l-0.8,4h-2.2
	l-1.6,1.6l-1.2-1.2l-6.2-1l-2.3,1.4H365l-0.4-1.4l-2.9-0.6l-0.2-3.1L361,273.9z"/>
<path id="FR-69" inkscape:label="Rh√¥ne" d="M393.2,271.2l-2.1,0.2l-1.8,1.8l-1.2-1.6l-1.8,1.6l-2.4-1.6H382l-0.8,0.6
	l-0.4,2.2l1.1,0.8v1.9l1.3,2.1l-1.1,1.3h-4l-0.2,3.8l-1.3,1.3l0.8,3.2v1.9l1.7,1.7v2.3l2.5,2.3v2.8l-1.2,1.9l1.5,0.9v1.5l-1.3,1.1
	v1.7l5.5,5.1l6.6,1.1l0.6,1.9l-2.1,2.5l1.7,1.1l2.1-0.8l2.3,0.3l4.1-2l-0.7-1.3l-2.8-2.8l4.2-1.5l5.5-1.3l4.2-5.5l-2.8-2.3l0.2-2
	l-4-1.2l-2.6,0.8l-0.4-3.4l-2.3-2.1l-1.5-0.2l-3.8-2.3l0.6-1.5v-6.6l1.1-1.5l0.4-4.6l-0.7,1.6l-1.4-0.2l-0.8-3.9L393.2,271.2z"/>
<path id="FR-73" inkscape:label="Savoie" d="M438.5,289.7l-0.4,5.7l-1.3,1.1v6.4l-2.6,0.4l-0.4,3.6l-2.3,1.7l0,0l0.2,1.1l2.3,2.5
	v1.7l2.3,4.2l4.9,1.1l1.7,1.3l0.7-0.7l-0.9-1.7l1.3-2.8l1.5-0.2l2.5,3.4l1.1-1.5h1.5l4,4l0.2,2.8l-1.9,1.1l-0.9,4l1.7,1.7v1.7
	l-0.4,1.7l1.3-1.3l2.1,1.3l1.1,1.5l3.5-0.4l1.2,1.2l0.6,2.8l3.5-0.4l0.4-2.9l1.8-0.8l3.8,0.2l-0.1-0.1l5.8-2.3l2.2,1.4h2.2l0.2-2.3
	l2.5-1.4l1-1.2l5.1-2l0.6-3.3l-1-1.6l2.8-4.7l-2.5-1l-0.8-2.8l-5.4-3c0,0,0.3-6-0.2-7.1c0,0,0-0.1-0.1-0.1l0,0l0,0l0,0l0,0l0,0l0,0
	c-0.8,0.2-3.7,0.4-3.7,0.4l-2.9-3.3l0.1-3.2l-1.3-0.2l-1.5,1.7l-1.9,1.3l0.4-1.1l-1.9-3.2H469l-1.9-2.3l1.1-1.3l-0.4-1.3l-1.5-0.4
	l-1.9,1.3l-1.5,4.4L461,298l-0.8,3.4l-0.8,1.7l-3.4,0.7l-1.1-1.1l-3-3.2h-1.7l-0.6,1.2l-3.4-0.4l-1.5-2.8l-3.8-0.6v-5.5L438.5,289.7
	z"/>
<path id="FR-07" inkscape:label="Ard√®che" d="M396.7,324.4l-4.5,2.7l-0.9,3.8l-3.4,0.6l-1.8,0.5l0.1,0.1l-1.2,4.7
	l-2.8,1.2l-1.2,2l0.8,2.5l0.6,1.4h-2.9l-0.2,3.7l-3.1,0.2l-1.6,4.9h-4.7l-5.1,3.7l-2.8,4.5l0.5,0.6l1.4,7.2l3.3,3.6l-0.6,4.1
	l4.2,2.5v5.5l2.2-1.1l4.7,3.1l2.2,0.8l0.5-3.9l2.8-0.5l0.8,3l2.8-0.3l0.5-3l6.3,3.6l1-2.1l2.7-0.4l0.2-4.1l-0.6-0.9l-0.8-0.2v-1.5
	l0.6-1.5l-1.1-1.7l0.6-3.8l2.6-3v-4.2l-1.1-4.9l1.9-0.4l0.4-2.1l1.9-3.6l1.1-2.8l-1.7-4.2l-1.1-3.4l-1.5-5.9v-8l-1.1-0.3
	L396.7,324.4z"/>
<path id="FR-26" inkscape:label="Dr√¥me" d="M406.4,325.2l-2.8,1.9l-2.3,0.8l-2.3-0.7v8l1.5,5.9l1.1,3.4l1.7,4.2l-1.1,2.8
	l-1.9,3.6l-0.4,2.1l-1.9,0.4l1.1,4.9v4.2l-2.6,3l-0.6,3.8l1.1,1.7l-0.6,1.5v1.5l0.8,0.2l0.6,0.9l-0.2,4.1l2.6-0.4l1.2,1.4l-0.6,3.9
	l0.8,1l2.9-2.9l2.6-0.2l0.6-1.6l-3.3-0.4l-0.6-3.5l2.1-3.3l2.8-0.2l2.7,2.6l-2.7,3.7l0.8,1.4l3.9,0.4l2.5-2.2l-1.4,2.9l0.4,2.3
	l4.1,0.4l5.5,0.4l0.8,2.5l2.9,2.2l2.5,0.2l1.8-1.6l1-2.9l1.6,1.4l1.2,1.4l0.8-7.2l-1.9-0.4l-1.2-2.5l-6.6-1.8l-0.8-3.3l2.4-1.6
	l-2-1.4l0.4-1.8l3.1,0.2l2.7,1.4l2.2-2.5l-2.2-1.8l0.2-2.3l1.2-3.7l4.1-0.4l3.3-1.3l0.3-0.8l-3.5-0.4l-1.2-1.1l-1.9-0.2l-1.9-1.5
	l-2.5-1.5h-2.8l-1.1-1.1l-0.2-15.9h-1l-0.8,1.5l-1.9,1.3l-4.5-1.3l-3.4-1.1l-1.5,0.4l-0.4-1.1l1.1-3l-0.4-3l0.9-2.1l-2.1-3h-3
	L406.4,325.2z"/>
<path id="FR-17" inkscape:label="Charente-Maritime" d="M170.8,266.5l-2.8,0.2l-6,3.6l1.4,1.3l-3.1,2.5l-0.4,2l-2.9,0.4l-1.6-1.8
	l-3.9-0.4l-0.4-2l-2.3-1.6l-3.3,1.2l2.2,3.1h2.7l2.8,1.8l2.2,1.8l4.1-0.2l0.8,1.8l2.7,0.6l1,2.7l1.8,0.8l-0.2,2.2l-2.3-0.4l-0.8,1.2
	l1.8,2.5l-1,4.3l-2.3-0.2l0.2,2.7l0.6,1H159l-0.4-1.6l1.8-2.3l-0.6-1.3l-1-0.8l-0.6-4.7l-3.3-0.4l-2.7-3.3l-0.4,6.8l4.5,3.3l0.4,3.7
	l0.8,4.3l0.4,4.3l2.3-0.2l4.1,3.3l2.8,1.6l0.2,1.9l2.2,0.4l6.2,6.2l1.5,6.8h5.8l1-1l0.2,2.9l5.1,0.6l0.8,6.2l2.8,0.2l4.5,4.5
	l2.3,0.4l2.8-1.4l1.9,1.4l1.6-3.3l1.6-2.7l-4.2-2.8l-1.3-1.7l-1.7-1.9l-4,0.7l-1.3-0.7l-0.2-1.1l2.1-0.8v-0.4l-1.5-0.4l-1.1-0.8
	l2.6-2.1v-1.5l-1.3-1.3l0.8-0.8l0.4-2.1l-1.5-1.5l-1.3-2.1l-2.3-2.1l-1.7-1.1l1.5-1.7l-0.8-0.2l-0.2-4.5l-1.7-0.7l2.3-1.2h2.8
	l1.2-1.1h2.3l0.4,1.1l2.1,0.2l1.5-0.6l0.4-4l1.7-6.2h0.1l-1.5-1.5l-0.4-2.1l-2.8-1.3l-3.6-2.5l-4.5,0.4l-2.8-3.6l-4-0.2l-3.2-2.3
	v-1.3l-2.1-2.3l-0.1-2.9l-2.9-2.2l-3.7,1.6L170.8,266.5z"/>
<path id="FR-19" inkscape:label="Corr√®ze" d="M287.2,303.5l-0.8,2.1l-3.2,0.6l-1.2,2.1h-1.5l-2.1-0.6l-1.5,2.5l-2.3,0.2
	l-1.5,2.8h-1.9l-1.5,1.5l-3.8-0.4l-1.3,2.1l-1.5-0.2l-2.6,3.2l-2.3-0.9l-1.1,2.2l0.8,2.2l2.2,1.8l-3.9,3.5v2.7l1.6,0.8l-1.6,2
	l2.2,1.8l-1.6,1.9l1.8,1.2l4.3-0.2l-0.2,4.3l1.6,2.6l0.6-0.1l4.2-1.9l5,2.2l3.8,5.5l2.2-0.3l3.3-3.3l1.1,1.9l2.2-2.2l3,0.8l0.1,0.7
	l2.5-1.8l-0.8-1.9l-1.2-1.2l1.6-1.9h1.6l1-3.1l0.8-1.6l-0.6-3.5l2.5-3.5l3.5-2.2l0.2-5.5l1.8,1l2,2.2h1.9l1.2-1.4l-1-2.3l1-3.5
	l-0.6-3.3l-1.2-1.4v-2.8l1.8-2.9l-0.4-2.8l-0.4-0.4l-2,1.5h-3.8l-1.2,1.9h-2.3l-1.9-1.9l-0.9-1.3H290l-1.1-1.5L287.2,303.5
	L287.2,303.5z"/>
<path id="FR-23" inkscape:label="Creuse" d="M277.6,263.8l-1.2,3.1l-3.5-0.2l-0.8-0.4l-2.3,0.2l-1.8-1.2l-3.4,3.9l0.1,2.9l-2.3,4.7
	l0.4,2.3l2.5,0.6l1.7,4.2l1.7,1.7l-0.6,8.1l3.6-1.1l1.5,1.9l-2.3,1.9v1.9l1.9,0.2l3.4-0.2l1.1-1.5h0.8l-0.4,2.6l2.8,1.2l2.6,1.7v1.1
	h-1.5l0.4,2.5l1,0.6l0.2-0.4l3.2-0.6l0.8-2.1h1.5l1.1,1.5h4.9l0.9,1.3l1.9,1.9h2.3l1.2-1.9h3.8l2-1.5l-4.1-4.1l-0.4-1.8l3.7-2.2
	l2.2-1.2l0.6-2.8l2.3-1.8l-0.8-3.7l-1.6-1.9l-0.4-6.1l-2.2-5.1l-2.2-0.8l-1.6-2.8l-1.4,1.8l-1.3-1.8v-2.3l-2.3-3.3l-6.4,0.8l-3.7-1
	L277.6,263.8z"/>
<path id="FR-87" inkscape:label="Haute-Vienne" d="M261,266.7l-1.8,1.8l-4.9-0.4l-0.6-0.1l-3.7,0.7l-2.2,1.8v2.3l-4.3,0.2l-2.5,2.9
	l-1.6,1.2l1.3,1.6l-0.2,5.3l-1,1.8l1.6,1.8l2.7,0.2l0.6,2.7l0.2,1.8l-3.5,0.8l-1.8,0.6l0.4,4.9l-2.3,1.6l-2,0.6l-1,2.8l-1.6,0.2
	l-0.7,3l4.6,0.2l1,1.9l-0.8,2.2l1.8,2.3l1.3-0.4l1.4-2l6.2,0.6l1,3.9l4.3,0.6l1,1.3l-2.9,1.4l1.4,1l4.1,0.6l0.3,0.8l1.1-2.2l2.3,0.9
	l2.6-3.2l1.5,0.2l1.3-2.1l3.8,0.4l1.5-1.5h1.9l1.5-2.8l2.3-0.2l1.5-2.5l2.1,0.6h1.5l1-1.7l-1-0.6l-0.4-2.5h1.5v-1.1l-2.6-1.7
	l-2.8-1.2l0.4-2.6h-0.6l-1.1,1.5l-3.4,0.2l-1.9-0.2V297l2.3-1.9l-1.5-1.9l-3.6,1.1l0.6-8.1l-1.7-1.7l-1.7-4.2l-2.5-0.6l-0.4-2.3
	l2.3-4.7l-0.1-2.9l-0.5,0.6L261,266.7z"/>
<path id="FR-86" inkscape:label="Vienne" d="M210.2,221.6l-3.7,3.9l-0.9,1.6l0.3,4.8l1.7-0.2l0.2,2.1l0.7,3.4l1.1,2.3l-1.3,1.5
	l0.6,1.1l-0.8,1.5v0.6l1.5,1.7v1.1l-0.7,1.7l-2.1,3.2l2.1,0.8l0.7,1.5l-0.9,2.3l-0.2,1.1l-1.3,2.1v1.5l0.8,0.2v4.5l1.5,1.1l-0.7,1.5
	l0.2,1.3l1.7,1.9l0.9-1.3v-1.1l1.7-0.8l1.3,0.8v3.2l-1.3,1.5l-1.1,2.5l1.5,2.3l3,0.8l-0.7,1.9l-2.8,0.5l2.6,3.1l3.4-0.2l3-1.1l3,1.7
	l1.1-0.8l-0.2-2.8l1.7-1.3l1.5,2.6l1.2,1.3l3.6-1.5l1.5-1.7h3.4l1.8,0.9l0.1-3.7l-1.3-1.6l1.6-1.2l2.5-2.9l4.3-0.2v-2.3l2.2-1.8
	l5.3-1l0.4-2.9l-2.1-1.2l-1.2-4.1l-3.1-0.4l-1.9-1.9l-3.7-2.9l0.8-2.3v-3.7l-3.5-3.5l-0.4-2.8l-3.3-3.5l-1.2-4.7l-1.4-0.6l-1.6-2.2
	l-1.6,1l0.4,2.2l-5.1,1.2h-5.8l0.2-2.3v-3.7l-4.7-1.4v-2.3l-3.7-0.8l-0.8-3.1H210.2z"/>
<path id="FR-16" inkscape:label="Charente" d="M227.7,280.8l-1.7,1.3l0.2,2.8l-1.1,0.8l-3-1.7l-3,1.1l-3.4,0.2l-2.6-3.1l-0.8,0.2
	l-3.4,1.7l-2.6,0.7v1.5l-1.5,1.7l0.4,1.1l-1.9,1.1l-1.7,6.2l-0.4,4l-1.5,0.6l-2.1-0.2l-0.4-1.1h-2.3l-1.2,1.1h-2.8l-2.3,1.2l1.7,0.7
	l0.2,4.5l0.8,0.2l-1.5,1.7l1.7,1.1l2.3,2.1l1.3,2.1l1.5,1.5l-0.4,2.1l-0.8,0.8l1.3,1.3v1.5l-2.6,2.1l1.1,0.8l1.5,0.4v0.4l-2.1,0.8
	l0.2,1.1l1.3,0.7l4-0.7l1.7,1.9l1.3,1.7l4.2,2.8l0.6-1l3.9,0.4l1.9-1.8l3.5-3.5l0.2-6.8l9.2-6.2l0.2-4.7l2.8-0.4l1.8-3.1h1.1l0.7-3
	l1.6-0.2l1-2.8l2-0.6l2.3-1.6l-0.4-4.9l1.8-0.6l3.5-0.8l-0.2-1.8l-0.6-2.7l-2.7-0.2l-1.6-1.8l1-1.8l0.1-1.6l-1.8-0.9h-3.4l-1.5,1.7
	l-3.6,1.5l-1.2-1.3L227.7,280.8z"/>
<path id="FR-79" inkscape:label="Deux-S√®vres" d="M203.2,225.3l-5.3,0.2l-4.9,1l-5.3,0.4v2.7l-2.7,1.8l-6.1-1.4l-4.1,1.8
	l1.9,2.8v2.3l4.7,3.9l-1.2,2.5l3.1,3.5l-1.4,1.8l1.9,2.9l0.6,5.5l-1.2,1.6l1.4,2.3l-1.4,2.6l0.2,1.6l1.6-1.2l1.9,2l-2.7,1.8l-1,1.2
	l-2.2,0.6l-2.5,1.2l-0.2-0.2l0.1,2.9l2.1,2.3v1.3l3.2,2.3l4,0.2l2.8,3.6l4.5-0.4l3.6,2.5l2.8,1.3l0.4,2.1l1.5,1.5l1.8-1l-0.4-1.1
	l1.5-1.7v-1.5l2.6-0.7l3.4-1.7l3.6-0.6l0.7-1.9l-3-0.8l-1.5-2.3l1.1-2.5l1.3-1.5v-3.2l-1.3-0.8l-1.7,0.8v1.1l-0.9,1.3l-1.7-1.9
	l-0.2-1.3l0.7-1.5l-1.5-1.1v-4.5l-0.8-0.2V260l1.3-2.1l0.2-1.1l0.9-2.3l-0.7-1.5l-2.1-0.8l2.1-3.2l0.7-1.7v-1.1l-1.5-1.7v-0.6
	l0.8-1.5l-0.6-1.1l1.3-1.5l-1.1-2.3l-0.7-3.4l-0.2-2.1l-1.7,0.2l-0.3-4.8l-0.4,0.7l-1.4-1.2L203.2,225.3z"/>
<path id="FR-22" inkscape:label="C√¥tes-d&apos;Armor" d="M91.2,119.1l-1.8,1.4l-4.5,0.6l-1,1.4l-3.1-2.3l-4.1,2.8
	l1.6,2.1l-2.7,3.7l-0.1-0.1l-1.1,5.2l2.4,0.2l-0.2,2.1l1.8,1.1l-1.6,1.6l-1.1,0.8l0.2,1.9l2.4,0.8l-2.3,0.7v2.4l1.5,1.9l0.3,5.7
	l-1,1l0.8,2.9l3.1,0.8l0.3,1.6l1.9,0.2l1.6-1.1l1,1l3.7,1.6l3.1-1.6l0.8-1.6l2.6-0.2l2.9,2.6l2.8-0.7l2.4,2.4h1.1l1.1,1.4h2.3
	l0.8-1.1l1,2.1l2.4,1l3.1-1.9v-2.1l2.2-0.8h1.4l1.8,3.2l3.9,0.3l1.9-2.4l2.1-4.5l2.8-1l1.4-2.1l1.5,1.4l3.1-0.6l1-8.9l1-3.6l-1-1.9
	l-1.6-0.6L136,134l-1.2,1.4l-3.7-0.4l-0.4,2.2l-2.3,0.2l-0.2-2.7l-2-0.6l-1.4,1.6v-3.9l-2.3,1.8L119,133l-1.2,2.3l-7.2,3.9v2H109
	v-3.5l-4.1-1.9l0.4-3.5l-3.7-2.7v-3.3l-2.8-0.6l0.2-3.1l-2.1-0.2l0.2-2.2h-3.9l-0.6,1.9L91.2,119.1z"/>
<path id="FR-85" inkscape:label="Vend√©e" d="M160,225.5l-1.1,2.1h-3.2l1.3,1.3l-1,3.2l-2.9,1l-1.1-0.8l0.5-3.2l-0.8-1.8
	h-1.8l-1.3,1.4l0.6,4.5l1.5,2.1l-1.5,1.6l-2.7-0.5l-4-1l-1.1-3.1l-2.6-0.3l-3.4-1.5l-0.8-1.9l-3.7-2.4l-5.8,7.5l-0.2,4.7l6,5.8
	l-0.2,1.8h1.8l3.7,11.2l3.9,1.9l3.9,3.9h4.5l1.8,3.9h4.3l1.9,2.9l4.3,2.2l0.2-2.8l1.1,1l6-3.6l2.8-0.2l1.2,3.1l3.7-1.6l3.1,2.3
	l2.5-1.2l2.2-0.6l1-1.2l2.7-1.8l-1.9-2l-1.6,1.2l-0.2-1.6l1.4-2.6l-1.4-2.3l1.2-1.6l-0.6-5.5l-1.9-2.9l1.4-1.8l-3.1-3.5l1.2-2.5
	l-4.7-3.9v-2.3l-1.9-2.8l0.4-0.2l-2.7-2.2h-5l-1.6-1l-2.2-0.3l-2.6-2.4L160,225.5z"/>
<path id="FR-50" inkscape:label="Manche" d="M141,73.4l-0.8,2l4.1,3.3V83l-1.6,1.9l1,1l0.6,0.4l-0.4,3.7l1.4,3.1l4.5,5.1l1,4.5
	l1,1.4v7l2.3,4.7v5.5l-2.5,5.1l2.7,7l4.3,1l0.4,2l-2.1,1h-3.7l0.6,2.5l1.2,3.7l3.3,2.9l1.6,0.4l1.6-2.1l1.8-0.2l2.1-2.5l2,1.6h2.3
	l1.6,0.8v0.4l3.3,0.4l2-1.6l2.9,1.2l0.1,0.1l3.3-2.8l1.1-3.7l-0.3-1.6l0.5-1.9l-1.9-1.9l-5-3.2l-3.7-0.3l-3.7-4.7l3.1-1.1l1.3-2.4
	l-1.6-1.5l1.4-1.3l1.4,1.1l2.6-1.6l1.6-2.6l0.6-2.6l-1.1-2.3l0.7-0.8l-1.5-2.4l1.6-2.1l-1.3-1.6l-1.6,2.1l-2.2-1.3l-3.7-3.7
	l-0.2-1.6l1.1-1.1l-0.3-2.2l-1.8,0.5l-0.2-4.7l-5.1-6l1.6-3.9h2.2l-1.9-5.3l-8.4-0.4l-4.5,3.1l-5.1-3.3L141,73.4z"/>
<path id="FR-56" inkscape:label="Morbihan" d="M77.5,156.5l-3.2,1.6H72l-2.4,1.9l0.2,1.4l1.4,3.7L72,168l5,0.8l2.4,1.9l1-1.2
	l1.6,2.1l-0.8,1l-0.2,2.9h-1.4l-1.1,1.8h-2.3l-0.9,3.8l2.2,3.5l3.1,0.8l1.2-1.8l-0.6,2.1l2.7,1.2l3.5,3.5l1.2,2.2l-0.4,2.5l-0.4,2.6
	l2.3,1.8l1.2-1.4l-1.2-1.6V193l2.3,0.6l0.8-2.3l0.6,1.4l2.5,2.2l1.2-2l-1.2-2.7l2.2,2.9l2.7-0.4l-0.6-1.4l2.5,0.6l1.9,2.3l-1,1.6
	l-2.5-0.8l-2.9-1.4l-1.6,2l2.3,0.8l1.8,2.7l10.6-1l2.7,0.6l-1.3,1.2l0.2,1.8l0.4,0.3l0.8-0.2l1.8-1.8l1.2,1.3h3.1l3.7-1.9l5.5-2.2
	l0.2-5.5l1.2-0.6l-2.1-3.9l1.8-1.4l-0.3-1l-1.1-0.7l1.8-0.8l1.6-1.9l-0.2-1.9h-2.1l-0.5-1.9l1.5-1.9l-1.6-2.9l-2.4-1.5h-2.8l-1-0.3
	v-1.3l1.4-1.3l0.8-3.2l-0.5-2.1l-0.7,0.8l-3.9-0.3l-1.8-3.2h-1.4l-2.2,0.8v2.1l-3.1,1.9l-2.4-1l-1-2.1l-0.8,1.1h-2.3l-1.1-1.4h-1.1
	l-2.4-2.4l-2.8,0.7l-2.9-2.6l-2.6,0.2l-0.8,1.6l-3.1,1.6l-3.7-1.6l-1-1l-1.6,1.1l-1.9-0.2l-0.3-1.6l-3.1-0.8L77.5,156.5z"/>
<path id="FR-29" inkscape:label="Finist√®re" d="M62.1,125l-2.1,2.3l-2.3-1l-4.3,0.4l-0.8,1.9l-2.5,0.6l-0.4-2.2l-4.5,0.6
	v1.4l-3.1,0.2l-1.4-1l-1.6,0.8l-0.4,2.3l-5.2,0.2l-2.8,3.3l2.3,1.8l-3.1,2.6l1,1.8l-0.8,4.3l3.1,0.4l1.2-1.2l0.6,0.8l7.4-1l4.9-3.5
	l-4.3,4.1l0.4,1.9l3.9-1.8l-0.8,2.8l4.3,0.2l-0.2,1.2l-4.7-0.2l-3.7-1l-4.5-2.2l-2.7,3.1l3.5,1.2l-0.2,5.2l1-0.8l2.2-3.3l4.1,2.3
	l2,0.4l0.8,3.1l-1.2,2.1l-2.5-0.2h-2.5l-3.9,0.6l-6.7,0.4l-1.3,1.8l1.9,1.2l2.2-0.2l1.8,1.6l2.5-0.2l4.1,4.7l1,5.1l-1.4,2.8l4.1,0.8
	l4.5-0.2l1-1.8l-1.8-2.3L52,174l1.8-0.2l3.1,1.8l1.9-0.4v-3.3l0.8,3.3l2.5,4.1l5.5,0.4l0.2-1.2l1.3,1.9l3.3,0.6h2.5l0.2,0.2l0.9-3.8
	h2.3l1.1-1.8h1.4l0.2-2.9l0.8-1l-1.6-2.1l-1,1.2l-2.4-1.9l-5-0.8l-0.8-2.9l-1.4-3.7l-0.2-1.4l2.4-1.9h2.3l3.2-1.6l-0.7-2.5l1-1
	l-0.3-5.7l-1.5-1.9v-2.4l2.3-0.7l-2.4-0.8l-0.2-1.9l1.1-0.8l1.6-1.6l-1.8-1.1l0.2-2.1l-2.4-0.2l1.1-5.2l-3.2-1.9l-5.5,0.2v3.9h-1.4
	l-0.4-1.8l-2.3,0.4L62.1,125z"/>
<path id="FR-35" inkscape:label="Ille-et-Vilaine" d="M137.7,131.8l-1.9,2.1l1.1,5.9l1.6,0.6l1,1.9l-1,3.6l-1,8.9l-3.1,0.6l-1.5-1.4
	l-1.4,2.1l-2.8,1l-2.1,4.5l-1.3,1.6l0.5,2.1l-0.8,3.2l-1.4,1.3v1.3l1,0.3h2.8l2.4,1.5l1.6,2.9l-1.5,1.9l0.5,1.9h2.1l0.2,1.9
	l-1.6,1.9l-1.8,0.8l1.1,0.7l0.3,1l-1.8,1.4l2.1,3.9l3.9-2.1l12.1-0.6l0.8-2.2l2-1.9l4.3-0.6l0.2-2.2l2.9,0.4l1.8,2.3l3.9,1l0.8-1.6
	l1-3.5l2.5-6.2l1.4-0.8l3.3,0.4v-5.3l-1.4-1.4v-5.7l-0.6-1.9v-3.1l2-2v-3.9l-1-0.8l0.2-5.5l-1.6-0.8h-2.3l-2-1.6l-2.1,2.5l-1.8,0.2
	l-1.6,2.1l-1.6-0.4l-3.3-2.9l-1.2-3.7l-0.6-2.5h-9.6l-3.5-2.2l2.3-3.1L137.7,131.8z"/>
<path id="FR-44" inkscape:label="Loire-Atlantique" d="M154.3,181.7l-0.1,2.2l-4.3,0.6l-2,1.9l-0.8,2.2l-12.1,0.6l-5.1,2.7l-0.2,5.5
	l-5.5,2.2l-3.7,1.9h-3.1l-1.2-1.3l-1.8,1.8l-0.8,0.2l1,0.7l-3.7,3.3l0.8,0.8l0.8,1.6l-2,2.8l2.2,1.2l3.7,0.8l0.4-1.6l2.2,2.8h3.5
	l2.5-2.8h3.3l-3.5,1.8l0.2,2l0.8,1.8l-2.2,2.2h-2.3l0.4,2.9l4.3-0.8l5.1,4.7l-0.2,0.3l3.7,2.4l0.8,1.9l3.4,1.5l2.6,0.3l1.1,3.1l4,1
	l2.7,0.5l1.5-1.6l-1.5-2.1l-0.6-4.5l1.3-1.4h1.8l0.8,1.8l-0.5,3.2l1.1,0.8l2.9-1l1-3.2l-1.3-1.3h3.2l1.1-2.1l1.1,0.2l2.6,2.4
	l1.9,0.2l0.1-2l-1.6-2.1h-1.4l-0.5,0.2l-1-0.5l0.8-0.8v-1.5l1.6-0.5l1-2.2l-0.8-0.8l-0.2-2.8h-2.1l-2.1-2.6v-1.9l2.2-1.2l4-0.8
	l6.3,0.2l1.9-1.3l-0.7-4l-2.9-2.7l-3.5,0.5l-1-0.8l-0.2-2.9l2.6-2.3l-1.9-2.4l-1.3-3.4l-2.1-1.3v-2.2l-0.2-0.7l-3.7-0.9l-1.8-2.3
	L154.3,181.7z"/>
<path id="FR-49" inkscape:label="Maine-et-Loire" d="M163.4,184.6l-0.4,0.9l-0.3-0.1l0.2,0.7v2.2l2.1,1.3l1.3,3.4l1.9,2.4l-2.6,2.3
	l0.2,2.9l1,0.8l3.5-0.5l2.9,2.7l0.7,4l-1.9,1.3l-6.3-0.2l-4,0.8l-2.2,1.2v1.9l2.1,2.6h2.1l0.2,2.8l0.8,0.8l-1,2.2l-1.6,0.5v1.5
	l-0.8,0.8l1,0.5l0.5-0.2h1.4l1.6,2.1l-0.1,2l0.4,0.1l1.6,1h5l2.7,2.2l3.7-1.6l6.1,1.4l2.7-1.8v-2.6l5.3-0.4l4.9-1l5.3-0.2l0.6,1.4
	l1.4,1.2l1.3-2.3l3.7-3.9h1.5l2.2-8l3.1-3.7l-0.2-4.3l2-2.6v-1.2l-1-1.2l0.6-1.3l-2.7-1l-8.2-5l-7.6-2.2l-2.9-0.2v-1.9l-1.8-1.5
	h-1.9l-3.6-1.1l-2.2,2.2l-5.2,0.2l-2.3-1.3l-5.8-1.8l-1.3,1.6l-3.2-2.1H167L163.4,184.6z"/>
<path id="FR-72" inkscape:label="Sarthe" d="M223.9,147.8l-5.3,0.2l-5.3,4.9l-2.8-0.2l-3.7,1.2l-1.1,1.9l-0.5,4.2l0.3,2.6l-2.9,2.4
	l-0.8,1.6l0.7,1.5l-0.8,1.9l0.3,0.8l-3.2,0.3l-0.5,1.4l1.4,3.6l-0.2,1l-1.3,1.1l-2.8,0.2l-0.3,1l0.7,1v5.8l-0.6,1.5l1.8,1.4v1.9
	l2.9,0.2l7.6,2.2l8.2,5l2.7,1l1.3-2.6l3.9,2.8h2.2l-1.2-3.9l2.4,1.6l1.3-2l5.7-1.6l-1-2.3l1.4-1.8l2.9-1.2l2.7-3.5v-3.7h2l0.8-2.7
	l0.2-4.1l-1.9-1.8l1.6-2.7l2.3-2.9l-2.7-1.9l-2.5-0.4l-2.8-4.1h-0.8l-0.2,1.9l-0.2-1.3h-4.1l-2-2.9l-3.3-1.2l-1-7L223.9,147.8z"/>
<path id="FR-53" inkscape:label="Mayenne" d="M204,142.3l-1.9,0.2l-0.8,1.9l-2.9,1.2l-5.3-0.8l-5.3,3.1l-1.9-1.4l-2.9,2l-2.2-1.6
	l-1.4-2.3l-2.9-1.2l-2,1.6l-3.3-0.4l-0.2,5.1l1,0.8v3.9l-2,2v3.1l0.6,1.9v5.7l1.4,1.4v5.3l-3.3-0.4l-1.4,0.8l-2.5,6.2l-1,3.5
	l-0.3,0.7l3.5,0.7h2.9l3.2,2.1l1.3-1.6l5.8,1.8l2.3,1.3l5.2-0.2l2.2-2.2l3.6,1.1h1.9l0,0l0.6-1.5v-5.8l-0.7-1l0.3-1l2.8-0.2l1.3-1.1
	l0.2-1l-1.4-3.6l0.5-1.4l3.2-0.3l-0.3-0.8l0.8-1.9l-0.7-1.5l0.8-1.6l2.9-2.4l-0.3-2.6l0.5-4.2l1.1-1.9l3.7-1.2h-0.6l-1-3.5l-2.5-1
	l-0.8-4.3L204,142.3z"/>
<path id="FR-14" inkscape:label="Calvados" d="M224.1,93.7l-4.6,0.8l-7.4,4.3l-8.4,3.3l-6.7-3.7l-16-2.3l-3.7-1.9l-5.8,1.5l0.3,2.2
	l-1.1,1.1l0.2,1.6l3.7,3.7l2.2,1.3l1.6-2.1l1.3,1.6l-1.6,2.1l1.5,2.4l-0.7,0.8l1.1,2.3l-0.6,2.6l-1.6,2.6l-2.6,1.6l-1.4-1.1
	l-1.4,1.3l1.6,1.5l-1.3,2.4l-3.1,1.1l3.7,4.7l3.7,0.3l2.8,1.8l3.9-1.2l2.9-3.4l4,1.1l3.5-2.4l2.1-0.8l2.2,2.2l3.7-0.7l3.2,1.8l4-1.3
	l3.7-2.8l2.4-2.8l1.6-0.3l0.5,2.1l1.3-0.3l0.2-1.5l3.7-0.6l1.3,0.8l4-0.9l0.7-1.9l-0.2-1.8l-2-0.8l-0.2-1.4l1.8-1.2l0.2-2l-1.2-4.7
	l-2.3-3.3l2-1.2v-0.8l-2-0.6L224.1,93.7z"/>
<path id="FR-61" inkscape:label="Orne" d="M228.3,120.6l-4,0.9l-1.3-0.8l-3.7,0.6l-0.2,1.5l-1.3,0.3l-0.5-2.1l-1.6,0.3l-2.4,2.8
	l-3.7,2.8l-4,1.3l-3.2-1.8l-3.7,0.7l-2.2-2.2l-2.1,0.8l-3.5,2.4l-4-1.1l-2.9,3.4l-3.9,1.2l2.2,1.4l1.9,1.9l-0.5,1.9l0.3,1.6
	l-1.1,3.7l-3.3,2.8l1.3,2.2l2.2,1.6l2.9-2l1.9,1.4l5.3-3.1l5.3,0.8l2.9-1.2l0.8-1.9l1.9-0.2l1.8,1.6l0.8,4.3l2.5,1l1,3.5l3.3,0.2
	l5.3-4.9l5.3-0.2l1.6,2.1l1,7l3.3,1.2l2,2.9h4.1l0.2,1.3l0.2-1.9h0.8l2.8,4.1l2.1,0.3v-4.6l-1.3-1.8l-0.4-1.6l2.9-1.8l2.9-0.6
	l1.9-2.3l-0.4-7.2l-4.1-3.5l-0.2-3.3L240,136l1.4-1.9l-0.8-2.9l-2.7-1l-2-2l-1.2-2.7l-5.5-0.2l-1.6-2L228.3,120.6z"/>
<path id="FR-28" inkscape:label="Eure-et-Loir" d="M268.6,122l-1.2,1v3.1l-3.9,1.9v2.9l-1.2,1.4h-4.9l-2.3-1L248,135h-2.7l-2.8,2.7
	l0.7,0.4l0.2,3.3l4.1,3.5l0.4,7.2l-1.9,2.3l-2.9,0.6l-2.9,1.8l0.4,1.6l1.3,1.8v4.6l0.4,0.1l2.7,1.9l-1,1.2l1.9,1l3.1-0.6h1.8
	l-0.1,0.8l-1.7,1l1.1,0.8h2.8l1,2.2l1.7,1l1.2,2.8l4.3,1.1l2.7-0.3l2.4-2.2l2.1,0.6l0.5-1.2l-0.1-1.2l1.1-0.8l1.8,1.1l1.1-0.8v-1.4
	l1.5-1l1.4,0.6l1.2,1.4l2.2-1.2h2.4l1.7-1.8l1-3.6l1.5-0.3l-0.4-3.7l1.8-1.5l-0.6-1.1l0.2-0.4l-0.5,0.1l-0.4-5.2l-0.4-0.6l-0.1-2.7
	l-4.1-0.8l-1.8-2.2l-0.6-4.3l-2.3-0.4L276,141l-2.7-1.9l-1.4-3.3l1.4-2.3l-1.4-1.6V130l0.8-2.2l-1.6-1.6l-0.6-2.3L268.6,122z"/>
<path id="FR-89" inkscape:label="Yonne" d="M339.9,153.2l-1.8,1.3l-7.6-0.4l-3.5,1.8l-1.4,2.9l1.6,1.8l-2.3,2.8l-1.8,2.1l3.5,3.3
	l1,3.1l2.6,2.7v3.5l-5.1,4.3l1.8,2l-0.4,2.9l-2.8,2h-3.9l0.6,2.2l2.5,3.5l0.6,3.1l0.6,2.2l-1.2,0.3l2.5,0.6h1.8l1-1.5h1.2l1.4,1.2
	l-0.3,1.6l1.3,0.8h1.8l2.5,1.7l1.1-0.6l1.1,1l1.1-0.3l1.9-1.2l1.8,0.6l1.2-0.3v-3.5l0.7,0.1l0.4,1.8l2.2,1.4v2.1l3.2,0.1l4.2,3.9
	l2.7,0.1l-0.2-1.2l1.1-1.7l1,1.2l-0.8,1.4l0.4,1.3l1.5-1h1.8l-0.2,2.8l1.7,1.1l1.3-0.6l3.1-2.1l-0.2-0.4l-1.8-1.1l-0.1-2l2-1
	l0.8-1.1l-0.6-1v-2.2l1.5-2.2l2.2-4.8l0.4-2.1l1.4-0.6l0.2-0.4l-0.7-0.6v-1.7l2.2-1.7l0.6-2.8l-1-1.7h-1.6l-0.4-0.4v-2.4l2-1.4
	l-0.2-1.4l-0.3-1.4l-1,2.2l-1.4-0.2l-1.2-2.2l-3.9,2l-7.8-0.4l-1-2.2l-2.2-2.9l-0.4-3.5l-3.1-3.7l-2,1.4l-3.5-2.7l0.6-5.3l-5.1-5.3
	h-2.3L339.9,153.2z"/>
<path id="FR-70" inkscape:label="Haute-Sa√¥ne" d="M445,171.4l-3.7,0.6l-0.6,1.9l-2,1.4l-1.3-1.6l-1,0.6l0.8,1.2l-1.9,1.2
	l0.6,1.6l-2.2,0.8v2.5h-2.8l-0.2,1.6l-2.7,0.6l0.2,2.3l1.8,0.2l-1,1.2l-0.6,3.9h-1.8l-2.9,1.2l-3.1-1.2l-2.7,1.2v2l2.1,0.4l1.6,3.1
	l0.2,1.6l-2.5,2.9l-1.2,0.4l-0.8,1l2.2,1l0.4,3.1l1.8,0.2l0.2,3.9l0.8,0.8l0.1,0.6l1.5,0.4l1.7,1.4h2.5l1-1l1.7,0.1l1.8,0.1l3.9-3.2
	h1.1l1.2-1l4.1,0.1l3.1-2.5l2.2-0.4l0.8-2.1l1.8-0.6l1.8-3.1l2.5-2l2.7-0.4l2,1.4l3.7-0.4v-2l1.5-0.8l1.2-1.6h2.2l1.2-1.3l0.5-3.1
	v-1.9l-0.8-3v-2.5l1.5-1.1l1.8-0.9l-0.2-0.4l-6.2-3.3l-1.8-2l-1.8-1.2l-1.6,0.8l-0.2,1.2l-1.6,1h-1l-2.9-3.3h-4.1l-1.8,1.4l-1.6,0.2
	l-2.5-1.9l0.2-2.2L445,171.4z"/>
<path id="FR-76" inkscape:label="Seine-Maritime" d="M263.4,57.4l-1.3,1.6l-8.4,6.4l-14.8,3.7l-9.8,3.5l-8,4.3l-4.7,7l-1,5.5
	l3.9,2.9l5.7,1.2l-0.9,0.2v0.2l4.4-0.6l2.2-2.4l1.7-0.4l1.9,3.4l2.7-0.3l1.1,1.9l4.8-0.3l4.8,3.4l-3.1,1l2.2,1.7h1.4l1.2,2.7h2.2
	l0.7-1.7l-1.7-1.1l4.8-1.4l5-0.6l1.3-3.7l2.4-2.1l4.5-0.1l5.2,2.7l3.1,0.3l0.5-1.6l1.4-2.6l0.8-1.3h-2v-3.3l-1.2-1.9l0.8-3.9l0.8-2
	h-1.6l0.8-1.9l1.9-2.3l-1.9-3.5l-0.6-3.5l-8.4-8.6l-1-1.9l-2.2,0.2L263.4,57.4z"/>
<path id="FR-27" inkscape:label="Eure" d="M232.5,90.5l-1.7,0.4l-2.2,2.4l-4.4,0.6l0.9,7.2l2,0.6v0.8l-2,1.2l2.3,3.3l1.2,4.7l-0.2,2
	l-1.8,1.2l0.2,1.4l2,0.8l0.2,1.8l-1.6,4.5l1.6,2l5.5,0.2l1.2,2.7l2,2l2.7,1l0.8,2.9l-1.4,1.9l2.8,1.9l2.8-2.7h2.7l7.1-3.7l2.3,1h4.9
	l1.2-1.4v-2.9l3.9-1.9v-3.1l1.1-0.9l-0.1-0.9l1-1l-1.8-0.4v-1.6l-1-1.6l0.8-1l5.5-1.6l1.4-2.3l1.2-4.3l1.4-1.8l0.3-2.3l1.8,1
	l1.4-0.4l-1-1.6l-0.6-4.5l-1.8-1.6v-0.1l-3.1-0.3l-5.2-2.7l-4.5,0.1l-2.4,2.1l-1.3,3.7l-5,0.6l-4.8,1.4l1.7,1.1l-0.7,1.7h-2.2
	l-1.2-2.7H247l-2.2-1.7l3.1-1l-4.8-3.4l-4.8,0.3l-1.1-1.9l-2.7,0.3L232.5,90.5z"/>
<path id="FR-37" inkscape:label="Indre-et-Loire" d="M233.7,192.8l0.4,0.9l-5.7,1.6l-1.3,2l-2.4-1.6l1.2,3.9h-2.2l-3.9-2.8l-1.9,3.9
	l1,1.2v1.2l-2,2.6l0.2,4.3l-3.1,3.7l-2.2,8h0.2l0.8,3.1l3.7,0.8v2.3l4.7,1.4v3.7l-0.2,2.3h5.8l5.1-1.2l-0.4-2.2l1.6-1l1.6,2.2
	l1.4,0.6l1.2,4.7l3.3,3.5l0.4,2.8l3,3l1.7-0.2l2.1-2l1.5-8l1-2.8l0.7-3.5l3.1-1.1l2.1,0.4l1.4,1.3l1.5-2.5l1.4-1.3v-1.5l1.8-0.1
	l0.4-1.8l-1.6-2.1l0.2-0.9l-1.1-0.9l-2.9-4.3h-3.8l-1.1-1.7v-7l-1.5-4.1l-0.3-5l-2-0.2l-2.2-1.7h-0.6l-2,1.4l-1.2-0.8l-0.3-1.9
	l1.4-0.7l0.1-0.7l-0.8-0.7L233.7,192.8z"/>
<path id="FR-45" inkscape:label="Loiret" d="M295.2,156.4l-2.5,2.3l-5.7,0.5l-0.2,0.4l0.6,1.1l-1.8,1.5l0.4,3.7l-1.5,0.3l-1,3.6
	l-1.7,1.8h-2.4l-2.2,1.2l-1.2-1.4l-1.4-0.6l-1.5,1v1.5l-1.1,0.8l-1.8-1.1l-1.1,0.8l0.1,1.2l-0.5,1.2l0.4,0.1h1.7l-0.1,1.1l-1.1,1.9
	v1h1.1l1,1.1l0.3,1.1l-2.2,2.2l1.1,2.7v1.2l1.8,1.2l2.5,0.3l1.7,1.4l0.4,2.4l1.8,2.1l2-0.6l0.8-1.8l3.1,0.4l0.7,0.7h2l1-1.1l7.2,0.3
	l1.7,2.5l2,0.8l1.7,1.6l2.1-0.3l0.6-0.7h1.2l1.6,2l3.2,0.2l0.8,1.1l2.2,3.1l1,0.8l1.2-0.1l0.2-2.8l0.6-0.3l0.8,0.1l1.4,1.8l1,0.4
	l2-0.8l-0.3-0.3l-0.2-2l3.9-1.2l-0.6-2.2l-0.6-3.1l-2.5-3.5l-0.6-2.2h3.9l2.8-2l0.4-2.9l-1.8-2l5.1-4.3v-3.5l-2.6-2.7l-1-3.1
	l-3.5-3.3l-4.9,2.8l-0.4-1.6l-2.2-0.2l-0.6,1.6l-1.9,0.4l-5.3-0.2l-2.2,1.4l-1.8-1.6l3.1-2.2l-0.2-3.3l-2.3-1.2l-2-2.9l-5.2-0.4
	L295.2,156.4z"/>
<path id="FR-36" inkscape:label="Indre" d="M276.2,217.3l-1.2,0.4l-2.5-0.2l-2.9,1l-0.7,1.5l-0.3-0.6l-3.4,0.2l-1.7,1.4l-2,0.3
	l-0.3,1l1.6,2.1l-0.4,1.8l-1.8,0.1v1.5l-1.4,1.3l-1.5,2.5l-1.4-1.3l-2.1-0.4l-3.1,1.1l-0.7,3.5l-1,2.8l-1.5,8l-2.1,2l-1.7,0.2
	l0.5,0.5v3.7l-0.8,2.3l3.7,2.9l1.9,1.9l3.1,0.4l1.2,4.1l2.1,1.2l-0.4,2.9l-1.6,0.3l0.6,0.1l4.9,0.4l1.8-1.8l3.1,3.1l3.9-4.5l1.8,1.2
	l2.3-0.2l0.8,0.4l3.5,0.2l1.2-3.1l9.8,1.2l3.7,1l1.7-0.2l0.1-1.6l2-2l-0.4-1.7l-1.1-2.2l0.4-0.8l0.2-2.5l0.7-0.8l0.2-0.6l-1.7-1.5
	l-0.6-2l-2.7-1.4v-1.5l1.9-1.1v-1.1l-1.8-1.5l-0.6-1l1.4-0.7l-0.1-1.2l2.2-1.8l-0.1-0.8h-1.8l-1.1-1.3v-0.7l1-1.7v-1.2l-2.2-3
	l0.4-2.7l-1.3-1l-2.7,0.1l-2.1,0.8l-2.8-0.4l-1.4-1.1l-0.3-0.8l2.2-1.8l0.2-2.2l-3-1.7L276.2,217.3z"/>
<path id="FR-41" inkscape:label="Loir-et-Cher" d="M244,168.1l-1.3,1.7l-1.6,2.7l1.9,1.8l-0.2,4.1l-0.8,2.7h-2v3.7l-2.7,3.5
	l-2.9,1.2l-1.4,1.8l0.6,1.5l9.5,0.3l0.8,0.7l-0.1,0.7l-1.4,0.7l0.3,1.9l1.2,0.8l2-1.4h0.6l2.2,1.7l2,0.2l0.3,5l1.5,4.1v7l1.1,1.7
	h3.8l2.9,4.3l1.1,0.9v-0.1l2-0.3l1.7-1.4l3.4-0.2l0.3,0.6l0.7-1.5l2.9-1l2.5,0.2l1.2-0.4l1.7,1.6l3,1.7l2.5-0.2l-0.1-2.5l1.1-1.2
	l1.1-0.1l1,1.1l3.9-0.4l2.5-1.4l-0.3-1l-0.7-0.8l0.1-1.8l1.8-3.3l2.4-1v-2.1l0.6-1.2l-1.5-0.6l-1-2.1l-2.5-0.7l-0.1-0.8l2.5-2.1
	l2.8-1.4l-1.6-2.4l-7.2-0.3l-1,1.1h-2l-0.7-0.7l-3.1-0.4l-0.8,1.8l-2,0.6l-1.8-2.1l-0.4-2.4l-1.7-1.4l-2.5-0.3l-1.8-1.2v-1.2
	l-1.1-2.7l2.2-2.2l-0.3-1.1l-1-1.1h-0.9v-1l1.1-1.9l0.1-1.1h-1.7l-2.5-0.7l-2.4,2.2l-2.7,0.3l-4.3-1.1l-1.2-2.8l-1.7-1l-1-2.2h-2.8
	l-1.1-0.8l1.7-1l0.1-0.8H249l-3.1,0.6L244,168.1z"/>
<path id="FR-18" inkscape:label="Cher" d="M297,196.7l-2.8,1.4l-2.5,2.1l0.1,0.8l2.5,0.7l1,2.1l1.5,0.6l-0.6,1.2v2.1l-2.4,1L292,212
	l-0.1,1.8l0.7,0.8l0.3,1l-2.5,1.4l-3.9,0.4l-1-1.1l-1.1,0.1l-1.2,1.5l0.1,2.5l-2.5,0.2l-0.2,2.2l-2.2,1.8l0.3,0.8l1.4,1.1l2.8,0.4
	l2.1-0.8l2.7-0.1l1.3,1l-0.4,2.7l2.2,3v1.2l-1,1.7v0.7l1.1,1.3h1.8l0.1,0.8l-2.2,1.8l0.1,1.2l-1.4,0.7l0.6,1l1.8,1.5v1.1l-1.9,1.1
	v1.7l2.7,1.4l0.6,2l1.7,1.5l-0.2,0.6l-0.7,0.8l-0.2,2.5l-0.4,0.8l1.1,2.2l0.4,1.7l-2,2l-0.1,1.6l4.6-0.6l0.9-2l2.5-2.9l4.9-1
	l2.6,0.8l2.7-2.1l-0.2-1.6l-1-0.8v-3.1l5.2-5.3l2,2.2l1.8-1.8l1.6-0.2l2.7-3.5l4.5,0.4l0.1,1.1l1.5-4.8l-1-1.8l0.2-2.5l0.6-5.1
	l-2.2-2.1l0.4-4.7l-2-4.1l-0.2-2.7l-3.5-2.8l-0.6-2.3l1.8-2.5v-3.7l-2-2.4l-2,0.8l-1-0.4l-1.4-1.8l-0.8-0.1l-0.6,0.3l-0.2,2.8
	l-1.2,0.1l-1-0.8l-2.2-3.1l-0.8-1.1l-3.2-0.2l-1.6-2h-1.2l-0.6,0.7l-2.1,0.3l-1.7-1.6L297,196.7L297,196.7z"/>
<path id="FR-21" inkscape:label="C√¥te-d&apos;Or" d="M384.8,173.1l-0.4,2.5l-2.5,1.4l-6.4,0.2l0.3,1.4l0.2,1.4l-2,1.4
	v2.4l0.4,0.4h1.6l1,1.7l-0.6,2.8l-2.2,1.7v1.7l0.7,0.6l-0.2,0.4l-1.4,0.6l-0.4,2.1l-2.2,4.8l-1.5,2.2v2.2l0.6,1l-0.8,1.1l-2,1l0.1,2
	l1.8,1.1l0.7,1.5l-0.3,2.1l-0.4,1.5l1,1.7l2.8,0.6l1.2,2v0.8l-0.8,0.3v2l0.2,0.1l3.8,3.9l3.9-0.1l3.5,2.7l2.5,1.8l0.1,2.4l2.7,0.6
	l2.2,1.8l5.9-2.1l4.1-1.3l1.8-0.3l0.6-0.8l2,0.1l1.5,1l2.2-0.6l2.2-1.5l1.7,0.2v-0.2l1.3-0.8l-0.2-1l-0.4-1.2l1-1.6l3.3-1.6v-1.6
	l1.2-1.6l1.2-1.6L421,219l0.6-2.2l0.4-3.1h0.8l-0.2-1.2l-0.8-0.8l-0.2-3.9l-1.8-0.2l-0.4-3.1l-2.2-1l0.8-1l1.2-0.4l2.5-2.9l-0.2-1.6
	l-1.6-3.1l-2.3-0.4l-0.8,2l-4.3,1l-0.4-1l-3.1-3.9l-1.8,1l-2.3-0.2l-0.8-1.6l-3.1,0.2l-0.2-3.3l-1.8-1.2l2.5-2.7l-4.5-6.1l-3.5-3.7
	l-3.1-1.8h-5.6V173.1z"/>
<path id="FR-58" inkscape:label="Ni√®vre" d="M328.2,199.7l-1,1.5h-1.8l-2.5-0.6l-2.8,0.8l0.2,2l2.3,2.7v3.7l-1.8,2.5
	l0.6,2.3l3.5,2.8l0.2,2.7l2,4.1l-0.4,4.7l2.2,2.1l-0.6,5.1l-0.2,2.5l1,1.8l-1.5,4.8l0.1,1.5l3.3,1.6l2.3,2.6l2.1-1.2l2-1.2l0.4,1.8
	h2.9l0.8-1.6l1.8,0.8l0.6,2.5l1.6-0.4l3.7-5.1l1.9,1.4l0.3,0.6l3.1-1.9l1.2,0.2l1,2.4l1.8-0.3l1.4-1.4h1.8l1.4-1.8l1.4-0.3l0.3-1
	l3.1,0.2l0.2-0.7l-1.4-1.2v-1.2l2-1.1v-0.8l-1.8-1.1l-0.3-2.1l0.2-2l-1.2-0.8l1.1-1.5l1-0.6l0.7-1.7l-1-0.6l-1.1-1.7l1.4-2l2.4-1.4
	h2.9v-2.2l0.8-0.3v-0.8l-1.2-2l-2.8-0.6l-1-1.7l0.4-1.5l0.3-2.1l-0.5-1.1l-3.1,2.1l-1.3,0.6l-1.7-1.1l0.2-2.8h-1.9l-1.5,1l-0.4-1.3
	l0.8-1.4l-1-1.2l-1.1,1.7l0.2,1.2l-2.7-0.1l-4.2-3.9l-3.2-0.1v-2.1l-2.2-1.4l-0.4-1.8l-0.7-0.1v3.5l-1.2,0.3l-1.8-0.6l-1.9,1.2
	l-1.1,0.3l-1.1-1l-1.1,0.6l-2.5-1.7h-1.8l-1.3-0.8l0.3-1.6l-1.4-1.2h-1.7V199.7z"/>
<path id="FR-71" inkscape:label="Sa√¥ne-et-Loire" d="M372.9,223.7v0.2H370l-2.4,1.4l-1.4,2l1.1,1.7l1,0.6l-0.7,1.7
	l-1,0.6l-1.1,1.5l1.2,0.8l-0.2,2l0.3,2.1l1.8,1.1v0.8l-2,1.1v1.2l1.4,1.2l-0.2,0.7l-3.1-0.2l-0.3,1l-1.4,0.3l-1.4,1.8h-1.8l-1.4,1.4
	l-1.8,0.3l-1-2.4l-1.2-0.2l-3.1,1.9l3.6,6.8v2.9l1,1.2h3.3l1.2,1.6h3.1l1.4,1.9l-0.2,7.6l-4.1,3.1l-0.1,0.2h0.3l0.6,0.2l0.2,3.1
	l2.9,0.6l0.4,1.4h1.6l2.3-1.4l6.2,1l1.2,1.2l1.6-1.6h2.2l1.2-6.2l0.8-0.6h1.9l2.4,1.6l1.8-1.6l1.2,1.6l1.8-1.8l2.1-0.2l1,3.1
	l0.8,3.9l1.4,0.2l1.2-2.8l3.7-14.4l1.4-2.5l2.2-0.2l2.2,1.8l1.6-0.4l1.9-1.4l2,0.4l1.2,2.5l1.1,0.4l5.1-0.6l2-1.6l-0.8-1.2l-2.3-0.8
	l-0.2-2.7l2-1.4l0.8-3.3l-1.8-3.1l-1.2-1.6l0.6-0.6v-1.9l-1.6-1l-0.4-1.6l4.5-0.6l0.4-1.6h-1.4l-1.2-1.4h-2.2l-1.8-2.9l-1.6-0.2
	l0.2-2.3l-1.7-0.2l-2.2,1.5l-2.2,0.6l-1.5-1l-2-0.1l-0.6,0.8L402,233l-4.1,1.3l-5.9,2.1l-2.2-1.8l-2.7-0.6l-0.1-2.4l-2.5-1.8
	l-3.5-2.7l-3.9,0.1l-3.8-3.9L372.9,223.7z"/>
<path id="FR-39" inkscape:label="Jura" d="M422.6,213.4l0.1,0.5h-0.8l-0.4,3.1l-0.6,2.2l0.4,1.4l-1.2,1.6l-1.2,1.6v1.6l-3.3,1.6
	l-1,1.6l0.4,1.2l0.2,1l-1.3,0.8l-0.2,2.5l1.6,0.2l1.8,2.9h2.2l1.2,1.4h1.4l-0.4,1.6l-4.5,0.6l0.4,1.6l1.6,1v1.9l-0.6,0.6l1.2,1.6
	l1.8,3.1l-0.8,3.3l-2,1.4l0.2,2.7l2.3,0.8l0.8,1.2l-2,1.6l-5.1,0.6l2.4,0.9l3.9,5.5l2.5,1.2v2.8l2.9-0.4l3.7-4.1l3.1,1.6v2.3h5.7
	l8.1-8.9l-0.3-0.2l0.4-4.1l2.9-3.5l-2-0.8l0.2-1.2l-2.4-0.2l-0.2-1.4l1.5-1.5l-0.4-1.5l-0.8-2l3.5-1.1l1.3-1.8l0.3-2.2l-2.8-2.7
	l-2-0.5L442,237v-3.9l-0.3-2.9l-3.5,0.3l-5.5-1.8l0.8-1.9l1.2-3l0.4-1.9l-1.4-1.8l-2.5-1.7l-0.3-2.1v-1.2l-1.7-0.1l-1,1h-2.5
	l-1.7-1.4L422.6,213.4z"/>
<path id="FR-51" inkscape:label="Marne" d="M358.8,95.2l-2.3,1l0.4,1.9h-4.1l-3.7,2.8v5.2l2.7,1.8l0.8,1.8l-4.5,0.4l-0.6,1.8
	l1.8,1.2l-0.8,1.2l-1.8,0.8l0.4,1.3h2.5l1,1.4l-1.8,1.2l-1.6,4.1l-2.9,1.4l-1,2.1l-1,1.2l0.2,1.2l-1.6,1l-0.4,2.7l1.6,1l0.8,2.9
	l-1,1.8l0.6,1.4l2.9-0.2v1l0.8-0.2l3.4,3.6l4.8-0.8l5.6-3.8h3.3l3.4-2.4l4-2.2l3,0.2l0.4,4l3.6,5.3h4l5.6-1.2l4,1.4l4.2-3l0.6-4.9
	l4.6-0.8l-0.1-3.1l-3.7-2.9l-0.4-1.6l1.4-2.3l-1.2-1l1.2-2.9l2.2-1l1.6-4.9l-3.1,0.2l1.8-1.9l-1.4-4.3l-1.3-2.9l1.8-1.6l-1-0.2
	l-0.2-1.3H398l-1.8-1.6l-2,2h-1l-0.8-1l-4.8-0.2l-0.8,1.2h-1.4l-1.2-2.6h-2.6l-0.6,0.6l-2.6-0.2l-3.2-2.4l-2.2-0.6l-0.8-1.2
	l-4.2-2.6l-4.8-0.1l0.1,1.8l-1.4,0.4L358.8,95.2z"/>
<path id="FR-60" inkscape:label="Oise" d="M278.7,76.1l-1.3,1.5l-0.8,1.9h1.6l-0.8,2l-0.8,3.9l1.2,1.9v3.3h2l-0.8,1.3l-1.4,2.6
	l-0.6,1.8l1.8,1.6l0.6,4.5l1,1.6l-1.4,0.4l-1.8-1l-0.3,2.3l0.1-0.2l0.8,1.8l1.2,1.9l5.3,0.4l3.7-0.4l2.5-1.9l3.1,1.9l1.6,1.2
	l2.3-0.6l2.1-1l4.1,2.2l4.3,2.5l1.4,1.4l2.3-1.6l1.9,1.2l1.2,1l1.8-0.2l1.2-1.6l2.7,1.6l3.3-1.4l1.9,0.6l1.9-1.6l1.2-0.6l0.4,0.3
	l0.4-2.7l-1.4-1.6l-2.4-1.6l-1,1.6l-0.6,0.2l-0.2-3l1.8-0.4l-0.4-2.8l-2.4-0.4l1.2-2l3.4-0.8l1.2-4.8l1.8-0.8l-2.4-1.8l0.8-1.8
	l0.4-5.9l-0.8-4.6l-4.1,0.4l-2.8-0.4l-5.2,1.4l-4.4,4.2l-3.6-1.2l-3.6-0.4l-2.8-2.8l-5-1.4l-6.7,0.6l-1.8-1.4H285l-2.6,1l-1.2-0.8
	v-2.2l-0.4-0.6h-2.1V76.1z"/>
<path id="FR-62" inkscape:label="Pas-de-Calais" d="M290.7,4.6l-10.8,2.1l-8.6,6.6v26.4l-0.1,0.8l3,0.7l1,2.2l2.3-0.6l1.4-1.8
	l1.8,0.6l3.7,2.9l1.4-0.6l1,2.3l3.5,1.6v1.9l2.6,1l2.5-1l4.9-0.6l1.2,1l2.3-1l1.2,2l-2.9,1.9v2.8l1,1l0.8-0.2l0.6-1.6l1.8-1.2
	l1.8,1.4l4.1,1.4h1.8v-2l2.6,1.8l0.2,1.6l-1.2,1.8l2.2-1.2l1.8-0.8l0.8,1.4v1.4l2.9-1.6h4.7l0.2,0.2l1.2-2.2l-0.6-1l-1.8-0.4h-2
	l-1.2-0.4l2-1.2l1.8,0.2l1.8-0.2l0.2-3.2l1.2-0.8l0.2-1.8l-2.2-1.4l-2.6-0.2l-0.6-0.4l1.6-1.2l0.4-1.2l-1.4-1l-2-2.4l0.2-1.2L327,38
	l0.4-1.4l-1.8-0.8l-1-2.6l-3.6-0.4l-3.6-1l-0.4-4l2.6-1.6l-1-2h-2l-1.4,2.2L309,26l-5-1.2l-2.8-3v-2.4l2.2-1l-1.8-1.4l-4.3-0.2
	l-2.6-6.6L290.7,4.6z"/>
<path id="FR-59" inkscape:label="Nord" d="M307.2,0L301,2.9l-9.8,1.6l-0.5,0.1l3.7,5.9l2.6,6.6l4.3,0.2l1.8,1.4l-2.2,1v2.4l2.8,3
	l5,1.2l6.2,0.4l1.4-2.2h2l1,2l-2.6,1.6l0.4,4l3.6,1l3.6,0.4l1,2.6l1.8,0.8l-0.4,1.4l-2.6,1.2l-0.2,1.2l2,2.4l1.4,1l-0.4,1.2
	l-1.6,1.2l0.6,0.4l2.6,0.2l2.2,1.4l-0.2,1.8l-1.2,0.8l-0.2,3.2l-1.8,0.2l-1.8-0.2l-2,1.2l1.2,0.4h2l1.8,0.4l0.6,1l-1.2,2.2l1.6,1.6
	l1.6,0.4l1.6-1h2.2l0.6,1.2l0.8-0.2l2.3-1.4l2.3,1.4l3.1-2.2h1.4l1.6,1.4l3.1-2.2l1.3,0.2l1.2,1l4.3,0.4l0.4,1.8l2.2-1.9h1.2
	l0.8,2.5l3.7,1l1.1-0.7H366l-0.2-1.9l3.9-2.3l-0.6-3.7l-3.7-1l1-1v-2.7l2.9-2.2l-1.1-2.1L362,41l-10.9,0.6l-1.2,1.9h-1.4l0.2-6.8
	l-3.1-3.7l-2.3,0.4l-1.4-1.6l-3.9,1.8l-1.3-1.3l-2.8-0.4l-0.8-2.5l-0.2-7.8l-1.8-0.8l-0.2-1.2h-1.2l-0.4-2.3l-2.5,0.2l-4.9,1.6
	l-2.3,2.9h-2.4l-1.6-1.9l-0.6-2.2l-1.9-2.2h-2.8l-1.2-2.1v-3.3l1.3-2.1l-0.8-2.9L307.2,0z"/>
<path id="FR-02" inkscape:label="Aisne" d="M349.9,58.1l-3.1,2.2l-1.6-1.4h-1.4l-3.1,2.2l-2.3-1.4l-2.3,1.4l-0.8,0.2l-0.6-1.2h-2.2
	l-1.6,1h-0.1l0.5,2.8l-2.6,2.8v2.6l-1.8,2l0.4,2.4l1,4l1.2,6.8l-0.4,5.9l-0.8,1.8l2.4,1.8l-1.8,0.8l-1.2,4.8l-3.4,0.8l-1.2,2
	l2.4,0.4l0.4,2.8l-1.8,0.4l0.2,3l0.6-0.2l1-1.6l2.4,1.6l1.4,1.6l-0.4,2.7l1.8,1.3l0.6,4.3l5.2,5.1l1.8,0.6l1,2.3l3.3,0.7l0.4-0.5
	l1-2.1l2.9-1.4l1.6-4.1l1.8-1.2l-1-1.4h-2.5l-0.4-1.3l1.8-0.8l0.8-1.2l-1.8-1.2l0.6-1.8l4.5-0.4l-0.8-1.8l-2.7-1.8v-5.5l3.7-2.8h4.1
	l-0.4-1.9l2.3-1l3.3,2.2l1.4-0.4l-0.2-6.7L364,88l0.8-2.7l-2.6-1.4l0.6-1.6l3.7-0.8V79l2.9-1.6l0.8-2.3l-1-1.6l0.2-2.9l1.8-1.6
	l-1.8-3.3l0.5-3.5h-4l-1.1,0.7l-3.7-1l-0.8-2.5h-1.1l-2.2,1.9l-0.4-1.8l-4.3-0.4l-1.2-1L349.9,58.1z"/>
<path id="FR-80" inkscape:label="Somme" d="M271.2,40.4l-0.5,6.4l4.3,3.9v2l-5.3-3.1l-6.3,7.8l1.7,0.7l2.1-0.2l1,1.9l8.6,8.4
	l0.6,3.5l1.9,3.5l-0.7,0.8h2.5l0.4,0.6v2.3l1.2,0.8l2.6-1h3.6l1.8,1.4l6.7-0.6l5,1.4l2.8,2.8l3.6,0.4l3.6,1.2l4.4-4.2l5.2-1.4
	l2.8,0.4l4.1-0.4l-0.4-2.2l-1-4l-0.4-2.4l1.8-2v-2.6l2.6-2.8l-0.5-2.8l-1.5-0.4l-1.8-1.8H323l-2.9,1.6v-1.4l-0.8-1.4l-1.8,0.8
	l-2.2,1.2l1.2-1.8l-0.2-1.6l-2.6-1.8v2h-1.8l-4.1-1.4l-1.8-1.4l-1.8,1.2l-0.6,1.6l-0.8,0.2l-1-1v-2.8l2.9-1.9l-1.2-2l-2.3,1l-1.2-1
	l-4.9,0.6l-2.5,1l-2.6-1v-1.9l-3.5-1.6l-1-2.3l-1.4,0.6l-3.7-2.9l-1.8-0.6l-1.4,1.8l-2.3,0.6l-1-2.2L271.2,40.4z"/>
<path id="FR-08" inkscape:label="Ardennes" d="M389.1,51.7l-2,2.9l-1.8,1.8v1.8v2.3l-2.3,1.6l-4.3,1.4l-2.3,1l-2.8-2.2h-3.7
	l-0.5,3.5l1.8,3.3l-1.8,1.6l-0.2,2.9l1,1.6l-0.8,2.3l-2.9,1.6v2.5l-3.7,0.8l-0.6,1.5l2.6,1.4L364,88l-0.6,2.3l0.1,4.9l4.8,0.1
	l4.2,2.6l0.8,1.2l2.2,0.6l3.2,2.4l2.6,0.2l0.6-0.6h2.6l1.2,2.6h1.4l0.8-1.2l4.8,0.2l0.8,1h0.6l2-2l1.8,1.6c0,0,0.2,0,0.3,0l-0.1-0.8
	l2.3-1.2l1.2-1.2l-0.8-1.9l-0.2-1.4l2.2-1.8l0.8-3.9l-2.3-2.9l0.8-1.4l2-3.7l0.6,0.8h2.9l1.4,1.3l1.8-1.2l1.4-2.2l-1.4-0.2l-0.8-3.9
	l-1.6-1.2l-5.5-0.6l-1-2.5l-1.8-1.2l-6.2-0.8l-0.4-4.5l0.8-0.8v-1.8l-3.1-2l0-2L392,59l-1.4-1.2l2.2-1.9v-3.5l-0.8-0.6L389.1,51.7
	L389.1,51.7z"/>
<path id="FR-10" inkscape:label="Aube" d="M370.8,134.6l-4,2.2l-3.4,2.4h-3.3l-5.6,3.8l-4.8,0.8l-3.4-3.6l-0.8,0.2v0.6l-2.7,1.2
	l-0.2,2.3l-1.4,1.8l-0.8,3.9l-0.4,3.3l1.2,1h2.3l5.1,5.3l-0.6,5.3l3.5,2.7l2-1.4l3.1,3.7l0.4,3.5l2.2,2.9l1,2.2l7.8,0.4l3.9-2
	l1.2,2.2l1.4,0.2l1-2.2l6.4-0.2l2.5-1.4l0.4-2.5h5.7l0.8,0.4l-0.7-2.5l-1.6-1l2.2-2l3.4-0.2l1.2-1.8l-0.2-7.1l-0.8-4.2l-3.4-1.2
	l-3.6-5l0.2-3l1-2.2l-1.8-0.5l-5.6,1.2h-4l-3.6-5.3l-0.4-4L370.8,134.6z"/>
<path id="FR-52" inkscape:label="Haute-Marne" d="M400.6,135.6l-4.6,0.8l-0.6,4.9l-4.2,3l-2.2-0.8l-1,2.2l-0.2,3l3.6,5l3.4,1.2
	l0.8,4.2l0.2,7.1l-1.2,1.8l-3.4,0.2l-2.2,2l1.6,1l0.7,2.5l2.3,1.3l3.5,3.7l4.5,6.1l-2.5,2.7l1.8,1.2l0.2,3.3l3.1-0.2l0.8,1.6
	l2.3,0.2l1.8-1l3.1,3.9l0.4,1l4.3-1l0.8-2h0.2v-2l2.7-1.2l3.1,1.2l2.9-1.2h1.8l0.6-3.9l1-1.2l-1.8-0.2l-0.2-2.3l2.7-0.6l0.2-1.6h2.8
	V179l2.2-0.8l-0.6-1.6l0.6-0.4l-1.8-1.4l-2.1,0.8v-4.1l-5.5-2.7l1.2-5.3l1.8-1.2l-0.6-1.8l-2.6-0.4l-0.6-2.6h-2.3l-2.8-3.7l-3.1-0.2
	l-1.3-1.9l1.8-1.8l-4.1-4.5l-1.8-0.6l-4.7-2.3l-2.5-2.7l-4.1-0.6L400.6,135.6z"/>
<path id="FR-67" inkscape:label="Bas-Rhin" d="M502.2,108.2l-3.7,1l-1.7,3v2.9l-1.6,1.4h-1.4l-2.5-1.8l-2,1.4H487l-1.9-1.9l-3.7-0.6
	l-2.2-1l-0.8-2.9l-1.8,1.9l-1,4.5l-2.6,0.8v2.5l2.6,1.2l1.9,1.4l-0.8,1.8l1.8,1.2l3.1-2.3l5.4,3.1l-2.3,4.3l0.2,1.4l1.6,1.6
	l-1.2,4.1l-3.9,3.9l-2.2-0.2l1.4,1.3l-0.8,3.5l0.8,5.3l3.7,1l-0.3,0.7l2.9-0.2l1.7,2.1l1.5,1.9l3.8-0.2l1.7,5l3,1.3V162l5.1-10
	l-0.6-5.7l2.3-7.6l0.6-6.7l5.1-3.7V126l2-2.6h1.6l1.8-1.8l-0.4-3.3l1.8-4.7l2.7-0.6l-2.7-2.2l-4.9-0.6l-4.3-2.2l-2.9,1.8l-1.6-1.8
	h-2V108.2z"/>
<path id="FR-54" inkscape:label="Meurthe-et-Moselle" d="M423.1,84.3l-2.3,2.2l-3.3,0.2l-1.3,1.2H416l-0.1,2.3l1.2,1.9l-0.4,1.2
	l-0.4,1.3l0.2,0.8l1-0.8l0.9-1.7l1.9-0.2l3.2-1l1.7,1.3l0.8,1.5l0.6,1.7v1.7l0.9,0.8v1.3l-0.9,1.2l-0.2,2.5l0.8,1.2l0.2,1.5l0.2,2.5
	l1.2,1l1.7,0.8l-0.8,1.5l2.1,1.9l-1.9,2.1l0.4,1.3l1.9,0.9v1h-2.3l-1,1.3l0.2,1l1.5,1.5l-1.3,3.6l-1.5,3.4l0.8,2.1v3.4l0.8,1.7h1.1
	l0.6,1h-1.7l-1.5,0.8v1.2l1.9,1.7v2.7l1.9-0.6l2.9,0.2l0.2,3.1l1.2,0.4l-1.3,0.9l-0.2,1l2.1,0.4l1.3,1.7l6.3-0.4l1.3-2.5h2.9
	l1.2-0.9l1.9,1.2l1.7-0.6l2.5,0.2l2.1-0.8l2.1-1.5l1.2,1.2l0.2-2.7l1.5-0.6l0.8,2.5l2.3,0.2l2.3,0.6l0.9,0.2l3.3-1.5l1.7-1.2
	l1.5-1.9l3.1-1.2l2-0.4l-1.1-1.1l2.2,0.2l0.4-0.4l-2.3-0.8l-3.2-2.3l-2.9-2.1h-3.4l-3.6-2.1l-2.9-0.2v-0.8l-4.4-2.7l-5-2.1H452
	l-0.9-2.7l-3.8-4.8h-3.8l-1.5-2.1h-3.1l0.2-3.1l-4-2.5l0.2-2.5h2.1v-2.1l0.8-1.5l-1.7-1.7l1.5-2.7l-1.2-3.1l-0.9-0.8l-2.5-5.3l1-1.5
	c0,0-0.1-1.3-0.2-2.9h-2.6l-3.5-3.9h-5V84.3z"/>
<path id="FR-77" inkscape:label="Seine-et-Marne" d="M329,112.4l-1.2,0.6l-1.9,1.6L324,114l-3.3,1.4l-2.7-1.6l-1.2,1.6l-1.8,0.2
	l-1.2-1l-1.9-1.2l-2.3,1.6l-0.1-0.1l-0.8,5.4l1.2,6.9v4.6l-1.5,3.8l0.4,2.7l-1.7,1.3l0.9,5.2l-0.8,1.1l-0.6,5.2l1.3,1.7l-4.4,2.9
	v3.9l1.2,1.8l2.3,1.2l0.2,3.3l-3.1,2.2l1.8,1.6l2.2-1.4l5.3,0.2l1.9-0.4l0.6-1.6l2.2,0.2l0.4,1.6l4.9-2.8l1.8-2.1l2.3-2.8l-1.6-1.8
	l1.4-2.9l3.5-1.8l7.6,0.4l1.8-1.3l0.2,0.2l0.4-3.3l0.8-3.9l1.4-1.8l0.2-2.3l2.7-1.2v-1.6l-2.9,0.2l-0.6-1.4l1-1.8l-0.8-2.9l-1.6-1
	l0.4-2.7l1.6-1l-0.2-1.2l0.6-0.7l-3.3-0.7l-1-2.3l-1.8-0.6l-5.2-5.1l-0.6-4.3L329,112.4z"/>
<path id="FR-68" inkscape:label="Haut-Rhin" d="M487.1,152.4l-2.9,0.2l-1.8,4.2l-2.3,4.7l0.6,2.9l-1.9,4.5l-3.3,2.9l-0.2,7.6
	l-2.4,2.1l0.1,0.1l0.8,1.6l3.1,0.2l3.5,2.8l0.6,1.3l-0.2,2.3l-1,1.8l0.4,2.3l2.8-0.4l0.6,2.2l1,4.2l2.3-0.4l-0.4,2.1l1.4,1.2
	l7.2-0.2l3.7-2.9l0.2-4.3l2-2.5l-2.6-2.9l-1.3-3.1l1.6-2.1v-4.9l1-2.3v-3.9l1.8-2.5l-1.9-2.7l-0.2-5.6l-3-1.3l-1.7-5l-3.8,0.2
	l-1.5-1.9L487.1,152.4z"/>
<path id="FR-55" inkscape:label="Meuse" d="M411.6,82.4l-1.4,2.2l-1.8,1.2l-1.4-1.3h-2.8l-0.6-0.8l-2,3.7l-0.8,1.4l2.3,2.9l-0.8,3.9
	l-2.2,1.8l0.2,1.4l0.8,1.9l-1.2,1.2l-2.3,1.2l0.4,2.2l1,0.2l-1.8,1.6l1.3,2.9l1.4,4.3l-1.8,1.9l3.1-0.2l-1.6,4.9l-2.2,1l-1.2,2.9
	l1.2,1l-1.4,2.3l0.4,1.6l3.7,2.9l0.2,6.8l4.1,0.6l2.5,2.7l4.7,2.3l1.8,0.6l4.1,4.5l-0.4,0.4l3.4-0.4v-1.7l3.8-0.8v-1.3h0.9v1.1
	l3.1-0.9l1.2-1.6l-0.2,0.1v-2.7l-1.9-1.7v-1.2l1.5-0.8h1.7l-0.6-1h-1.1l-0.8-1.7v-3.4l-0.8-2.1l1.5-3.4l1.3-3.6l-1.5-1.5l-0.2-1
	l1-1.3h2.3v-1l-1.9-0.9l-0.4-1.3l1.9-2.1l-2.1-1.9l0.8-1.5l-1.7-0.8l-1.2-1l-0.2-2.5l-0.2-1.5l-0.8-1.2l0.2-2.5l0.9-1.2v-1.3
	l-0.9-0.8v-1.7l-0.6-1.7l-0.8-1.5l-1.7-1.3l-3.2,1l-1.9,0.2l-0.9,1.7l-1,0.8l-0.2-0.8l0.4-1.3l0.4-1.2l-1.2-1.9l0.1-2.3h-0.9
	l-0.8-3.7l-1.6-1.6L411.6,82.4z"/>
<path id="FR-57" inkscape:label="Moselle" d="M444.6,86.3l-2.9,0.2l-2.3,2l-0.6,1h-3.3l-1.2-1.2h-0.5c0.1,1.7,0.2,2.9,0.2,2.9
	l-1,1.5l2.5,5.3l0.9,0.8l1.2,3.1l-1.5,2.7l1.7,1.7l-0.8,1.5v2.1h-2.1l-0.2,2.5l4,2.5l-0.2,3.1h3.1l1.5,2.1h3.8l3.8,4.8l0.9,2.7h2.5
	l5,2.1l4.4,2.7v0.8l2.9,0.2l3.6,2.1h3.4l2.9,2.1l3.2,2.3l2.3,0.8l3.5-3.5l1.2-4.1l-1.6-1.6l-0.2-1.4l2.3-4.3l-5.4-3.1l-3.1,2.3
	l-1.8-1.2l0.8-1.8l-1.9-1.4l-2.6-1.2v-2.5l2.6-0.8l1-4.5l1.8-1.9l0.8,2.9l2.2,1l3.7,0.6l1.9,1.9h2.3l2-1.4l2.5,1.8h1.4l1.6-1.4v-2.9
	l1.7-3l-0.4,0.1l-1.3-1.9l-3.9-2.3l-1.4-2.2l-4.7,0.4l-2.8,2.5l-6.6,0.2l-2-1.4c-0.1-0.2-1.1-1.9-1.9-2.4c0,0-0.1,0-0.1-0.1h-0.1
	h-0.1l0,0h-0.1c-0.9,0-2.7-1-2.9-1.2l-2.8,1.2l-0.2,2.3l-3.3,0.4l-2-3.7l-1.2-0.4V98l-2.8-1.2l-0.2-4.7l-2-1.9l-4.1-2h-1.9l-0.6,0.4
	h-2L444.6,86.3z"/>
<path id="FR-88" inkscape:label="Vosges" d="M480.5,141.8l-2,0.4l-3.1,1.2l-1.5,1.9l-1.7,1.2l-3.3,1.5l-0.9-0.2l-2.3-0.6l-2.3-0.2
	l-0.8-2.5l-1.5,0.6l-0.2,2.7l-1.2-1.2l-2.1,1.5l-2.1,0.8l-2.5-0.2l-1.7,0.6l-1.9-1.2l-1.2,0.9h-2.9l-1.3,2.5l-6.3,0.4l-1.3-1.7
	l-2.2-0.3l0.2-1l1.3-0.9l-1.2-0.4l-0.2-3.1l-2.9-0.2l-1.7,0.5l-1.2,1.6l-3.1,0.9v-1.1h-0.9v1.3l-3.8,0.8v1.7l-3.4,0.4l-1.3,1.3
	l1.3,1.9l3.1,0.2l2.8,3.7h2.3l0.6,2.6l2.6,0.4l0.6,1.8l-1.8,1.2l-1.2,5.3l5.5,2.7v4.1l2.1-0.8l1.8,1.4l1.3-0.8l-0.8-1.2l1-0.6
	l1.3,1.6l2-1.4l0.6-1.9l3.7-0.6l1,0.8l-0.2,2.2l2.5,1.9l1.6-0.2l1.8-1.4h4.1l2.9,3.3h1l1.6-1l0.2-1.2l1.6-0.8l1.8,1.2l1.8,2l6.2,3.2
	l2.4-2.1l0.2-7.6l3.3-2.9l1.9-4.5l-0.6-2.9l2.3-4.7l2.2-4.9l-3.7-1l-0.8-5.3l0.8-3.5L480.5,141.8z"/>
<path id="FR-91" inkscape:label="Essonne" d="M295.7,132.3l-1.8,0.8l-1.9,0.8l-0.4,2.1l-2.9,1.3l-0.4,2.1l1.3,2.3l-1.9,2.7h-2.8
	l1.1,1.7l-1.3,1.5l-0.5,3.1l0.9,0.2l0.4,2.5l0.4,0.6l0.4,5.2l6.2-0.6l2.5-2.3l2.2,1.8l5.2,0.4l0.8,1.1v-3.9l4.4-2.9l-1.3-1.7
	l0.6-5.2l0.8-1.1l-0.9-5.2l1.7-1.3l-0.3-2.4l-2.2-1h-3.6l-2.1-1.2l-1.5,0.8L295.7,132.3z"/>
<path id="FR-78" inkscape:label="Yvelines" d="M273,114.1l-0.1,0.1l-5.5,1.6l-0.8,1l1,1.6v1.6l1.8,0.4l-1,1l0.1,0.9l0.1-0.1l1.9,1.9
	l0.6,2.3l1.6,1.6l-0.8,2.2v1.9l1.4,1.6l-1.4,2.3l1.4,3.3l2.7,1.9l0.4,2.2l2.3,0.4l0.6,4.3l1.8,2.2l3.2,0.6l0.5-3.1l1.3-1.5l-1.1-1.7
	h2.8l1.9-2.7l-1.3-2.3l0.4-2.1l2.9-1.3l0.4-2.1l1.9-0.8l1.8-0.8l0.3,0.2v-0.2l-1.8-2l-1.1-3l1.8-3.8l-0.9-2.9l-3.4-2.1l-4.8-0.2
	l-4.5-2.9l-3.6,0.7L273,114.1z"/>
<path id="FR-95" inkscape:label="Val-d&apos;Oise" d="M277,105.6l-1.6,1.9l-1.2,4.3l-1.3,2.2l4.8,2.1l3.6-0.7l4.5,2.9l4.8,0.2
	l3.4,2.1l0.9,2.9v0.1l0.4-0.1l3.5-1.9l5.2-0.3l2.9-1.3l1.8-1.3l0.6-3.8l-1.3-1.3l-4.3-2.5l-4.1-2.2l-2.1,1l-2.3,0.6l-1.6-1.2
	l-3.1-1.9l-2.5,1.9l-3.7,0.4l-5.3-0.4l-1.2-1.9L277,105.6z"/>
<path id="FR-93" inkscape:label="Seine-Saint-Denis" d="M308.7,118.7l-1.8,1.3l-2.9,1.3l-5.2,0.3l0.2,0.7l0.4,0.1l0.4,0.6l-0.4,0.9
	l-0.5,0.1l0.4,0.9h2.5l0.8,1.2l0.2,1.8l0.9-0.1l0.8-0.7l1.2,0.1l1.5,0.9l0.9,1l0.4,0.2l0.2,0.5l1,0.2v-2.8l-1.2-6.9L308.7,118.7z"/>
<path id="FR-75" inkscape:label="Paris" d="M301.7,125h-2.5l-1.1,0.5l-0.5,0.6l-1,0.1l-0.9,1.1v0.6l0.2,0.7l1.6,0.4l1.9,1l1.2,0.1
	l0.8-0.2l0.8-0.6l0.3,0.2l1.8,0.2l0.3-0.7v-0.7l-0.3-0.1l-1.2,0.1l0.1,0.3l-0.2,0.2h-0.4l0.2-0.4l0.1-0.4h-0.1l-0.2-1.8L301.7,125z"
	/>
<path id="FR-92" inkscape:label="Hauts-de-Seine" d="M298.8,121.7l-3.5,1.9l-0.4,0.1l-1.7,3.8l1.1,3l1.8,2v0.2l2.7,1.9l0.7-0.3
	l-0.5-0.9l0.5-1.5l-0.3-0.5l0.3-1.2h-0.1l-1.9-1l-1.6-0.4l-0.2-0.7v-0.6l0.9-1.1l1-0.1l0.5-0.6l1.1-0.5l-0.4-0.9l0.5-0.1l0.4-0.9
	l-0.4-0.6l-0.4-0.1L298.8,121.7z"/>
<path id="FR-94" inkscape:label="Val-de-Marne" d="M304.4,127.2l-0.8,0.7l-0.8,0.1l-0.1,0.4l-0.2,0.4h0.4l0.2-0.2l-0.1-0.3l1.2-0.1
	l0.3,0.1v0.7l-0.3,0.7l-1.8-0.2l-0.3-0.2l-0.8,0.6l-0.8,0.2l-1.2-0.1l-0.3,1.2l0.3,0.5l-0.5,1.5l0.5,0.9l0.9-0.4l2.1,1.2h3.6l2.2,1
	v-0.2l1.5-3.8v-1.8l-1-0.2l-0.2-0.5l-0.4-0.2l-0.9-1l-1.5-0.9L304.4,127.2z"/>
<path id="FR-25" inkscape:label="Doubs" d="M468.9,195.6l-0.2,0.2h-2.2l-1.2,1.6l-1.5,0.8v2l-3.7,0.4l-2-1.4l-2.7,0.4l-2.5,2
	l-1.8,3.1l-1.8,0.6l-0.8,2.1l-2.2,0.4l-3.1,2.5l-4.1-0.1l-1.2,1h-1.1l-3.9,3.2l-1.8-0.1v1.2l0.3,2.1l2.5,1.7l1.4,1.8l-0.4,1.9
	l-1.2,3l-0.8,1.9l5.5,1.8l3.5-0.3l0.3,2.9v3.9l4.3,1.4l2,0.5l2.8,2.7L451,243l-1.3,1.8l-3.5,1.1l0.8,2l0.4,1.5l-1.5,1.5l0.2,1.4
	l2.4,0.2v-0.2l12.1-11.3l-0.4-9.4l4.3-2.1l2.9-1.4l2.7-2.5l0.2-3.7l2.7-1.4l6.2-7.2l-1-2.3l2.2-1l2.5-3.1l-1.4-1.4l-4.7,1l-0.2-0.8
	l4.3-5L468.9,195.6z"/>
<path id="FR-90" inkscape:label="Territoire de Belfort" d="M472.9,181.9l-1.8,0.9l-1.5,1.1v2.5l0.8,3v1.9l-0.5,3.1l-1.1,1.1l12,5.4
	l0.8-0.9l2.6-0.4l-1-4.2l-0.6-2.2l-2.8,0.4l-0.4-2.3l1-1.8l0.2-2.3l-0.6-1.3l-3.5-2.8l-3.1-0.2L472.9,181.9z"/>
<path id="FR-971" d="M63.6,222.4l0.9,0.7l-1.4-0.4l-4.7-0.5l-3.3,0.9l-2,0.3l-0.5-0.2l-3.3,0.8l-1.1,0.9l-0.8,0l-1,0.4l-0.4,0.4
	l-0.8,0.2l-1.4,0.1l-1,0.6l-1.4,0.2l-2.8-0.6l-0.6-0.6l-1.1-0.1l-0.3-0.4l-1.7-2.8l0.2-0.2l-0.2-2.7l0.4-0.4l-0.1-0.5l0.9-1.1l0-1.7
	l0.6-0.6l0.5-0.3L38,215l0.5-0.6l0.8-0.3l-0.4-0.3l0.2-1.6l-0.9-1l-0.3,0.1l-0.8-0.4l-0.6-0.6l-1-3.3l0.4-1.1l1.4-1.4l0.8-0.4
	l0.5-0.8l1.3-0.7l1.3-1.5l0.3,0.1l0.5,0.7l1.1,0.2l0.4,0.7l1.6,1.2l0.7,0.6l0.6,1.9l0.5,2l-0.6,2.4l0,0.6l0.4,1.1l2,2.6l2.8,0.8
	l0.6-0.1l1.7,0.3l2.7,1.1l1.6,1.3l0.9,1.9l0.6,0.6l2.6,1.3L63.6,222.4z M68.3,229.1l-0.1,0.1l0.1,0.2l0.7,0.2l0.8-0.2l0.1-0.2
	l-0.4-0.2L68.3,229.1z M77.9,214.8l-0.2-0.4l-0.6,0.1l-0.3,0.4h-0.3l-0.7,0.5l-1.1,0.6l-0.1,0l-0.3,0.3h-0.1l-0.6,0.5l-0.6,0.2
	l-0.6,0.1l-0.3,0.5l-0.8,0.2l-0.6,0.7l-0.1,0.7l0.2,0.1l1.7-0.8l2-0.5l1.7-1.3l1.4-0.5l0.5-0.3L77.9,214.8z M34.7,222.8l0.2-1.5
	l-0.1-0.6l-0.5-0.3V220l-0.6-0.1l-1.1,0.3l-0.7,1l-0.3,0.1l-0.3,0.1l-0.3-0.1l-0.4-0.6l-0.7,0.5l-0.3-0.8l-0.8,0.2l0-0.5l0.4-0.4
	l0.5,0.1l0.6-1l0.4-0.3l-0.2-0.2l-0.7,0l-0.9,0.1l-1.3-0.6l-0.4-0.7l-1.7-0.1l-2.3-1.3l-1.1-0.3l-1.2-1.3l-1.3-0.6l-0.7,0.5
	l-1.1,0.1l-1,0.6l-0.7,0.9l-0.3,1.1l-0.7,0.5l-0.1,0.3l0.2,0.5l-0.4,0.8l-0.1,1.5l-0.4,0.7l0.2,0.2l0.4,2l1.3,1.6l0.2,1.1l-0.3,1.1
	l0.4,0.8l-0.1,0.9l0.6,0.6l0.1,0.6l-0.2,1.7l0.6,0.9l-0.2,1.1l0.1,2l0.5,0.2l-0.3,2.5l0.4,0.8l1.1,1.3l0.4,2l1.9,2.1l0.5,0.2l0.5,1
	l0.2,1.7l0.8,0.2l1.7-0.4l0.8-0.8l0.6,0.1l0.7-0.5l1.4,0l0.8-0.3l0.6-1.2l0.1-0.3l3.3-2.8l1.2-2.3l-0.3-1.1l0.1-2.3l-0.3-1.1
	l-0.5-0.3l0-0.8l0.6-0.9l-1.1-0.8l0-0.8l-0.4-0.3l-0.2-0.6l-0.1-0.6l0.4-0.4l0-0.3l-0.6-0.6l-0.1-0.6l0-0.3l0.4-0.8l-0.3-1.4
	l0.4-1.1l0.2-0.2l1.3,0.3L34,224l1,0.9l0.2-0.5l-0.3-0.5L34.7,222.8z M31.8,214.9l0.4,0l0.1-0.1v-0.3l-0.4-0.2l-0.4,0.1l-0.4,0.6
	l0.3-0.1L31.8,214.9z M33.2,253.4l-0.2-0.2h-0.1l-0.2,0.5l-0.1,0l-0.3-0.3l-0.1,0.1l-0.1,0.3l0.1,0.6l-0.2,0.2l-1,0.1l-0.4,0.4
	l-0.1,0.1l0.4,0.2l0.6,0.2l0.3-0.5l0.8,0.1l0.1-0.7l0.7-0.5l-0.1-0.3L33.2,253.4z M28.8,254.6l-0.1-0.1l-0.7-0.2l-0.5,0.5l-0.4,0.2
	l-0.3,1l1.3,0.7l0.4-0.2l0.6-0.8l0.4-0.1l0.1-0.2l-0.6-0.3L28.8,254.6z M60.7,246.4l-0.8-1.8l-2.3-1.3l-1.1-0.4l-1.1,0.3l-1.3,1.9
	l-0.6,0.2l-0.3,1.7l-0.3,0.5l-1,0.6l-0.1,0.3l0.6,3.4l0.4,0.8l1.6,1.1l1.9,0.7h0.8l0.8-0.3l0.8-0.1l1.1-0.5l1.5-1.4l1-0.6l0.5-1.1
	l0.1-1.2l-0.3-1.1L60.7,246.4z"/>
<polygon id="FR-972" points="59.7,307.4 60.4,307.5 60.7,306.9 60.4,305.9 60.2,305.6 59.6,305.4 59.5,305 59.4,303.7 58.5,303.5 
	58.6,302.9 59.3,302.3 59.3,301.6 58.6,301.6 58.9,301 58.3,299.8 58.9,298.5 58.7,298.3 57.8,298.6 57,298 56.8,297.7 57.2,297.1 
	57,296.4 57,296.1 56.6,295.7 55.4,295.9 54.9,295.3 55,294.6 54.5,293.8 54.5,293.2 52.5,292.7 52.9,291.1 51.9,290.2 52.1,290 
	52.8,290 53.5,289.4 53.8,288.8 53.6,288.5 52.7,288.9 51.1,288.7 49.7,289.7 49.4,289.7 49,289.2 48.1,288.1 48.6,287.2 
	49.5,286.8 49.8,286.3 51.2,285.9 51.5,285.7 51.7,285.1 51.1,284.8 50.7,283.9 50.4,283.8 49.2,284.3 49,284 49.3,283.4 
	49.5,283.1 48.6,283.3 47.9,282.5 48.3,281.7 48,281.1 48.5,280.3 48.8,280.1 49.8,280.1 50.8,280.6 51.4,281.4 52.4,281.5 
	52.7,281.3 52.6,280.6 53.1,279.8 52.8,278.8 53.5,278.6 54.4,279.1 54.7,279 54.8,278 54.3,277.5 53.3,277.3 50.3,279.1 49,279 
	47.8,279.6 46.6,281.3 46.2,280.9 45.7,279.2 45.2,278.8 44.4,277.4 42.8,276.1 42.1,274.3 41.4,274.4 40.8,274.2 40.5,273.2 
	39.7,272.7 39.7,272.3 38.8,272 38.4,271.5 37.8,271.9 37.2,271.7 36.2,270.8 35.2,270.5 34.5,269.9 33.8,269.7 33.1,268.9 
	30.5,267.8 28.3,267.3 26.6,267.5 25.3,267.7 23,269 22.4,269.4 21.5,270.8 20.6,273.1 20.8,274.9 22,277 23,277.3 23.7,278.5 
	25.4,280.2 25.6,281.2 25.4,281.8 25,283.8 24.9,284.5 26.5,287.5 27.8,289.4 28.1,290.1 29,290.6 29.7,291.7 31.3,292.2 32.4,293 
	33.9,295 36.6,294.9 37.2,295.3 38.6,295.5 38.9,295.3 38.8,294.6 39.1,294.4 40.3,293.8 40.6,294.1 40.9,295 40.5,296.3 
	41.4,297.2 41.6,298.6 42.5,299 42.9,298.9 43.6,300 43,299.8 42.3,300.8 42.1,301.1 39.7,301.1 38.8,300.6 38.8,299.7 37.5,299.3 
	36.2,300.8 35.5,300.8 35.2,300.8 34.2,301.7 33.4,302.9 33.2,303.9 34.3,304.6 34.2,305.6 34.9,306.3 34.8,307.7 36,308.3 
	36.5,309.2 37.2,309.4 37.5,309.3 38,308.8 38.3,307.9 39.5,307.2 40.5,306.9 43.3,307.9 44.1,307.3 44.3,306.6 45.1,308 
	46.1,307.7 46.9,308.3 48.9,308.5 50.5,307.9 51.2,308 51.1,308.6 51.5,309.1 52.2,309.8 54.5,307.8 55.2,307.9 55.6,308.4 
	55.4,309.3 54.8,309.3 54.8,310 54.4,310.1 53.8,309.6 53.7,310.1 54.1,311 52.9,312.8 53.6,313.8 53.8,314.2 54.5,315 54.8,315.1 
	55.5,315.2 55.8,315.1 56.4,314.8 57.2,313.6 57.9,313.7 58.1,313.4 57.5,313 57.2,312.4 57.5,312.2 58.4,312.2 59.4,310.8 
	59.7,309.5 60.4,308.7 59.5,307.7 "/>
<polygon id="FR-973" points="60,346.8 59.9,346.6 59.8,346.5 59.7,346.4 59.7,346.4 59.7,346.3 59.5,346.1 59.4,345.9 59.1,345.5 
	59,345.2 59,345.1 59,344.9 59,344.9 59.1,344.6 59.3,344.5 59.3,344.4 59.2,344.4 59.1,344.4 58.7,344.2 58.5,344 58.6,343.7 
	58.4,343.5 58.3,343.2 58.3,343 58.1,342.1 58,341.6 57.9,341.5 57.8,341.4 57.7,341.4 57.5,341.1 57.2,340.9 57,340.9 56.7,340.9 
	56.4,340.9 55.4,340.6 55,340.2 54.6,339.9 54.4,339.8 54.2,339.7 54.1,339.5 53.8,339.4 53.7,339.4 53.7,339.4 53.5,339.2 
	53.4,339.2 53.3,339.1 53.2,339 53.1,338.9 52.9,338.6 52.6,338.6 52.6,338.5 52.4,338.2 52.2,338.1 52.2,338 52.3,337.9 52,337.7 
	52,337.6 51.8,337.6 51.7,337.5 51.3,337.6 51.3,337.6 51.3,337.7 51.2,337.8 51,337.9 50.9,337.7 50.7,337.5 50.5,337.3 
	50.4,337.2 50.3,337.1 49.8,336.7 49,335.9 48.8,335.7 48.7,335.7 48.6,335.7 48.6,335.6 48.6,335.5 48.5,335.5 48.4,335.5 
	48,335.2 47.7,335 47.7,335 47.7,334.9 47.6,334.8 47.2,334.4 47.2,334.4 46.5,333.9 45.9,333.3 45.7,333.1 45.4,332.8 45.2,332.8 
	45.2,332.7 45.1,332.5 45,332.3 44.9,332.2 44.7,332.1 44.6,331.9 44,331.5 43.9,331.3 43.7,331.2 43.6,331.2 43.5,331.2 
	43.2,331.2 43.1,331.2 43.1,331.2 43.1,331.2 43.2,331.4 43.2,331.4 43.1,331.4 42.9,331.2 42.2,331 41.6,330.7 41.5,330.5 
	41,330.4 39.9,330 39.7,329.9 39.5,329.9 39.4,330 39.5,330 39.7,330.1 39.8,330.1 39.9,330.2 40,330.3 39.8,330.2 39.7,330.1 
	39.2,330.2 39.2,330.1 39,330.1 38.6,330 38.1,329.8 37.4,329.8 37.3,329.8 36.6,329.6 35.9,329.3 35.7,329.3 35.3,329 34.7,328.7 
	34.2,328.3 34,328.3 33.4,327.9 32.9,327.8 32.7,327.7 32,327.7 31.5,327.6 31.3,327.6 31.1,327.6 31.1,327.7 30.6,328.6 
	30.5,328.8 30.6,329.2 30.6,329.5 30.7,329.7 30.6,330.1 30.5,330.3 30.3,330.5 30.2,330.7 29.9,330.9 29.6,331.4 29.3,331.7 
	29.1,331.9 29.1,332 29,332.3 28.9,332.3 28.6,332.6 28.5,332.8 28.3,332.9 28.1,333.1 27.9,333.1 27.8,333.3 27.5,333.4 
	27.3,333.6 27.2,333.7 26.9,334 26.6,334.7 26.4,334.8 26.4,335.1 26.2,335.1 26.1,335.2 26.2,335.4 26.1,335.5 26.1,335.5 
	25.8,335.7 25.7,335.7 25.6,335.7 25.6,335.8 25.6,335.9 25.6,336.1 25.5,336.3 25.4,336.5 25.3,336.6 25.3,336.9 25.2,337.1 
	25.3,337.3 25.2,337.6 24.9,338 24.8,338.1 24.8,338.1 24.9,338.2 24.9,338.4 24.9,339.2 25,339.6 25,340.1 25,340.1 25.1,340.3 
	25.1,340.3 25.1,340.3 25.3,340.3 25.4,340.4 25.4,340.6 25.4,340.8 25.5,341 25.3,341.1 25.3,341.3 25.4,341.4 25.5,341.6 
	25.6,341.8 25.5,342.1 25.5,342.4 25.4,342.4 25.2,342.7 25.4,343.5 25.3,343.9 25.4,344.2 25.3,344.6 25.3,344.7 25.3,344.7 
	25.5,344.6 25.6,344.6 25.6,344.6 25.8,344.7 25.8,344.7 25.9,344.8 25.9,344.8 25.9,344.9 25.9,345 25.9,345.2 25.8,345.4 
	25.9,345.5 25.9,345.7 26,345.9 26,346 25.9,346.5 25.8,346.7 25.8,346.8 25.9,347 26.2,347.1 26.4,347.2 26.5,347.3 26.7,347.4 
	26.7,347.4 26.7,347.6 26.5,347.9 26.4,348 26.5,348.1 26.3,348.5 26.3,348.7 26.5,348.8 26.8,349.1 27,349.5 27.1,350 27.2,350.1 
	27.3,350.2 27.6,350.4 27.6,350.6 27.8,351 27.9,351 28.2,351.1 28.3,351.2 28.4,351.2 28.4,351.3 28.2,351.4 28.2,351.5 
	28.2,351.6 28.3,351.7 28.4,351.7 28.7,351.7 29.1,351.7 29.2,351.9 29.4,352.2 29.5,352.3 29.5,352.6 29.7,352.7 29.7,352.8 
	29.7,352.9 29.7,353.1 29.7,353.3 30.1,353.5 30.1,353.6 30.1,353.7 30.1,353.8 30.1,353.8 30.4,353.8 30.5,353.6 30.6,353.6 
	30.6,353.6 30.7,353.7 30.9,354 30.9,354.1 30.9,354.2 30.9,354.4 30.7,354.6 30.7,354.7 30.6,355 30.7,355.2 30.6,355.4 
	30.6,355.8 30.5,356 30.5,356.2 30.5,356.2 30.6,356.4 30.5,356.5 30.5,356.5 30.3,356.7 30.1,356.8 30.1,356.9 30,356.9 
	30.1,357.1 30,357.3 29.9,357.6 29.9,357.7 29.9,357.8 29.9,357.9 29.8,358 29.8,358 29.8,358 29.6,358 29.6,358 29.5,358 
	29.3,358.1 29.2,358.3 29,358.4 28.9,358.6 28.8,358.8 28.7,358.8 28.6,359.1 28.4,359.1 28.3,359.2 28.2,359.6 28.2,359.7 
	28.1,359.8 28.1,359.9 28.2,359.9 28.1,360 28.1,360 28.1,360.1 28.2,360.1 28.4,360 28.5,360.2 28.6,360.4 28.5,360.5 28.5,360.6 
	28.6,360.7 28.4,360.8 28.3,360.9 28.5,361.1 28.6,361.4 28.6,361.5 28.6,361.5 28.6,361.6 28.5,361.7 28.5,361.9 28.7,362 
	28.7,362.1 28.6,362.1 28.5,362.2 28.6,362.3 28.5,362.3 28.6,362.4 28.5,362.5 28.4,362.6 28.4,362.8 28.3,363.1 28.3,363.1 
	28.4,363.3 28.5,363.4 28.4,363.6 28.4,363.6 28.4,363.7 28.3,363.7 28.2,363.8 28.2,364.1 28.1,364.2 28.1,364.4 28,364.6 
	28,364.6 27.9,364.7 27.8,364.8 27.8,364.8 27.7,364.9 27.7,365 27.5,365 27.5,365.1 27.4,365.4 27.4,365.5 27.3,365.6 27.3,365.7 
	27.3,365.8 26.9,366.1 26.8,366.2 26.8,366.4 26.6,367 26.4,367.1 26.5,367.4 26.4,367.6 26.3,367.6 26.2,367.7 26.1,367.8 
	26.1,367.9 26.1,368 26,368 25.9,368.2 25.8,368.3 25.6,368.6 25.5,368.6 25.3,368.7 25,368.7 24.9,368.7 24.8,368.7 24.7,368.9 
	24.6,369.1 24.5,369.2 24.4,369.5 24.4,369.9 24.3,369.9 24.2,369.9 24.1,369.9 24.1,369.8 24,369.8 23.8,369.7 23.7,369.7 
	23.4,369.7 23.4,369.8 23.3,369.9 23.4,369.9 23.4,370 23.5,370.1 23.8,370 24,370 24.1,370.1 24.1,370.1 24.1,370.3 24.1,370.3 
	24.1,370.4 24.1,370.4 24.3,370.5 24.3,370.6 24.3,370.6 24,370.7 24,370.7 24,370.7 24,370.8 24.3,370.9 24.3,370.9 24.5,370.9 
	24.6,371 24.6,371.2 24.8,371.2 24.9,371.4 25.2,371.5 25.4,371.4 25.5,371.4 25.5,371.5 25.5,371.6 25.6,371.6 25.8,371.6 
	25.9,371.5 25.9,371.5 26,371.5 26.2,371.5 26.2,371.5 26.3,371.5 26.3,371.6 26.2,371.7 26.2,371.8 26.3,371.9 26.5,371.9 
	26.5,372.1 26.5,372.1 26.6,372.1 26.8,372.1 27.2,372.2 27.4,372.2 27.6,372.1 27.9,372.2 28.1,372.1 28.4,371.9 28.5,372.1 
	28.5,372.2 28.6,372.3 28.6,372.3 28.6,372.4 28.7,372.5 28.8,372.5 29,372.6 29.2,372.5 29.4,372.7 29.4,372.6 29.5,372.5 
	29.6,372.3 29.7,371.9 29.9,371.6 30,371.6 30.1,371.7 30.5,371.8 30.6,371.7 30.7,371.6 30.8,371.5 31.1,371.5 31.2,371.4 
	31.4,371.3 31.5,371.1 31.5,370.8 31.6,370.6 31.8,370.6 31.8,370.8 31.9,370.8 32.1,370.6 32.1,370.3 32.2,370.3 32.4,370.3 
	32.5,370.2 32.6,370.3 32.7,370.3 32.8,370.3 33,370.2 33,370.1 33,370.1 32.8,370 32.8,369.9 33,369.8 33.1,369.7 33.3,369.6 
	33.4,369.6 33.4,369.5 33.6,369.4 33.8,369.5 33.9,369.5 33.9,369.5 33.8,369.6 34,369.6 34.1,369.7 34.1,369.8 34,369.9 34,370.1 
	33.9,370.1 33.9,370.1 33.9,370.2 34,370.3 34.1,370.2 34.4,370.3 34.5,370.2 34.6,370.4 34.8,370.3 35,370.4 35,370.5 35,370.6 
	35.5,370.6 35.6,370.6 35.9,370.8 36,370.7 36,370.7 36.2,370.8 36.3,370.9 36.4,370.9 36.5,370.9 36.7,370.8 36.8,370.9 
	37.1,370.8 37.3,370.9 37.4,370.9 37.5,370.8 37.6,370.7 37.8,370.5 37.8,370.5 38,370.5 38,370.5 38.2,370.3 38.3,370.3 
	38.5,370.2 38.5,370.1 38.6,370 38.7,369.8 38.7,369.8 38.7,369.8 38.9,369.7 38.9,369.7 39,369.8 39,369.9 39.1,369.9 39.2,369.8 
	39.2,369.8 39.2,370.1 39.3,370.2 39.4,370.2 39.6,370.3 39.8,370.5 39.9,370.7 39.9,370.7 40.2,370.7 40.2,370.8 40.3,370.8 
	40.3,370.8 40.3,370.9 40.1,371 40,371 39.9,371 39.9,371.2 39.8,371.3 39.7,371.4 39.7,371.5 39.6,371.6 39.8,371.7 39.9,371.7 
	40.1,371.5 40.2,371.5 40.3,371.5 40.4,371.5 40.5,371.4 40.9,371.4 41.2,371.3 41.3,371.3 41.5,371.3 42.1,371.3 42.2,371.4 
	42.4,371.6 42.4,371.7 43,371.8 43.1,371.9 43.3,372 43.4,371.9 43.8,371.8 43.9,371.7 44.3,371.7 44.5,371.3 44.5,371.2 44.6,371 
	44.7,370.9 44.9,370.8 44.9,370.6 45.1,370.6 45.1,370.5 45.5,370.3 45.8,370.2 45.8,370.1 45.9,370.1 46.3,369.9 46.6,369.8 
	46.6,369.7 46.7,369.6 46.7,369.6 47,369.5 47,369.5 47.2,369.5 47.3,369.4 47.4,369.2 47.4,369 47.5,368.9 47.5,368.7 47.6,368.6 
	47.6,368.6 47.8,368.5 47.9,368.5 47.9,368.4 47.9,368.4 47.8,368.3 47.8,368.2 47.8,368.2 47.9,368.2 48.1,368.1 48.3,367.9 
	48.5,367.7 48.6,367.6 48.7,367.5 48.5,367.3 48.7,367.1 48.8,367.1 48.8,367.1 48.8,367 48.9,366.8 48.9,366.6 48.7,366.5 
	48.7,366.3 48.6,366.2 48.6,366.1 48.7,366 48.7,366 48.9,366 48.9,365.9 49.1,365.6 49.2,365.4 49.3,365.1 49.4,365 49.5,364.8 
	49.6,364.2 50,363.5 50.3,363 50.4,363 50.5,362.9 50.5,362.9 50.6,362.9 50.8,362.7 50.8,362.7 50.7,362.7 50.6,362.6 50.6,362.3 
	50.7,362.3 50.9,362 50.9,362 51,361.5 51.1,361.4 51.4,360.7 51.4,360.7 51.2,360.5 51.2,360.4 51.3,360.2 51.2,360.1 51.1,360.1 
	51.1,360.1 51.2,360 51.2,360 51.3,360 51.3,359.9 51.3,359.9 51.4,359.5 51.5,359.5 51.7,359.5 51.7,359.5 51.8,359.5 51.7,359.2 
	51.9,358.9 52.1,358.7 52.2,358.5 52.4,358.6 52.5,358.7 52.6,358.7 52.6,358.6 52.9,358.3 53.1,358 53.2,357.7 53.3,357.6 
	53.4,357.4 53.6,357.2 54.1,356.1 54.3,355.9 54.4,355.6 54.6,355.4 54.6,355.3 54.7,355.2 54.9,354.8 55.2,354.3 55.6,353.9 
	55.6,353.7 55.6,353.6 55.6,353.4 55.6,353.3 55.7,353.2 55.8,352.9 56.1,352.7 56.3,352.7 56.4,352.7 56.5,352.4 56.4,352.1 
	56.5,352 56.6,352 56.8,351.9 56.8,351.9 56.7,351.8 56.7,351.8 56.9,351.8 56.9,351.7 57.1,351.7 57.3,351.3 57.6,351 57.7,350.9 
	58,350.7 58,350.6 58.2,350.2 58.2,349.7 58.2,349.6 58.3,349.5 58.6,349.3 59.5,348.8 59.7,348.6 59.8,348.3 60,347.6 60,347.1 
	60.1,346.9 60.2,346.8 "/>
<polygon id="FR-974" points="69.2,411.9 68.5,410.5 67.3,410 66.1,408.9 64.9,408.7 63.6,406.9 61,403.7 60.6,402.8 60.5,401.8 
	59.6,400.6 58.5,399.9 58,398 58,395.6 57.6,394.3 56.5,392.4 55,390.8 53.4,389.8 51.9,389.4 51.3,389.4 48.9,388.1 48,388.2 
	47.4,388 46.1,387.7 44.6,387.9 41.2,386.8 40,387.2 38.4,387 36.9,385.9 36,386.3 34.4,386.1 32.3,386.7 30.5,388.1 28.5,389.5 
	27.8,390.5 26.7,391 26,391.4 23.6,390.8 23,390.8 23,391.7 22.2,393.7 22.2,397.4 20.5,398.9 19.9,399.1 19.6,399.2 18.7,399.2 
	17.3,400.6 17.2,400.9 17.2,401.3 17.7,402.4 17.4,404.4 18.5,406 20.3,407.4 20.4,408 21.7,409.8 21.7,410.7 23,412.1 23,414 
	22.6,415.9 23.6,418.3 25.9,420 26,420.4 26.7,421 26.9,422.2 27.5,422.9 29.7,423.3 31.8,424 32.9,425 32.9,425 34.1,426.5 
	34.9,427 36.8,427.3 37.6,428.3 37.9,428.5 39.1,428.7 39.8,429.3 41.1,429.3 44.1,430.4 45.4,431.3 46,431.2 47.2,431.6 
	48.1,431.3 48.4,431.2 50.2,432.5 52.4,432.2 53.5,432.7 54.4,432.3 55.7,432.1 56.4,431.5 58,431.6 62,430.8 62.6,430.5 
	63.9,430.6 64.2,430.6 64.8,430.3 66.3,429 67,427.9 67.1,427.6 66.8,425.7 67,423.5 66.6,421.3 66.7,420.3 67.1,418.7 67.6,416.9 
	68.4,415.9 68.5,414.7 69.3,414.1 69.3,413.8 "/>
<path id="FR-976" d="M29.3,446l0.1,0.2l-1.5,1l-0.4-0.9l-1.2-0.4l-0.1-0.2l1-1.1l0.3-0.1L29.3,446z M66,464.2l-1.1-1l-1.4,2.1
	l-1,1.7l-1.5-0.4l1.8,1.3l1.8,3.1l0.4-1.4l1.5-1.5l0.1-1.5l0.1-0.1l0.2-0.5L66,464.2z M29.6,461.1v-0.5l2.1-2.2l-0.4-0.9l-1.5-0.2
	l1.1-3.2l0.1-0.1l1.4,0.3l1.4-1.5l-0.2-1.4l1,0.1l0.8-0.7l0.4-1.5l1.2-1l-0.1-0.5l1.5-0.4l-0.2,0.9l-1.7,1.2l0.9,0.4l2.2,2l0.6,1.4
	l1.8,0.9l-0.4,0.9l0.6,1.3l-0.4,1.4l0.5,0.2l1.2,0.6l1.2-0.5l0.5,0.1l0.5,0.9h0.9l1.2-2.2l1.5,1.3l1.9,0.1l2,0.1l1.3,0.6l0.3-0.3
	l-0.2,1l0.3,0.4l1.3,0.5l1.9,1.4l0,0l0,0l0,0l0,0l0.1,1.4l-0.5,1.5l-0.4-0.4l0.1-1.2l-0.9,1.7l0.8,0.3l0.7,0.9l-0.3,0.2l-1.7,1.1
	l-1.1,1.7l-1.2,0.9l-0.3,1.5l-0.9,0.6l0,0l-0.6,0.7l0.1,0.9l-1.1,0.9l-0.2,0.5l0.5,0.2l0.9,0.3l0.2,1l1.1,1.7l1,0.3l0.2,1l1.4,0.1
	l-0.9,2.3l-1.2,0.9l-1.4,0.6l-0.6,1.4l0.3,1l1,1.1l-2.4-0.2l-1.5,1.9l0.3,1.4l-0.2,0.5l-1,0.1l-0.4,0.9l1.8,2.8l2.8,1.4l-0.1,0.5
	l-0.8,0.7l-1.6,0.1l-1.2,0.8l-0.3-1.5l-0.7-0.7l-1-0.2l-0.7,0.8l0,0.5l0.1,0.4l0,0.5l-1.3,1.5l-1-0.2l-0.9-1.1l-1.3,0.7l-0.4-2
	l-1-0.2l-1.3,1.5l-0.4-0.3l0.7-3.4l-0.2-1l-0.5-0.2l-2,1.3l-1.9-0.7l2.1-1.1l0.9-1.1l0.5-1.9l-0.3-0.9l-1.9-0.1l-0.9-1.1l-1.6-3
	l1.5-0.1l2.6,0.2l0.3,1.5l0.6,1.9l2.3,0.9l0.7,0.7l0.1,0l1.5,0.5l1.5-0.4l1.2-1.7l-0.2-0.5l-2.2-4.2l-0.9-0.4l-0.1-0.3l-1.2-0.9
	l-1.7-2.5l-1.8-0.9l-0.6-0.8l0.3-0.4l0.8-0.7l2.4-0.8l-1.9-0.7l-0.7-0.6l0.7-2.4l-0.8-1.2l-0.1-1l0.4-0.7l1.3-0.2l-0.1-0.4l-1.9-0.2
	l-0.4-0.9l0.8-1.1l0.2-1l-0.6-0.7l-0.9,0.5l-1.3-0.7l-1,0.3l-2.3-2.1l-1.5,0.2L29.6,461.1"/>
<path id="border" d="M550.1,392.8l-47.9,47.9v65.7 M0,195h71.6l10.3,11.1v55.4H0 M0,261.3h81.9V322H0 M0,322h81.9v59.4H0 M0,381.1
	h81.9v56H0 M0,437.2h81.9v66.5H0"/>
</svg>
