<?xml version="1.0" encoding="utf-8"?>
<!-- Generator: Adobe Illustrator 23.0.3, SVG Export Plug-In . SVG Version: 6.00 Build 0)  -->
<svg version="1.1" id="Calque_1" xmlns="http://www.w3.org/2000/svg" xmlns:xlink="http://www.w3.org/1999/xlink" x="0px" y="0px"
	 viewBox="0 0 595.3 595.3" style="enable-background:new 0 0 595.3 595.3;" xml:space="preserve">
<path d="M259.2,220.1c-3.3,0.7-6.5-1.4-7.2-4.6c-0.6-2.7,0.8-5.3,3.2-6.5c2-1,56.6-29.8,64.9-33.4c0,0,1.4-0.5,2.1-0.7
	c2.4-0.5,4.9-0.2,7,0.8c2.4,1,27.5,14.5,41.6,22.1c-1.3,0.1-2.5,0.2-3.8,0.5c-9,1.8-18.9,9.8-28.7,18.1
	c-6.4-6.4-12.4-12.7-16.9-17.7C303.6,205.5,271.9,216.6,259.2,220.1 M408.6,207.9c10.9,7.7,26,5.1,33.7-5.8
	c7.7-10.9,5.1-26-5.8-33.7c-10.9-7.7-26-5.1-33.7,5.8C395,185.1,397.6,200.2,408.6,207.9 M406.3,295.4c1.2-0.6,59.4-35.5,60.8-36.8
	c1.9-1.6,2.8-4,2.3-6.5c-0.8-3.6-4.4-6-8.1-5.2c-0.4,0.1-0.7,0.2-1.1,0.3c-1.6,0.5-32.8,13.7-51.1,21.5
	c-4.2-17.4-10.6-39.5-14.1-48.5c-0.3-0.8-0.6-1.6-1-2.3c-0.2-0.4-0.3-0.7-0.5-0.9c-4.3-7.7-13.2-12.1-22.3-10.2
	c-11.1,2.4-18.2,13.3-15.9,24.4c0.3,1.3,0.7,2.5,1.1,3.6c2.8,7.5,29.7,51,34.7,57.1c2.6,3.7,7.3,5.7,12,4.7
	C404.2,296.4,405.3,296,406.3,295.4 M359.5,338.4c0.4,0.8,0.7,1.7,1,2.6c2.1,7.7-2.5,15.7-10.2,17.7c-1.1,0.3-2.2,0.5-3.3,0.5
	c-3.7,0.3-98.9-0.9-118.6-1.2c-42.9,28.2-86.7,57-87.5,57.4c-1.1,0.7-2.3,1.1-3.7,1.2c-4.7,0.4-8.8-3-9.2-7.5
	c-0.3-2.7,0.9-5.2,2.8-6.9c1-1,144.8-130.4,149.6-134.6c3.7-3.6,8.6-6.1,14.1-6.6c6.7-0.7,13,1.5,17.7,5.5c1.3,1.1,2.5,2.3,3.6,3.6
	C325,283.3,354.8,329.8,359.5,338.4 M294,314.8c-8.9,5.9-20.7,13.7-33.9,22.4c16.4-1.5,35.9-3.1,52.5-4.5c-1.8-1.6-3.4-3.2-5-4.7
	C305.1,325.7,299.6,320.3,294,314.8"/>
</svg>
