<?xml version="1.0" encoding="utf-8"?>
<!-- Generator: Adobe Illustrator 23.0.3, SVG Export Plug-In . SVG Version: 6.00 Build 0)  -->
<svg version="1.1" id="Calque_1" xmlns="http://www.w3.org/2000/svg" xmlns:xlink="http://www.w3.org/1999/xlink" x="0px" y="0px"
	 viewBox="0 0 595.3 595.3" style="enable-background:new 0 0 595.3 595.3;" xml:space="preserve">
<style type="text/css">
	.st0{stroke:#FFFFFF;stroke-miterlimit:10;}
</style>
<path class="st0" d="M379.7,237.1c-6.8,7.4-18.2,7.9-25.6,1.1c-7.4-6.8-7.8-18.2-1.1-25.6c6.8-7.4,18.2-7.8,25.6-1.1
	C386,218.2,386.5,229.7,379.7,237.1 M500.6,342.3c-4.8,15.8-19.5,27.3-36.9,27.3c-10.8,0-20.6-4.5-27.6-11.6
	c-6.8,7-16.3,11.4-26.7,11.6l38.3,27.1l-4.6,6.4l-62.8-44.5c-7,6.8-16.4,11-26.9,11c-10.8,0-20.6-4.5-27.6-11.6
	c-7,7.2-16.8,11.6-27.6,11.6c-10.8,0-20.6-4.5-27.6-11.6c-6.8,6.9-16.2,11.3-26.6,11.6l38.3,27.1l-4.6,6.4l-62.9-44.6
	c-7,6.8-16.5,11.1-27,11.1c-11,0-20.9-4.6-28-12c-7,7.4-17,12-28,12c-17.4,0-32.1-11.5-36.9-27.3h55.9h17.9h19.8
	c0.2-0.6,0.3-1.3,0.5-2l-73.6-52.2c-0.5-0.4-1.1-1-1.4-1.6c-1.4-2.5-0.4-5.7,2.2-7.1c0.3-0.2,0.7-0.3,1-0.4
	c13.9-3.9,45.1-11.3,56.8-13.6c11.7-4.9,47-17.7,56.5-20.4c0,0,0.1,0,0.1,0c0.3-0.1,0.7-0.2,0.9-0.3c6.5-1.5,13.6,1.4,17.1,7.6
	c4.1,7.5,1.4,16.8-6.1,20.9c-1.6,0.9-3.6,1.6-5.7,1.8l-107.9,13l62.4,44.2c4.5-16.6,10.4-38.1,10.8-39.2c1.3-4.2,5.2-7.3,9.8-7.5
	c1.7-0.1,3.2,0.2,4.7,0.8c5.7,2.5,42.3,19.4,64.7,30.8c7,3.5,11.1,10.1,10.4,17.9c-0.2,2.6-1.1,5.1-2.3,7.2h27.1H335h18.9
	c0.2-0.6,0.3-1.3,0.5-2l-73.6-52.2c-0.5-0.4-1.1-1-1.4-1.6c-1.4-2.5-0.4-5.7,2.2-7.1c0.3-0.2,0.7-0.3,1-0.4
	c13.9-3.9,45.1-11.3,56.8-13.6c11.7-4.9,47-17.7,56.5-20.4c0,0,0.1,0,0.1,0c0.3-0.1,0.7-0.2,0.9-0.3c6.5-1.5,13.6,1.4,17.1,7.6
	c4.1,7.5,1.4,16.8-6.1,20.9c-1.6,0.9-3.6,1.6-5.7,1.8l-107.9,13l62.4,44.2c4.5-16.6,10.4-38.1,10.8-39.2c1.3-4.2,5.2-7.3,9.8-7.5
	c1.7-0.1,3.2,0.2,4.7,0.8c5.7,2.5,42.3,19.4,64.7,30.8c6.9,3.4,11.1,10.1,10.4,17.9c-0.2,2.6-1.1,5.1-2.3,7.2H500.6z M254.6,342.3
	c-10-7-24.5-17.7-37-27.6c-3.6,8.8-7.8,19.7-11.1,27.6H254.6z M420,342.3c-10-7-24.5-17.7-37-27.6c-3.6,8.8-7.8,19.7-11.1,27.6H420z
	 M214.4,237.1c6.8-7.4,6.3-18.8-1.1-25.6c-7.4-6.8-18.8-6.3-25.6,1.1c-6.8,7.4-6.3,18.8,1.1,25.6
	C196.1,244.9,207.6,244.4,214.4,237.1"/>
</svg>
