<?xml version="1.0" encoding="utf-8"?>
<!-- Generator: Adobe Illustrator 23.0.3, SVG Export Plug-In . SVG Version: 6.00 Build 0)  -->
<svg version="1.1" id="Calque_1" xmlns="http://www.w3.org/2000/svg" xmlns:xlink="http://www.w3.org/1999/xlink" x="0px" y="0px"
	 viewBox="0 0 595.3 595.3" style="enable-background:new 0 0 595.3 595.3;" xml:space="preserve">
<path d="M423.1,181.7c1.6,2.6,0.7,6.2-1.8,7.6c-2.6,1.5-45.6,22.2-57.5,27.4c-4.5,4.2-20.1,17.1-31.6,26.4
	c-8-12.9-13.9-19.4-23.1-22.6c13.5-7.4,37.2-18.8,43.8-21.6c0.6-0.2,1.2-0.5,1.5-0.6c0.2-0.1,0.9-0.3,1.5-0.5
	c9.4-3.1,58.7-18,61-18.5C419.4,178.7,421.8,179.6,423.1,181.7 M339.6,119.7l2.8-0.4l24.7,3.6l-3.8-24l-22.4,11l-2.8,0.4
	c-2.6,0.4-4.4,2.8-4,5.4C334.6,118.4,337,120.1,339.6,119.7 M229.4,310.5c-5.3,0-9.7-3.4-11.1-8.5c-2.5-9-8.3-66-8.1-73.5
	c0,0,0-0.9,0.2-1.6l5.9-19.7l2.8-3.8l13.8-46.5c-5.4-2.5-13.5-8.3-13.1-21.2c0.4-12.9,7.9-21.2,12.3-25c6-5.2,12.8-6.8,19.7-4.8
	c6.9,2,11.6,7.1,13.8,14.8c1.6,5.6,3.3,16.6-3.4,27.7c-6.7,11-16.7,11.5-22.5,10.6L226,205.3l0.3,4.8l-4.6,15.3
	c0.3,0.5,0.6,1.4,0.6,1.4c1.3,4.2,7.8,28.6,12.7,47.5c9.6-11.6,21.5-25.7,26.7-31c1.5-1.6,3.3-2.8,4-3.3c2.8-1.7,6-2.7,9.5-2.7
	c10.2-0.1,18.6,8.1,18.6,18.4c0,5.2-2.5,10.1-5.6,13.1c-3.1,3-5.6,5.2-9.5,8c-14.6,10.7-39.7,30.1-42.8,31.7
	C234,309.8,231.8,310.5,229.4,310.5 M227.1,135.9c-0.4,10.3,6.9,14,11.3,15.3c4.4,1.3,12.5,2.2,17.8-6.7c5.3-8.7,3.9-17.5,2.6-22
	c-1.5-5.2-4.5-8.6-9-9.9c-4.5-1.3-8.8-0.2-12.9,3.4C233.4,119.1,227.4,125.7,227.1,135.9 M259.4,201.8c0,12.3,10,22.3,22.3,22.3
	c12.3,0,22.3-10,22.3-22.3c0-12.3-10-22.3-22.3-22.3C269.4,179.5,259.4,189.5,259.4,201.8 M326.1,316.2
	c11.9,8.3,50.1,41.7,58.8,50.7c2.9,3,4.5,7.3,3.8,11.7c-0.6,3.9-2.7,7-5.6,9.2c-3.1,2.7-40.7,21.3-65,33c-0.4,1.3-0.7,2.4-1,3.3
	c-0.9,2.7-2.4,4.9-4.5,6.9c-4.1,3.9-82.6,51.2-90.3,55.1c-1.1,0.5-2.3,0.8-3.6,0.8c-4.4-0.1-7.9-3.7-7.8-8.1c0-2.2,1-4.2,2.5-5.6
	c7.4-7.1,53.5-45.3,73.9-61c0.1-21.2,1.7-70.7,3.5-81.4c1.7-10.7,10.9-18.9,22.1-18.9c2.4,0,4.7,0.4,6.8,1.1
	C322.4,313.9,324.7,315.3,326.1,316.2 M324.7,392.8c8.1-5.4,16.5-11,23.7-15.8c-5.8-3.6-12-7.7-18.1-11.6
	C328.6,374.2,326.7,383.8,324.7,392.8"/>
</svg>
