<?xml version="1.0" encoding="utf-8"?>
<!-- Generator: Adobe Illustrator 23.0.3, SVG Export Plug-In . SVG Version: 6.00 Build 0)  -->
<svg version="1.1" id="Calque_1" xmlns="http://www.w3.org/2000/svg" xmlns:xlink="http://www.w3.org/1999/xlink" x="0px" y="0px"
	 viewBox="0 0 595.3 595.3" style="enable-background:new 0 0 595.3 595.3;" xml:space="preserve">
<path d="M276.7,315.8c-1-3.9-1.6-8-1.6-12.2c0-26.9,21.8-48.7,48.7-48.7c25.6,0,46.6,19.8,48.5,45c0.1,1,0.1,2,0.1,3l18.1,5.4l0.3,7
	l-52.5,0.5c0,16.9-10.6,24.9-23.7,24.9c-6.1,0-11.6-2.3-15.8-6.1L276.7,315.8z M381.8,428.3c14.4,0,26.8-10.8,28.5-25.4
	c1.8-15.7-9.5-29.9-25.2-31.7c-1.5-0.2-2.7-0.3-4.3-0.2c-8.5,0.3-52.6,5.3-77.6,10.3c-23.3-20.7-78.1-64.9-92.3-75.3l148.5-143.8
	c7.4-7.3,7.5-19.2,0.2-26.6c-7.7-6.9-19.6-6.3-26.6,1.5L196.9,292.2c-5.8-2.2-12.5,0.3-15.4,5.9c-0.7,1.3-1.1,2.7-1.3,4.1L168,394.9
	c-1.5,10.7,6.7,20.3,19.6,20.3c0.1,0,73.7,0,73.7,0l-42-46.8c-3.8,0.7-7.5,1.5-11.1,2.2c-0.1-9.7-0.4-20-0.9-30.7l72.7,81
	c3.9,4.3,12.4,7.3,19.8,7.3C306.5,428.2,381.8,428.3,381.8,428.3"/>
</svg>
