<?xml version="1.0" encoding="utf-8"?>
<!-- Generator: Adobe Illustrator 23.0.3, SVG Export Plug-In . SVG Version: 6.00 Build 0)  -->
<svg version="1.1" id="Calque_1" xmlns="http://www.w3.org/2000/svg" xmlns:xlink="http://www.w3.org/1999/xlink" x="0px" y="0px"
	 viewBox="0 0 595.3 595.3" style="enable-background:new 0 0 595.3 595.3;" xml:space="preserve">
<path d="M428.5,387.2c2.4,2.6,2.3,6.7-0.4,9.2c-1.2,1.1-2.6,1.6-4,1.7c-3.3,0.2-73.5-2.1-80.9-2.8c-2.9-0.2-5.8-1.5-7.9-3.8
	c-0.2-0.2-0.3-0.4-0.5-0.5c-0.7-0.7-7.6-10.8-15.6-22.4c-0.4,10.4-0.8,20.6-1.2,27.9c22,11.5,77.1,40.5,78.7,41.6
	c1.1,0.7,2,1.7,2.6,2.9c1.7,3.7,0.1,8-3.5,9.7c-1.5,0.7-3,0.8-4.5,0.5c0,0-0.8-0.2-1.2-0.3c-9.6-3.1-77.4-28.4-90.9-33.7
	c-3.2-1.2-5.9-3.6-7.4-6.9c-0.6-1.4-1-2.8-1.2-4.2c-0.4-3-5.9-74.8-5.9-79.8c0-0.6,0-1.2,0.1-1.8c0.9-9.8,9.2-17.5,19.3-17.5
	c6.7,0,12.6,3.4,16.1,8.7c2.7,3.8,23.3,40.8,31.8,56.8c19.2,3.2,71.9,12.6,73.5,13.1C426.6,385.7,427.6,386.3,428.5,387.2z
	 M361.4,192.2c2.2,0,4.4-0.3,6.4-1c-0.5,0.9-1,1.8-1.4,2.6c-2.7,4.9-9,16.9-12.6,24.2c-5.2,1.2-30.6,7.7-36.2,9.2
	c2.8,5.9,5.2,16.1,3.4,29.2c13.1-5.6,39.3-19.7,44.1-22.8c1.3-0.8,2.3-2,3.1-3.3c4.9-9,19.3-49.6,20.3-54.2c0.1-0.4,0.2-0.8,0.2-1.2
	c0-2.8-2.1-5.1-4.8-5.3c-0.1-12.3-10.1-22.3-22.4-22.3c-12.4,0-22.4,10-22.4,22.4C339,182.2,349,192.2,361.4,192.2z M297.2,223.1
	c11.3,0,20.5-9.2,20.5-20.5c0-11.3-9.2-20.5-20.5-20.5c-11.3,0-20.5,9.2-20.5,20.5C276.6,214,285.8,223.1,297.2,223.1z M300.8,251.4
	c0-9-7.3-16.3-16.3-16.3c-6.2,0-11.6,3.5-14.4,8.6c-2.2,3.6-14.2,36.8-18.3,49.7c-13.6,8.1-50.2,31.4-52.9,34.5
	c-1.1,1.2-1.8,2.8-1.8,4.5c0,3.6,2.9,6.5,6.5,6.5c0.7,0,1.4-0.1,2.1-0.4c6.8-2.8,55.5-26.7,59.9-29.2c1.2-0.7,2.3-1.6,3.2-2.7
	c3.4-3.9,29.2-44.5,31-49.2C300.4,255.6,300.8,253.5,300.8,251.4z M180.4,172.5c-9.4,0-22.7-1.2-31.6-4.9l14,43.6
	c0.5,1.6-0.4,3.2-1.9,3.8c-0.3,0.1-0.6,0.1-0.9,0.1c-1.3,0-2.4-0.8-2.8-2.1c0,0-17.7-47.9-17.7-55.6c0-11.9,25.8-15,41-15
	c15.2,0,41,3.2,41,15c0,7.7-17.7,55.6-17.7,55.6c-0.4,1.3-1.6,2.1-2.8,2.1c-0.3,0-0.6,0-0.9-0.1c-1.6-0.5-2.4-2.2-1.9-3.8l14-43.6
	C203.1,171.3,189.7,172.5,180.4,172.5z M180.4,166.6c18.4,0,33.6-3.6,33.6-9.1c0-5.5-15.3-9.1-33.6-9.1s-33.6,3.6-33.6,9.1
	C146.7,163,162,166.6,180.4,166.6z M378.7,330.7h21.5l17.9-16l-11.2-17.4l-18.1,16.2h-6L378.7,330.7z M463.8,273.7h7l4.1-17.3h-22.4
	l-18,16l11.2,17.4L463.8,273.7z M417.7,256.3h-22.4l-4.1,17.5h6.9l36.9,57.2h22.4l4.1-17.5h-6.9L417.7,256.3z M352.2,267.2
	l-4.1,16.8l7.5,9.1l-11.5,9.2l-4.1,17.6l9.1,10.9h24.2l4.1-17.3h-8.8l2.6-11.1h11.5l4.2-18.4h-11.6l2.5-10.2h7.9l4.1-17.5h-23.3
	L352.2,267.2z M480.4,256.4l-4.1,17.3h8.8l-2.4,10.1h-11.5l-4.2,18.4h11.6l-2.6,11.2h-9l-4.1,17.5h24.4l14.2-10.8l4.2-17.9l-7.5-9.1
	l11.5-9.3l4-16.6l-9.1-10.9H480.4z"/>
</svg>
