<?xml version="1.0" encoding="utf-8"?>
<!-- Generator: Adobe Illustrator 23.0.3, SVG Export Plug-In . SVG Version: 6.00 Build 0)  -->
<svg version="1.1" id="Calque_1" xmlns="http://www.w3.org/2000/svg" xmlns:xlink="http://www.w3.org/1999/xlink" x="0px" y="0px"
	 viewBox="0 0 595.3 595.3" style="enable-background:new 0 0 595.3 595.3;" xml:space="preserve">
<path d="M322,306.7c3,4.1,25.5,44.6,34.7,62.1c21,3.5,78.6,13.8,80.3,14.3c1.2,0.3,2.4,1,3.3,2c2.7,2.9,2.5,7.4-0.4,10
	c-1.3,1.2-2.8,1.7-4.4,1.8c-3.6,0.2-80.3-2.3-88.4-3.1c-3.2-0.3-6.3-1.6-8.6-4.2c-0.2-0.2-0.3-0.4-0.5-0.6
	c-0.7-0.8-8.3-11.8-17.1-24.5c-0.4,11.4-0.9,22.5-1.3,30.5c24.1,12.5,84.2,44.3,86,45.5c1.2,0.8,2.2,1.9,2.8,3.2
	c1.9,4,0.1,8.7-3.9,10.6c-1.6,0.7-3.3,0.9-4.9,0.6c0,0-0.8-0.2-1.3-0.4c-10.5-3.4-84.6-31-99.3-36.8c-3.5-1.3-6.4-4-8.1-7.6
	c-0.7-1.5-1.1-3-1.3-4.6c-0.4-3.3-6.5-81.7-6.4-87.2c0-0.7,0-1.3,0.1-2c1-10.7,10.1-19.2,21.1-19.1C311.7,297.3,318.2,301,322,306.7
	 M374.4,213.8c5.4-9.8,21.1-54.1,22.2-59.2c0.1-0.4,0.2-0.9,0.2-1.3c0-3-2.3-5.5-5.3-5.8c-0.1-13.5-11-24.3-24.5-24.3
	c-13.5,0-24.5,11-24.5,24.5c0,13.5,11,24.5,24.5,24.5c2.4,0,4.8-0.4,7-1c-0.5,1-1,1.9-1.6,2.9c-2.9,5.4-9.8,18.4-13.7,26.4
	c-5.7,1.3-33.5,8.4-39.6,10.1c3.1,6.5,5.6,17.6,3.7,31.9c14.3-6.1,42.9-21.5,48.2-24.9C372.5,216.5,373.7,215.2,374.4,213.8
	 M296.8,205.8c12.4,0,22.4-10,22.4-22.4s-10-22.4-22.4-22.4c-12.4,0-22.4,10-22.4,22.4S284.4,205.8,296.8,205.8 M196.7,331.9
	c7.4-3,60.7-29.1,65.4-31.9c1.4-0.7,2.5-1.7,3.5-3c3.7-4.3,31.9-48.7,33.9-53.8c0.8-2.1,1.3-4.3,1.3-6.6c0-9.8-8-17.8-17.8-17.8
	c-6.8,0-12.7,3.8-15.7,9.4c-2.4,3.9-15.5,40.2-20,54.3c-14.8,8.8-54.9,34.4-57.8,37.8c-1.2,1.3-2,3-2,4.9c0,3.9,3.2,7.1,7.1,7.1
	C195.2,332.3,196,332.2,196.7,331.9 M203.7,145.2c-9.7,4-24.3,5.3-34.5,5.3c-10.2,0-24.8-1.3-34.5-5.3l15.2,47.6
	c0.6,1.7-0.4,3.6-2.1,4.1c-0.3,0.1-0.7,0.2-1,0.2c-1.4,0-2.7-0.9-3.1-2.3c0,0-19.3-52.3-19.3-60.7c0-13,28.1-16.4,44.8-16.4
	c16.6,0,44.8,3.5,44.8,16.4c0,8.4-19.3,60.7-19.3,60.7c-0.4,1.4-1.7,2.3-3.1,2.3c-0.3,0-0.7-0.1-1-0.2c-1.7-0.5-2.7-2.4-2.1-4.1
	L203.7,145.2 M169.2,144c20.1,0,36.8-4,36.8-10c0-6-16.7-10-36.8-10c-20.1,0-36.8,4-36.8,10C132.4,140.1,149.1,144,169.2,144"/>
</svg>
