<?xml version="1.0" encoding="utf-8"?>
<!-- Generator: Adobe Illustrator 23.0.3, SVG Export Plug-In . SVG Version: 6.00 Build 0)  -->
<svg version="1.1" id="Calque_1" xmlns="http://www.w3.org/2000/svg" xmlns:xlink="http://www.w3.org/1999/xlink" x="0px" y="0px"
	 viewBox="0 0 595.3 595.3" style="enable-background:new 0 0 595.3 595.3;" xml:space="preserve">
<path d="M203.6,281.6c12.2,5.3,34.9,15.2,49.7,21.5c-45.4,2.6-151.6,8.7-153.5,8.9c-4.2,0.2-7.6-3.2-7.6-7.2c0-3.6,2.6-6.6,6-7.1
	C101,297.2,172.5,286.3,203.6,281.6 M266.5,381.8c-3.4,0-6.1,2.7-6.1,6.1c0,3.4,2.7,6.1,6.1,6.1c3.4,0,6.1-2.7,6.1-6.1
	C272.6,384.6,269.9,381.8,266.5,381.8 M297.7,381.8c-3.4,0-6.1,2.7-6.1,6.1c0,3.4,2.7,6.1,6.1,6.1c3.4,0,6.1-2.7,6.1-6.1
	C303.8,384.6,301,381.8,297.7,381.8 M328.8,381.8c-3.4,0-6.1,2.7-6.1,6.1c0,3.4,2.7,6.1,6.1,6.1c3.4,0,6.1-2.7,6.1-6.1
	C334.9,384.6,332.2,381.8,328.8,381.8 M359.9,381.8c-3.4,0-6.1,2.7-6.1,6.1c0,3.4,2.7,6.1,6.1,6.1c3.4,0,6.1-2.7,6.1-6.1
	C366,384.6,363.3,381.8,359.9,381.8 M391.1,381.8c-3.4,0-6.1,2.7-6.1,6.1c0,3.4,2.7,6.1,6.1,6.1c3.4,0,6.1-2.7,6.1-6.1
	C397.2,384.6,394.4,381.8,391.1,381.8 M422.2,381.8c-3.4,0-6.1,2.7-6.1,6.1c0,3.4,2.7,6.1,6.1,6.1c3.4,0,6.1-2.7,6.1-6.1
	C428.3,384.6,425.6,381.8,422.2,381.8 M453.4,381.8c-3.4,0-6.1,2.7-6.1,6.1c0,3.4,2.7,6.1,6.1,6.1c3.4,0,6.1-2.7,6.1-6.1
	C459.4,384.6,456.7,381.8,453.4,381.8 M235.4,381.8c-3.4,0-6.1,2.7-6.1,6.1c0,3.4,2.7,6.1,6.1,6.1c3.4,0,6.1-2.7,6.1-6.1
	C241.5,384.6,238.8,381.8,235.4,381.8 M204.3,381.8c-3.4,0-6.1,2.7-6.1,6.1c0,3.4,2.7,6.1,6.1,6.1c3.4,0,6.1-2.7,6.1-6.1
	C210.3,384.6,207.6,381.8,204.3,381.8 M173.1,381.8c-3.4,0-6.1,2.7-6.1,6.1c0,3.4,2.7,6.1,6.1,6.1c3.4,0,6.1-2.7,6.1-6.1
	C179.2,384.6,176.5,381.8,173.1,381.8 M142,381.8c-3.4,0-6.1,2.7-6.1,6.1c0,3.4,2.7,6.1,6.1,6.1c3.4,0,6.1-2.7,6.1-6.1
	C148.1,384.6,145.3,381.8,142,381.8 M282.1,403.6c-3.4,0-6.1,2.7-6.1,6.1c0,3.4,2.7,6.1,6.1,6.1c3.4,0,6.1-2.7,6.1-6.1
	C288.2,406.3,285.5,403.6,282.1,403.6 M313.2,403.6c-3.4,0-6.1,2.7-6.1,6.1c0,3.4,2.7,6.1,6.1,6.1c3.4,0,6.1-2.7,6.1-6.1
	C319.3,406.3,316.6,403.6,313.2,403.6 M344.4,403.6c-3.4,0-6.1,2.7-6.1,6.1c0,3.4,2.7,6.1,6.1,6.1c3.4,0,6.1-2.7,6.1-6.1
	C350.5,406.3,347.7,403.6,344.4,403.6 M375.5,403.6c-3.4,0-6.1,2.7-6.1,6.1c0,3.4,2.7,6.1,6.1,6.1c3.4,0,6.1-2.7,6.1-6.1
	C381.6,406.3,378.9,403.6,375.5,403.6 M406.7,403.6c-3.4,0-6.1,2.7-6.1,6.1c0,3.4,2.7,6.1,6.1,6.1c3.4,0,6.1-2.7,6.1-6.1
	C412.7,406.3,410,403.6,406.7,403.6 M437.8,403.6c-3.4,0-6.1,2.7-6.1,6.1c0,3.4,2.7,6.1,6.1,6.1c3.4,0,6.1-2.7,6.1-6.1
	C443.9,406.3,441.2,403.6,437.8,403.6 M251,403.6c-3.4,0-6.1,2.7-6.1,6.1c0,3.4,2.7,6.1,6.1,6.1c3.4,0,6.1-2.7,6.1-6.1
	C257.1,406.3,254.3,403.6,251,403.6 M219.8,403.6c-3.4,0-6.1,2.7-6.1,6.1c0,3.4,2.7,6.1,6.1,6.1c3.4,0,6.1-2.7,6.1-6.1
	C225.9,406.3,223.2,403.6,219.8,403.6 M188.7,403.6c-3.4,0-6.1,2.7-6.1,6.1c0,3.4,2.7,6.1,6.1,6.1c3.4,0,6.1-2.7,6.1-6.1
	C194.8,406.3,192.1,403.6,188.7,403.6 M157.6,403.6c-3.4,0-6.1,2.7-6.1,6.1c0,3.4,2.7,6.1,6.1,6.1c3.4,0,6.1-2.7,6.1-6.1
	C163.6,406.3,160.9,403.6,157.6,403.6 M487.2,274.5c-12-1.6-23,6.8-24.6,18.8c-1.6,12,6.8,23,18.8,24.6c12,1.6,23-6.8,24.6-18.8
	C507.6,287.1,499.2,276.1,487.2,274.5 M365.8,267.2c-2.1-5.3-6.6-9.5-12.4-10.9c-9.6-2.3-19.2,3.5-21.6,13.1
	c-1,4.2-0.5,8.5,1.3,12.1c9.8,18,21.6,38.7,32.9,57.4c1.8,2.8,4.5,4.8,7.9,5.2c29.4,3.7,62.5,6.8,77.6,8.3c0.2,0,0.3,0,0.6,0
	c3.2,0.2,6.2-3,6.1-6.5c-0.1-2-1.1-3.8-2.6-4.9c-0.1-0.1-0.3-0.2-0.3-0.2c-15.3-9.9-39.6-25.9-56-36.1c-8.3-12.3-16-23.1-24.7-33.8
	c6,16.4,10.8,32.3,15,47.4c0.4,0.2,0.7,0.4,1.1,0.6c9.6,4.2,24.2,9.7,37.7,15c-14.4-3.3-30.8-6.9-44.3-9.7
	C378.6,304.9,372.9,285.9,365.8,267.2 M396.9,277.4c12,1.8,23.1-6.5,24.9-18.5c1.8-12-6.5-23.1-18.5-24.9
	c-12-1.8-23.1,6.5-24.9,18.5C376.7,264.5,385,275.6,396.9,277.4 M139.2,178.3c-2.1-1.8-5.2-2.4-8-1.2c-3.9,1.7-5.7,6.2-4,10
	c0.3,0.7,0.7,1.3,1.1,1.8c8,10.4,59.5,73,65,79.1c1.6,1.7,3.2,3.1,5.8,4.2c6.4,2.8,49.4,21.7,65.4,28.3c1.2,0.5,2.4,0.9,3.6,1.1
	c11.3,2.4,22.3-4.8,24.7-16c2.3-10.8-4.2-21.4-14.7-24.4c-10-2.8-44.6-10.5-67.2-14.7C194.5,229,163.4,200.1,139.2,178.3"/>
</svg>
