<?xml version="1.0" encoding="utf-8"?>
<!-- Generator: Adobe Illustrator 23.0.3, SVG Export Plug-In . SVG Version: 6.00 Build 0)  -->
<svg version="1.1" id="Calque_1" xmlns="http://www.w3.org/2000/svg" xmlns:xlink="http://www.w3.org/1999/xlink" x="0px" y="0px"
	 viewBox="0 0 595.3 595.3" style="enable-background:new 0 0 595.3 595.3;" xml:space="preserve">
<path d="M328.3,145.3c-6.3-7.1-7.7-17.8-2.7-26.5c6.3-10.8,20.4-14.4,30.9-8.1c0.6,0.4,3.6,2.2,7.7,4.7c1.7,1,3.2,2.5,4.3,3.8
	l16.8,20.3l-2.6,5.4l-14.5-8.5l-8.5,14.5l3.2,8.6l-9,15.5C353.8,175,330.8,148.2,328.3,145.3 M331.1,254.8
	c-1.3-0.8-44.6-36.4-44.9-36.7c-1.8-1.5-3-3.6-3.5-6.1c-0.2-1.1-0.2-2.3-0.1-3.4c0,0,5.2-37.5,8-52.2c0.8-5.4,4.6-10.5,10.2-12.5
	c8.3-3.1,17.5,1.1,20.6,9.4c1.2,3.2,1.3,6.6,0.5,9.6c-3.7,13.2-12.3,34.7-16.5,44.9c10.4,11.1,26.5,29.6,31.8,35.8l9.8-4.6
	c2.6-1.2,5.6-0.2,6.9,2.3l36.5,70.4c5.7-2.2,11.9-3.5,18.4-3.5c27.8,0,50.4,22.6,50.4,50.4c0,27.8-22.5,50.4-50.4,50.4
	c-27.8,0-50.4-22.6-50.4-50.4c0-17.6,9-33,22.6-42l-34.2-65.9l-9.9,4.7C336,255.8,333.4,256.3,331.1,254.8 M408.9,398.5
	c22,0,39.8-17.9,39.8-39.8c0-22-17.9-39.8-39.8-39.8c-4.7,0-9.3,0.8-13.5,2.4l18.2,35.1c1.3,2.6,0.3,5.8-2.2,7.1
	c-0.8,0.4-1.6,0.6-2.4,0.6c-1.9,0-3.7-1-4.7-2.8l-18.2-35c-10.3,7.2-17,19.1-17,32.6C369,380.6,386.9,398.5,408.9,398.5
	 M224.9,235.7c2.2-10.6,11.3-17.9,21.8-17.9c4.9,0,9.3,1.6,13,4.2c0.1,0,0.4,0.3,1,0.8c8.4,6.7,59.1,48.2,62.4,50.9
	c0,0,0.2,0.1,0.2,0.2c2.4,2,4,4.9,4.4,8.2c0.1,0.5,10.8,95.7,10.8,95.7c0.4,3.4-1.7,6.7-5.1,7.8c-3.9,1.2-8.2-0.9-9.3-5.2
	c-1.2-5.3-14.2-59.2-20.2-87.7c-5.3-2.3-13.4-6-22.5-10.2c4.6,12.1,8.2,21.5,8.4,22.1c0.4,1.2,0.6,2.4,0.5,3.7
	c0,0.8-0.1,1.5-0.3,2.3c-0.1,0.4-18.9,83.8-18.9,83.8c-0.1,0.4-0.3,0.9-0.5,1.3c5.5,8.1,8.8,17.9,8.8,28.4
	c0,27.8-22.5,50.4-50.4,50.4s-50.4-22.6-50.4-50.4c0-27.8,22.5-50.4,50.4-50.4c10.7,0,20.7,3.4,28.9,9.1c2.1-18.1,6.7-57.8,8.4-71.6
	c-8.7-12.6-36.8-54.7-39.7-61.5c-0.7-1.4-1.2-2.9-1.5-4.4C224.3,241.9,224.3,238.7,224.9,235.7 M229.1,463.8
	c22,0,39.8-17.8,39.8-39.8s-17.8-39.8-39.8-39.8s-39.8,17.8-39.8,39.8S207.1,463.8,229.1,463.8"/>
</svg>
