<?xml version="1.0" encoding="utf-8"?>
<!-- Generator: Adobe Illustrator 23.0.3, SVG Export Plug-In . SVG Version: 6.00 Build 0)  -->
<svg version="1.1" id="Calque_1" xmlns="http://www.w3.org/2000/svg" xmlns:xlink="http://www.w3.org/1999/xlink" x="0px" y="0px"
	 viewBox="0 0 595.3 595.3" style="enable-background:new 0 0 595.3 595.3;" xml:space="preserve">
<path d="M266.7,397.7c-1.5,4.7-4.3,8.9-8.5,12.1c-10.9,8.4-26.5,6.4-34.9-4.5c-7.9-10.2-6.6-24.6,2.6-33.3l6.7,8.7
	c1.2,1.6,3.1,2.5,5.1,2.6l3.8,0.2c2-1.6,8.9-6.9,11.1-8.6c3.5-2.7,3.7-6.6,3.7-8.1l0-0.4l6.4,0.4l0,0.2c-0.2,5.5-2.3,9.9-6.2,12.9
	c-2.2,1.7-8.7,6.7-10.9,8.4l1.8,2.4c1.2,1.6,3.1,2.5,5,2.6l11.4,0.6L266.7,397.7 M284.7,313.7c2.8,2.6,55,51.6,57.5,53.6
	c3,2.6,7.6,4.7,12.3,5c11.5,0.7,21.4-8.1,22.1-19.6c0.2-3.5-0.4-6.8-1.8-9.8c0-0.1-23.8-50.7-32-67.9c19.3-15.9,57.3-52.3,60-55.6
	c2.1-2.6,1.9-6.5-0.3-8.8c-2.1-2.2-5.7-2.8-8.4-1.1c-3.2,2-71.6,50.6-73.7,52.5c-2.7,2.1-4.6,5.5-4.7,9.4c0,0.8,0.1,2,0.3,2.6
	c1.1,5,4.5,20.7,8.4,37.1l-22-13.3c-2.8-10.1-20.7-70.3-22.6-76.2c-0.6-1.7-2.5-4.6-6.8-4.3c-3.5,0.3-5.5,3.8-5.4,6.5
	c0.2,4.1,12.7,81.2,13.6,84.3C281.9,310.2,283,312.1,284.7,313.7 M354.2,208.2c-18.5,0-36.3-10.3-45.1-28
	c-12.4-24.9-2.2-55.1,22.7-67.5c7.2-3.6,14.8-5.3,22.4-5.3c18.5,0,36.3,10.3,45.1,28c12.4,24.9,2.2,55.1-22.7,67.5
	C369.4,206.5,361.7,208.2,354.2,208.2 M336.4,122.1c-19.7,9.8-27.7,33.7-17.9,53.4c6.8,13.6,20.5,22.1,35.7,22.1
	c6.2,0,12.1-1.4,17.7-4.2c9.5-4.7,16.6-12.9,20-23c3.4-10.1,2.7-20.9-2.1-30.4c-6.8-13.6-20.5-22.1-35.7-22.1
	C347.9,118,342,119.4,336.4,122.1 M197,249.2c-4.8,1.6-9.8,2.3-14.7,2.3c-17.7,0-34.7-9.8-43.1-26.7c-11.8-23.8-2.1-52.6,21.7-64.4
	c6.9-3.4,14.2-5,21.3-5c17.7,0,34.7,9.8,43.1,26.7c11.3,22.8,2.9,50.2-18.7,62.8l26.4,58.8l8.1-3.4c2.3-0.9,4.8-0.4,6.7,1.1
	c0.9,0.6,44.8,39.4,45.6,40.1c0.8,0.7,1.8,1.8,2.5,3.5c0.7,1.6,16.3,41.3,18.5,47.6c2.3,6.4-1.3,16.6-9.9,19.1
	c-9.6,2.8-18-3.4-19.6-12.2c-1.4-7.3-5.3-36.7-6.6-46.3c-10.8-10.9-31.5-34.7-37.3-41.4l-8.6,3.6c-3,1.2-5.7-0.3-6.9-2.7L197,249.2z
	 M182.3,241c3.5,0,7-0.5,10.4-1.5l-15.2-33.9c-1.2-2.7,0-5.8,2.7-7c2.7-1.2,5.8,0,7,2.7l15.2,33.9c16.1-10.1,22.2-31.1,13.6-48.5
	c-6.4-12.9-19.3-20.8-33.7-20.8c-5.8,0-11.4,1.3-16.7,3.9c-18.5,9.2-26.1,31.8-16.9,50.3C155,233,167.9,241,182.3,241 M458.9,343.7
	c-11,46.3-37,87.8-70,118.7c-28.2,26.4-76.3,57.9-145.2,57.9V534c58,0,111.5-21.3,154.5-61.6c33.5-31.3,59.2-73,71.2-115h54.8v-13.7
	H458.9z"/>
</svg>
