<?xml version="1.0" encoding="utf-8"?>
<!-- Generator: Adobe Illustrator 23.0.3, SVG Export Plug-In . SVG Version: 6.00 Build 0)  -->
<svg version="1.1" id="Calque_1" xmlns="http://www.w3.org/2000/svg" xmlns:xlink="http://www.w3.org/1999/xlink" x="0px" y="0px"
	 viewBox="0 0 595.3 595.3" style="enable-background:new 0 0 595.3 595.3;" xml:space="preserve">
<path d="M411.8,272c14.3-1.8,33.1-5.5,44.9-3.5c8.5,1.5,14.9,4.8,18.2,10.1c3.6,5.9,3.4,12.9,1.2,21.4c-2.9,11.4-14.9,17.7-33,14.1
	c-13.3-2.7-18.6-10.4-20.5-19.9c-22.6,1.7-70.6,3.8-79,4.2c-13.2,1.2-42.4,3.2-68.2,5c4.1-17.3,4-28.5,3.4-40.3
	C304.3,264.2,386.9,269.8,411.8,272 M250,281.7c-5.9-4.9-13.7-10.2-21.1-9.3c-6.4,0.8-10.3,5-13.6,8.6c-8.9,9.6-9,24.8-9,26.2
	c-7.9,7.2-18,17.5-27.3,26.2c8.4-21.8,16.1-47.5,16.8-53.7c0.2-1.7,0.3-3.4,0.1-5.1c-1-14.3-12.5-24.7-26.9-23.6
	c-3.6,0.3-7,1.3-10.1,2.8c-6.3,3.2-10.8,9.2-12.5,15.7c-1.7,6.5-1.6,19.4-1.4,32.2c0.4,26.4,1.6,62,3.1,71.1
	c1.5,9.1,9.2,15.1,18.7,14.6c5.1-0.3,9.6-2.6,12.8-6.1c3.3-3.7,38.2-47.6,45.7-58.2c0,0,10.1-0.5,16-3.7c3.3-1.8,11.2-6.8,14.7-13.1
	C261.5,296.4,257.4,287.8,250,281.7 M241.4,189.5c-19.3,0-34.9,15.6-34.9,34.9c0,19.3,15.6,34.9,34.9,34.9s34.9-15.6,34.9-34.9
	C276.3,205.2,260.7,189.5,241.4,189.5"/>
</svg>
