<?xml version="1.0" encoding="utf-8"?>
<!-- Generator: Adobe Illustrator 23.0.3, SVG Export Plug-In . SVG Version: 6.00 Build 0)  -->
<svg version="1.1" id="Calque_1" xmlns="http://www.w3.org/2000/svg" xmlns:xlink="http://www.w3.org/1999/xlink" x="0px" y="0px"
	 viewBox="0 0 595.3 595.3" style="enable-background:new 0 0 595.3 595.3;" xml:space="preserve">
<path d="M294,257.2c-1.6,4.5-3.5,8.9-5.5,13.1c12.4,2.5,37.3,6.6,38.1,6.7c0.7,0.1,1,0.1,1.5,0.2c0.4,0,0.9,0.1,1.3,0.1
	c0.6,0,49.8-0.3,52.4-0.7c0,0,28.4,45.8,28.9,46.7c1.2,1.9,0.8,10.8,3.8,15.8l21,33.8H333c-1.9-17.2-7.3-58.8-9.3-66.2
	c-1.4-4.9-5.9-8.7-11.1-8.8c-0.7,0-1.9,0-2.5,0.1c-2.6,0.2-20.9,1.5-33.9,2.8c-13.1,1.3-30.9,3.4-34,4.1c-2.2,0.5-4.9,1.6-6.7,2.9
	c-1.7,1.1-3.3,2.6-5.1,4.9c-2,2.7-32.6,53.8-35.7,60.2H100c2.5,19.4,19.1,34.3,39.1,34.3c10.2,0,19.4-3.8,26.4-10.2
	c7,6.3,16.3,10.2,26.4,10.2c10.2,0,19.4-3.8,26.4-10.2c7,6.3,16.3,10.2,26.4,10.2c10.2,0,19.4-3.8,26.4-10.2
	c7,6.3,16.3,10.2,26.4,10.2c10.2,0,19.4-3.8,26.4-10.2c7,6.3,16.3,10.2,26.4,10.2c10.2,0,19.4-3.8,26.4-10.2
	c7,6.3,16.3,10.2,26.4,10.2c10.1,0,19.4-3.8,26.4-10.1c7,6.3,16.2,10.1,26.4,10.1c20,0,36.6-15,39.1-34.3h-38.7l-26.8-43.2
	c-3.1-4.9-11.2-8.5-12.4-10.5c-0.7-1.1-118.2-190.7-118.2-190.7c-0.9-1.4-2.4-2.3-4.1-2.4c-1.8-0.1-3.4,0.7-4.5,2.1
	s-16.3,26.6-30.6,50.5c-12.1,20.3-23.6,39.9-24.6,42.3c-0.9,2.2-1.6,4.6-1.5,7.2c0.4,8.4,7.5,15,15.9,14.6
	c6.1-0.3,11.5-4.3,13.3-9.2c2.1-5.6,11.1-38,12.9-47.3c3.5-6.7,15.6-33.7,21-46.6l78.4,126.5c-12.1-1.5-36.1-4-44.4-4.6
	c-6.4-3.5-24.2-12.2-34.1-16.5C296.4,248.3,295.5,253,294,257.2 M224.5,372.9c8.7-9.7,20.1-22.5,27.6-31.1
	c9-2.4,35.6-10.8,51.8-16.2c3.8,13.9,10,35.2,13.8,47.3H224.5z M298,236.5c-10.6,0-19.3-8.6-19.3-19.3c0-10.6,8.6-19.3,19.3-19.3
	c10.6,0,19.3,8.6,19.3,19.3C317.2,227.9,308.6,236.5,298,236.5"/>
</svg>
