<?xml version="1.0" encoding="utf-8"?>
<!-- Generator: Adobe Illustrator 23.0.3, SVG Export Plug-In . SVG Version: 6.00 Build 0)  -->
<svg version="1.1" id="Calque_1" xmlns="http://www.w3.org/2000/svg" xmlns:xlink="http://www.w3.org/1999/xlink" x="0px" y="0px"
	 viewBox="0 0 595.3 595.3" style="enable-background:new 0 0 595.3 595.3;" xml:space="preserve">
<path d="M371.3,277.6c-2.2,0-3.9-1.8-3.9-3.9V140.9c0-2.2,1.8-3.9,3.9-3.9c2.2,0,3.9,1.8,3.9,3.9v132.8
	C375.2,275.9,373.4,277.6,371.3,277.6 M173.9,349.9c0,2.2,1.8,3.9,3.9,3.9c2.2,0,3.9-1.8,3.9-3.9V212.7c0-2.2-1.8-3.9-3.9-3.9
	c-2.2,0-3.9,1.8-3.9,3.9V349.9z M292.5,314.5c11.6-3.2,18.5-15.3,15.3-26.9c-3.2-11.7-15.3-18.5-26.9-15.3
	c-11.7,3.2-18.5,15.3-15.3,26.9C268.8,310.9,280.9,317.8,292.5,314.5 M243.9,242.8c-0.5,0.3-0.9,0.5-1.4,0.9
	c-1.6,1.3-2.4,2.5-3.1,4.1c-1.8,3.6-19.5,47.4-20.1,49.5c-1,3.4-1.2,6.8-0.2,10.2c2.6,9.3,12.2,14.8,21.5,12.2
	c6.6-1.8,11.4-7.4,12.5-13.4c1.1-6,4.4-36.2,5.8-48.2c10.4-6.8,33.5-22.7,39.8-27.3l70.9,107.8c-6.9,2.3-32.5,11.4-44.2,15.7
	c-10-8.1-33.4-26.7-37.5-29.5c-0.8,3.4-1.9,7.9-4.1,15c-1.5,4.8-3.5,10-5.7,15c13.1,6.2,39.1,17.9,41.5,18.8c1.5,0.6,3,0.9,4.7,0.8
	c1.3-0.1,1.9-0.2,3.1-0.7c3-1.1,48-24.7,48.5-25.4c0,0,14.5,22.1,16.8,25.5c0.6,1,1.2,3,1.8,5.5l-254.4,30.6
	c8,10.7,20.8,17.7,35.3,17.7c11.3,0,21.7-4.3,29.5-11.3c7.8,7,18.1,11.3,29.5,11.3s21.7-4.3,29.5-11.3c7.8,7,18.1,11.3,29.5,11.3
	c11.3,0,21.7-4.3,29.5-11.3c7.8,7,18.1,11.3,29.5,11.3c14.2,0,26.7-6.7,34.8-17.1c0.5,0.2,1,0.4,1.6,0.7c10.5,4.2,23,5.8,34,4.8
	c16.7-1.5,30.8-8.2,40.9-17.6c8.8-8.3,14.1-19.2,15.6-29.3l-66.9,8c-6-3.7-11.9-6.7-13.2-8.6c-2.2-3.4-109.4-166.4-111.6-169.7
	c-2.2-3.4-3.3-19.6-9-28.2l-24-36.5c-3.5-5.4-7.6-7.8-16,2c-7.3,8.5-4.8,13.4-2.6,17.6c0.7,1.2,18.9,29.1,18.9,29.1
	c1.6,2.4,3,4.4,3.8,5.2c6.9,7.3,20.8,12.9,22.8,16c2.2,3.4,10.4,15.9,10.4,15.9C281.7,224.4,245.2,242,243.9,242.8"/>
</svg>
