<?xml version="1.0" encoding="utf-8"?>
<!-- Generator: Adobe Illustrator 23.0.3, SVG Export Plug-In . SVG Version: 6.00 Build 0)  -->
<svg version="1.1" id="Calque_1" xmlns="http://www.w3.org/2000/svg" xmlns:xlink="http://www.w3.org/1999/xlink" x="0px" y="0px"
	 viewBox="0 0 595.3 595.3" style="enable-background:new 0 0 595.3 595.3;" xml:space="preserve">
<path d="M236.2,234.6c1.2,3.9,56.6,153.9,57.7,156.6c0.9,2.4,3.4,4.2,6.1,4.2c3.6,0,6.6-3,6.6-6.6c0-0.4,0-0.8-0.1-1.2
	c-0.1-0.9-7-33.8-14.6-69.6c14.8-18.5,35.2-44.1,35.7-44.7c1.6-2,2.6-4.6,2.5-7.4c0-3.6-1.7-6.8-4.1-8.9c-1.7-1.5-51-42.1-56.9-46
	c-3.5-2.5-7.9-4.1-12.6-4.1c-11.8,0-21.3,9.5-21.3,21.3C235.2,230.3,235.6,232.6,236.2,234.6 M279.5,258.8c7,4,14.4,7.9,21.8,11.8
	c-4.5,7.1-9.7,15.4-14.5,23C284.2,281.2,281.7,269.1,279.5,258.8 M379.8,258.4c-3-2.7-29.6-22.7-40.5-30.6
	c-1.1-13-4.3-44.5-4.8-48.3c-0.1-1.3-0.5-2.7-1-4c-3.2-8.6-12.8-13-21.4-9.8c-8.2,3.1-12.5,12.1-10.1,20.2
	c1.6,6.2,14.6,45.2,16.6,51c1,2.9,3.1,5.3,5.8,6.5l31.8,15.1v24.3c0,0.7,0.2,1.5,0.4,2.1l8.4,19c-20.3,11.1-34.1,32.6-34.1,57.3
	c0,36,29.2,65.2,65.2,65.2s65.2-29.2,65.2-65.2c0-36-29.2-65.2-65.2-65.2c-7.5,0-14.8,1.3-21.5,3.6l-8-18v-14.4h21
	c6.1,0,8.3,2.4,8.3,5.5c0,3.1-2,5.8-8.3,5.8h-2.6c-2.8,0-5,1.9-5,4.6c0,2.8,2.2,4.8,5,4.8h3.8c13,0,17.1-8.1,17.1-14.3
	c0-7.9-5.8-15.3-18.3-15.3H379.8z M396.3,415.9c-30.2,0-54.7-24.5-54.7-54.7c0-20.4,11.2-38.2,27.9-47.6l22,49.8
	c0.9,2,2.8,3.1,4.8,3.1c0.7,0,1.4-0.1,2.1-0.5c2.7-1.2,3.9-4.3,2.7-6.9l-22-49.8c5.4-1.8,11.2-2.8,17.2-2.8
	c30.2,0,54.7,24.5,54.7,54.7S426.5,415.9,396.3,415.9 M203.4,295.9c-36,0-65.2,29.2-65.2,65.2c0,36,29.2,65.2,65.2,65.2
	c36,0,65.2-29.2,65.2-65.2C268.6,325.2,239.4,295.9,203.4,295.9 M203.4,415.9c-30.2,0-54.7-24.5-54.7-54.7s24.5-54.7,54.7-54.7
	c30.2,0,54.7,24.5,54.7,54.7S233.5,415.9,203.4,415.9 M365.2,182.5c-11.5,0-20.8-9.3-20.8-20.8s9.3-20.8,20.8-20.8
	c11.5,0,20.8,9.3,20.8,20.8S376.7,182.5,365.2,182.5"/>
</svg>
