<?xml version="1.0" encoding="utf-8"?>
<!-- Generator: Adobe Illustrator 23.0.3, SVG Export Plug-In . SVG Version: 6.00 Build 0)  -->
<svg version="1.1" id="Calque_1" xmlns="http://www.w3.org/2000/svg" xmlns:xlink="http://www.w3.org/1999/xlink" x="0px" y="0px"
	 viewBox="0 0 595.3 595.3" style="enable-background:new 0 0 595.3 595.3;" xml:space="preserve">
<path d="M415.4,216.8c1.4-1.7,4-0.6,3.9,1.5l-4.6,95c-0.1,1-0.3,1.8-1.4,2.2c-0.9,0.4-8.4,1.9-9.9,2.1c-1.4,0.1-2.3-0.8-2.7-1.8
	c-7.6-17.9-15-34-19.7-44.2c-14.4,6.5-29.3,20.7-35.1,60.2c18.6,3.8,36.1,7.6,40.6,9.3s7.2,5.3,7.4,10c0.3,6-1.3,42.5-2.2,50.6
	c-0.1,0.7-0.3,1.4-0.5,1.9c-0.2,0.6-0.7,1.3-1.2,1.8c-5.9,5.9-27,23.2-28.3,24c-1.3,0.9-2.7,0.5-3.2-0.7c-0.1-0.2-0.1-0.4-0.1-0.6
	v-17.3c0-2.4,0.8-3.9,2.7-5c0,0,10.5-5.5,16.8-8.7c-1-7.8-3.1-23.8-4.4-34.7c-6.6,0.1-36.1,0.3-41.4,0.3
	c-3.9,18.4-16.3,77.9-18,85.2c2,6,8.7,26.6,8.7,26.6c0.1,0.2,0.2,0.6,0.2,0.8c0.3,1.3-0.2,1.9-1.1,2.2c-0.3,0.1-0.6,0.1-1.1,0.1
	c-1,0-13.7-0.1-14.8-0.1c-0.3,0-0.6,0-0.9-0.1c-1.4-0.2-2.6-1.4-2.8-3.5c0-0.2,0-0.5,0-0.8l-0.1-110.8h-19.1
	c-80,0-115.1-26.6-132.5-80.5h71.7c-4.4-8.4-3.9-17.4-2.8-23.6c15.4,2.3,24.6,4.2,28.6,6.3c0.5,0.2,1.4,0.8,2.1,1.2
	c5.6,3.6,18.1,13,22.4,16.1h15.8c1.9-3.3,4.1-6.8,6.6-10.4c-15.5-6.2-36.6-15.2-38.2-16c-0.4-0.2-0.9-0.5-1.6-0.9
	c-0.3-0.2-0.7-0.5-1-0.7c-7.1-6.1-26.3-30-29.5-34.7c-1-1.4-1.8-3-2.3-4.6c-1-3.6-0.5-7.5,1.4-11.1c4-7.2,13-9.9,20.3-6
	c2.2,1.2,3.4,2.4,4.8,4.3c1.9,2.6,16.3,28.1,20.4,36.2c7.1,4.4,22.7,15.3,33.8,23.2c3.6-3.9,7.6-7.7,12.1-11.2
	c27.4-21,57.6-23.1,81.3-16.3c0.5,0.2,2,0.6,3,1L415.4,216.8 M261.1,161.2h-6.7v-19h-35.5v19h-7.4v7.4h49.6V161.2z"/>
</svg>
