<?xml version="1.0" encoding="utf-8"?>
<!-- Generator: Adobe Illustrator 23.0.3, SVG Export Plug-In . SVG Version: 6.00 Build 0)  -->
<svg version="1.1" id="Calque_1" xmlns="http://www.w3.org/2000/svg" xmlns:xlink="http://www.w3.org/1999/xlink" x="0px" y="0px"
	 viewBox="0 0 595.3 595.3" style="enable-background:new 0 0 595.3 595.3;" xml:space="preserve">
<path d="M383,388.3c5.9,0,10.7,4.8,10.7,10.7c0,5.9-4.8,10.7-10.7,10.7c-5.9,0-10.7-4.8-10.7-10.7C372.2,393.1,377,388.3,383,388.3
	 M383,422.3c-5.9,0-10.7,4.8-10.7,10.7c0,5.9,4.8,10.7,10.7,10.7c5.9,0,10.7-4.8,10.7-10.7C393.7,427.1,388.9,422.3,383,422.3
	 M278,189.9l14.2,0c0,2.6-0.1,5.1-0.1,7.2c0,3.7,0.6,6.5,2.5,9.2c0.8,1.2,3.8,4.4,5.4,5.8l4.4-4.1c0,0-4.2-3.9-5.5-6
	c-0.6-1-0.9-2.8-0.9-5c0-2.2,0.1-4.8,0.1-7.2l25.1-0.1c0.5,0,0.6-0.7,0.2-1c-4.1-3.1-8.2-6.1-8.2-6.1s-1.3-19.5-19.7-18.9
	c-17.9,0.6-19.1,15.2-18.5,25.3C277.2,189.5,277.5,189.9,278,189.9 M422,273.2l-34.1-92c-0.8-2-3.7-2-4.3,0.2l-7.5,23.5
	c-13.1-1-40.4,2.2-64.5,22.7c-10.5,8.9-18.5,20.3-24.4,30.8c-8.4-3.3-20.1-7.7-29.9-11.2c7-8.1,16.7-19.5,18.5-22.2
	c1.3-1.9,2.1-4,2.4-6.2c1.2-8.4-4.6-16.2-13-17.5c-6-0.9-11,1.4-14.9,6.4c-3.9,5.1-21.8,36.8-23,40.9c-0.5,1.4-0.7,2.9-0.6,4.4
	c0.3,5,3.7,9,8.5,10.1c4.8,1.1,28.6,4.4,46.1,6.7c-2,4.4-3.6,8.1-4.6,10.9l-34.9,15.9l-32.4-46.6c0,0-11.9,4.3-17.6,14.7
	c-2.2,4.1-3.6,9.1-2.7,15.2c0.6,4.1,2.2,7.3,4.8,10.2c2.4,2.7,11.1,10.3,21.3,18.6l-74,34.3c22.1,23.9,50,31.4,80.8,32.8
	c28.1,1.2,48.4-3.2,81.9-17c3.2-1.3,49.7-21.8,70.3-31.1c-1.3,9.3-2.8,19.4-3.6,25.2l-19,3.5c-0.4,0.1-0.7,0.2-1,0.3
	c-1.3,0.5-2.2,1.4-2.8,2.6c-0.2,0.4-0.3,0.7-0.4,1.1l-5.3,18c0,0.1-0.1,0.3-0.1,0.4c-0.1,1.2,1.1,2,2.2,1.8c0.2,0,0.4-0.1,0.5-0.2
	c0,0,31.4-13.7,34.5-15.3c1.1-0.6,1.9-1.1,2.4-1.7c0.7-0.7,1.1-1.5,1.5-2.4c2.4-5.7,14.2-42.5,15.6-47.8c0.5-1.7,0.9-3.8,0.6-5.9
	c-0.7-5.7-5.3-8.9-9.4-9.5c-0.2,0-1.7-0.2-4,0.1c-8.1,1.1-28.1,4.9-41.9,8.4c4.8-34.4,16.5-49.4,29.4-59
	c8.7,7.7,22.1,19.9,36.4,33.7c0.8,0.8,2,1.3,3.3,0.6c1.4-0.8,7.8-5.2,8.5-6C422.4,275,422.3,274.2,422,273.2"/>
</svg>
