<?xml version="1.0" encoding="utf-8"?>
<!-- Generator: Adobe Illustrator 23.0.3, SVG Export Plug-In . SVG Version: 6.00 Build 0)  -->
<svg version="1.1" id="Calque_1" xmlns="http://www.w3.org/2000/svg" xmlns:xlink="http://www.w3.org/1999/xlink" x="0px" y="0px"
	 viewBox="0 0 595.3 595.3" style="enable-background:new 0 0 595.3 595.3;" xml:space="preserve">
<path d="M469.1,424.4c5.4,5.6,13,9,21.4,9v17.2H104.8v-17.2c8.4,0,16-3.5,21.4-9c5.5,5.6,13,9,21.4,9c8.4,0,16-3.5,21.5-9
	c5.4,5.6,13,9,21.4,9c8.4,0,16-3.5,21.4-9c5.4,5.6,13,9,21.4,9c8.4,0,16-3.5,21.4-9c5.5,5.6,13,9,21.4,9c8.4,0,16-3.5,21.4-9
	c5.5,5.6,13,9,21.4,9c8.4,0,16-3.5,21.4-9c5.4,5.6,13,9,21.4,9c2.2,0,4.3-0.2,6.4-0.7c-0.8-5.1-1.8-12.2-2.3-15.8
	c-4-5.6-19.8-27.5-25.9-36.5c-7.8-3.2-76.9-33-80.3-34.5c-71.3-31.3-93.2-72.8-86.4-129l63.4,29.3c-2.6-7.1-1.6-12.9,0.9-18.2
	c15.8,2.8,23.7,3.6,28.8,7.3c0,0,1.5,1,2.7,2.5c0.3,0.4,28.2,34.5,28.2,34.5c3.9-1.7,8.9-3.5,14.7-5.2
	c-11.5-10.5-29.8-27.7-33.1-30.7c-1-0.9-3.8-3.8-7.3-7.5c-7.8-8.2-19.8-21-23.2-25.9c-3.4-4.9-4.1-10.4-1.5-15.7
	c3.7-7.4,12.7-10.5,20.1-6.8c2,1,3.5,2.1,4.9,3.9c2.8,3.4,20.1,32.1,23,37.6c5.6,6.9,22.2,30.9,29.7,42.2c8.5-1.4,18-2,27.9-0.8
	c24.4,2.9,41.7,11.9,51.9,19.1l9-19.2c0.8-2,3.7-1.7,4.1,0.3l21.2,92.7c0.2,1,0.1,1.8-0.7,2.5c-0.8,0.6-7.5,4.1-8.9,4.7
	c-1.3,0.5-2.4-0.1-3.1-1c-17.7-21.7-34-40.8-38.1-45.5c-12.2-0.3-34.2-1.7-66.2,22.6c15.2,10.7,29.3,21.3,30.5,22.2
	c0.9,0.7,2.1,1.8,2.9,2.8c0.9,1.1,1.5,2.3,2.2,3.4c1.7,2.9,19.6,40.3,21,43.6c1.4,3.2,3,7.4,5.3,13.1c5.4,5.3,12.8,8.6,20.9,8.6
	c8.4,0,16-3.5,21.5-9c5.4,5.6,13,9,21.4,9C456,433.4,463.6,429.9,469.1,424.4 M240.3,146.8l13.5,2.8c-0.5,2.4-1.1,4.8-1.5,6.9
	c-0.8,3.5-0.7,6.3,0.6,9.3c0.6,1.3,2.7,4.9,3.9,6.6l5-3c0,0-3.3-4.5-4-6.8c-0.4-1.1-0.3-2.8,0.1-4.9c0.5-2.1,1-4.5,1.5-6.8l23.9,4.9
	c0.5,0.1,0.7-0.5,0.4-0.9c-3.3-3.8-6.6-7.5-6.6-7.5s2.6-18.8-15-21.9c-17.1-3-21.1,10.7-22.5,20.3
	C239.7,146.2,239.9,146.7,240.3,146.8"/>
</svg>
