<?xml version="1.0" encoding="utf-8"?>
<!-- Generator: Adobe Illustrator 23.0.3, SVG Export Plug-In . SVG Version: 6.00 Build 0)  -->
<svg version="1.1" id="Calque_1" xmlns="http://www.w3.org/2000/svg" xmlns:xlink="http://www.w3.org/1999/xlink" x="0px" y="0px"
	 viewBox="0 0 595.3 595.3" style="enable-background:new 0 0 595.3 595.3;" xml:space="preserve">
<path d="M391.1,339.6l-8.8-92.3c-0.1-1.4-0.7-2.7-1.6-3.8l-89.2-106.2L269,66.9l-13.1,4.2l21.9,68.4c-3,4.6-31.3,49.1-36.1,57.3
	c-4,4-16.1,16.2-25.4,26c12.6-5.1,29.7-11.2,41.4-15c1.5-2.6,7.9-20.4,13.1-34.5c-2.8,14.3-5.9,30.1-7.4,39.9
	c-14.4,4.7-42.6,14.7-54.7,20.4c-3.5,1.7-6.3,4.5-8,8.2c-3.6,8.3,0.1,18,8.5,21.6c4.2,1.8,8.6,1.7,13,0.1c3.7-1.4,50.1-28.7,55.7-32
	c3.8-2.2,5.9-5.4,6.1-8.8c0.3-2.7,3.7-44.2,5.5-66.2l79.2,94.4l4.6,48.8c-0.4-0.4-0.8-0.8-1.2-1.1c-2.1-1.5-70.5-47.9-73.1-49.6
	c-1.6-1-4.1-1.9-6.5-2c-5.3-0.2-9.8,2.7-12.3,7c-1.9,3.3-35.5,66.7-37.4,70.3c-1.8,3.5-2.7,7-2.6,10.9c0.1,10.4,7,19,16.8,21.7
	c10.9,3,62.8,14.7,82.4,18.5c25.6,13.8,68.4,34.8,80.9,40.2c1,0.4,2.1,0.6,3.2,0.6c4-0.1,7.2-3.1,7.7-6.9l36.3,43.5l10.5-8.8
	L391.1,339.6z M351.5,351.2c-0.5-0.4-1.1-0.7-1.7-0.9l-63.1-28c5-14.4,9.4-28.3,13.8-42.8c25.7,13.1,59.1,29.7,64.5,32
	c1.2,0.5,1.9,0.6,2.8,0.7c2.8,0.1,5.2-1.3,6.6-3.5l3.3,34.4c0.1,1.4,0.7,2.7,1.6,3.8l42.2,50.5L351.5,351.2z M215.4,199.9
	c0,13.3-10.8,24-24,24c-13.3,0-24-10.8-24-24c0-13.3,10.8-24,24-24C204.6,175.9,215.4,186.6,215.4,199.9"/>
</svg>
