<?xml version="1.0" encoding="utf-8"?>
<!-- Generator: Adobe Illustrator 23.0.3, SVG Export Plug-In . SVG Version: 6.00 Build 0)  -->
<svg version="1.1" id="Calque_1" xmlns="http://www.w3.org/2000/svg" xmlns:xlink="http://www.w3.org/1999/xlink" x="0px" y="0px"
	 viewBox="0 0 595.3 595.3" style="enable-background:new 0 0 595.3 595.3;" xml:space="preserve">
<path d="M274.4,215c-0.9,8.4,0.2,19.1,2.5,30.6l-111.1-10.3l0,6.2c-3.9,0-7.7-2-9.8-5.6c-0.5-0.8-0.8-1.7-1.1-2.5H26.7
	c-1.6,0-3-1.3-3-3c0-1.6,1.3-3,3-3H155c0.7-2.8,2.6-5.3,5.3-6.9c1.8-1,3.7-1.5,5.6-1.5l0,6.2L274.4,215z M309.8,155.2
	c0,0-8.5-2.3-18.6-2.3v47l18.6-7.4V155.2z M309.4,226.8c0.5,6.9,4.9,12.6,10.9,15.1c10.2,4.3,63.1,22.9,63.9,23.1
	c12.4,7,53.7,30.1,59.9,33.4c1.3,0.8,2.9,1.1,4.5,0.8c3.6-0.7,6-4.2,5.3-7.8c-0.3-1.5-1-2.8-2.1-3.7c-5-4.5-52.6-40.2-57.8-43
	c-9.2-6.1-52.9-32.2-59.2-35.3c-2.7-1.3-5.8-1.9-9-1.7C316,208.5,308.6,217,309.4,226.8 M284.4,200.9v-47.7
	c-15,1.9-18.9,11.8-18.9,23.9C265.6,189.1,269.4,199,284.4,200.9 M327.7,285.1c-5.9-1.7-14-0.9-17.5-0.2
	c-9.3,1.6-61.8,20.4-74.3,24.9c-4.1,1.7-6.9,5.8-7.8,10.2c-5,33.1-9.3,67.3-12.6,100.8c-0.1,1.2,0.1,2.4,0.6,3.6
	c1.7,3.5,5.9,4.9,9.3,3.3c1.7-0.8,3-2.3,3.6-4c1.2-3.5,17.5-61.3,24.4-87.2c16.3-1.2,45.4-4.1,62-7.1l141.2,97.7
	c1.2,0.8,2.7,1.3,4.2,1.3c3.9-0.1,6.9-3.4,6.7-7.3c-0.1-1.8-0.9-3.5-2.1-4.7L337.8,290.8c-1.4-1.3-2.9-2.5-4.7-3.5
	C331.6,286.4,329.4,285.5,327.7,285.1"/>
</svg>
