<?xml version="1.0" encoding="utf-8"?>
<!-- Generator: Adobe Illustrator 23.0.3, SVG Export Plug-In . SVG Version: 6.00 Build 0)  -->
<svg version="1.1" id="Calque_1" xmlns="http://www.w3.org/2000/svg" xmlns:xlink="http://www.w3.org/1999/xlink" x="0px" y="0px"
	 viewBox="0 0 595.3 595.3" style="enable-background:new 0 0 595.3 595.3;" xml:space="preserve">
<path d="M448.1,243.4c1.3,0.4,2.5,1.3,3.3,2.6c1.8,2.9,1,6.8-2,8.7c-1.3,0.8-2.7,1.1-4.1,0.9c-3.8-0.6-60.8-10.2-69.5-12.9
	c-0.1,0-0.3-0.1-0.3-0.1c-5.9-1.9-21.7-9.3-36.1-16.5c4-11.2,5.6-24.8,5.5-35.6c13.3,10.8,34.1,28.1,39.5,32.6
	C393.8,226,443.8,242.1,448.1,243.4 M331.5,174.9c13.1,4,27-3.3,31-16.4c4-13.1-3.3-27-16.4-31c-13.1-4-27,3.3-31,16.4
	C311.1,157,318.4,170.9,331.5,174.9 M346.5,393.5c-13.6,0-24.6,11-24.6,24.6c0,13.6,11,24.6,24.6,24.6c13.6,0,24.6-11,24.6-24.6
	C371.1,404.5,360.1,393.5,346.5,393.5 M172.2,251.1c1.6,0.4,2.9,0.2,4.5-0.5c7.1-2.9,63.4-30.7,63.4-30.7s51.9-7.5,60-9.5
	c8.1-2,14.3-7.1,16.1-15.2c2.3-10.6-4.4-21-15-23.3c-4.1-0.9-8.2-0.1-11.8,1.1c-3.6,1.2-57.5,24.6-57.5,24.6c-0.7,0.3-1.4,0.7-2,1.1
	l-59.8,40.5c-1.3,0.9-2.3,2.2-2.7,3.8C166.5,246.7,168.6,250.2,172.2,251.1 M305.5,258.4c-8.5-2-17.7,0.9-23.4,8.2
	c-1.2,1.6-2.3,3.3-3.3,5.3c-5.9,11.6-20.5,45-26.2,61.6c-5-0.8-92.7-14.1-95.1-14.2c-2.4-0.1-4,0.1-5.7,1.2
	c-3.8,2.5-4.9,7.6-2.4,11.4c1.2,1.8,2.9,2.9,4.8,3.4l103.6,28c5.8,1.6,12-0.6,15.5-5.5l33.5-46.9c11.2,10.4,24.6,21,39.3,31.6
	l56.7,91.9c1.1,1.8,3,3.2,5.3,3.5c4.1,0.6,7.8-2.3,8.4-6.3c0.2-1.5,0-3-0.6-4.2l-47.5-99.5c-0.5-1-1-1.9-1.7-2.7
	c0,0-44.8-55.7-48.6-59.3C313.2,261.4,309.9,259.5,305.5,258.4"/>
</svg>
