<?xml version="1.0" encoding="utf-8"?>
<!-- Generator: Adobe Illustrator 23.0.3, SVG Export Plug-In . SVG Version: 6.00 Build 0)  -->
<svg version="1.1" id="Calque_1" xmlns="http://www.w3.org/2000/svg" xmlns:xlink="http://www.w3.org/1999/xlink" x="0px" y="0px"
	 viewBox="0 0 595.3 595.3" style="enable-background:new 0 0 595.3 595.3;" xml:space="preserve">
<path d="M421.4,337.4c-0.9,1-1.2,1.3-3.2,2.2c-6.6,2.8-88.7,29.4-88.7,29.4c-1.9,0.6-4.2,1.3-6.7,1.7c0,0-50.4,9.2-68.4,12.4
	c-11.5,7.4-34.3,21.8-51.1,32.3c27,17.8,66.4,44,73.2,49.2c1.9,1.3,3.2,3.3,3.5,5.8c0.5,4.4-2.7,8.4-7.1,8.8
	c-1.5,0.2-3.1-0.2-4.2-0.7c-7.7-3.5-99-50.3-99-50.3c-1.7-0.8-3.3-2-4.6-3.5c-5.3-6-4.6-15.2,1.4-20.5c0,0,60.3-54.5,69.7-60
	c2-1.1,4.3-2,6.7-2.4c1-0.2,2-0.3,3-0.3c16.4-0.8,64.9,1.1,76.1,1.5c9-1.9,87.4-17.4,93.1-17.9c1.9-0.1,3.9,0.4,5.5,1.8
	C423.7,329.4,424.1,334.2,421.4,337.4 M449.1,187.6c-26.5-40.5-67.8-60.2-97.8-69.5C319,108,299.8,108,289.8,107.4
	c0,0-55.6,91.8-59.8,99.2c-1.7,3.1-2.5,5.9-2.5,8.2c0,7.3-0.5,30.4-0.7,45.4c1.7-0.5,3.4-1,5.2-1.3c9.4-1.6,17.2-1.5,23.4-0.1
	c-2.5-12.8-7.1-34.6-9.1-44.2c4.6-10.4,20.3-45.5,23-52.4c0.4-1,0.4-2.2,0.1-3.3c-0.1-0.4-0.2-0.7-0.4-1l25.3-42.1
	c15.5,0.9,103.6,8.8,147.8,76.3c27.7,42.3,36.3,95.4,23.8,145.8c-11.1,44.7-37.2,81.1-71.5,100c-2,1.1-2.7,3.6-1.6,5.6
	c0.8,1.4,2.2,2.1,3.6,2.1c0.7,0,1.4-0.2,2-0.5c36.3-20,63.8-58.3,75.5-105.2C487.1,287.3,478,231.8,449.1,187.6 M309.9,268.5
	c1.6-12.3-7-23.5-19.3-25.2c-12.3-1.6-23.5,7-25.2,19.3c-1.6,12.3,7,23.5,19.3,25.2C297,289.4,308.3,280.8,309.9,268.5 M240.3,304.6
	c2.6,0.1,5.4-0.4,7.9-1.6c7.9-3.9,11.2-13.5,7.3-21.4c-2.8-5.7-8.5-8.9-14.4-8.9c-9.4,0-36.4,3.2-60.1,5.6l-65.8-2.7
	c-1.5,0-3,0.4-4.2,1.4c-2.4,2.1-2.6,5.7-0.5,8.1c0.8,0.9,1.7,1.5,3.5,1.8c2.1,0.4,65.3,9.8,65.3,9.8S235,304.5,240.3,304.6"/>
</svg>
