<?xml version="1.0" encoding="utf-8"?>
<!-- Generator: Adobe Illustrator 23.0.3, SVG Export Plug-In . SVG Version: 6.00 Build 0)  -->
<svg version="1.1" id="Calque_1" xmlns="http://www.w3.org/2000/svg" xmlns:xlink="http://www.w3.org/1999/xlink" x="0px" y="0px"
	 viewBox="0 0 595.3 595.3" style="enable-background:new 0 0 595.3 595.3;" xml:space="preserve">
<path d="M311.5,369.8c2.2,11.2,10.7,59.2,10.6,63.6h161.4v13.7H112.6v-13.7h166c-1-4.7-7.7-55.6-8.3-64.7
	c-0.5-7.1,6.9-56.8,8.2-62.8c2.4-10,12.3-16.4,22.5-14.4c10.5,2.1,17.3,12.2,15.3,22.7c-0.1,0.5-0.2,0.9-0.5,2
	c-2.2,7-18.7,43-24.4,55.2c-0.2,11.8-0.8,57.5-1,62h19.6L298,395.9c0.1-9,0.2-17.6,0.3-22.8c4.7-10.2,11.1-24,16.1-35.4L311.5,369.8
	 M356.8,359c10.4-7.4,12.9-21.8,5.5-32.2c-7.4-10.4-21.8-12.9-32.2-5.6c-10.4,7.3-12.9,21.8-5.6,32.2
	C332,363.9,346.4,366.3,356.8,359 M489.7,207c-1.3-1.4-3.1-2.2-4.8-2.2c-8-0.3-83.4,2.1-95.6,3c-29.2-1.2-67.4-0.7-77.1-0.6
	c-9.2-2.8-50.2-14.7-74.7-20.6c-33.5-12.5-94.2-30.2-95.4-30.5c-2.4-0.6-5-0.2-7,1.6c-2.9,2.8-3,7.4-0.3,10.4c0.6,0.6,1.3,1.1,2,1.5
	c1.9,1,164,75.8,164,75.8c3.4,1.6,7.2,2.2,11,1.7c2.7-0.2,171.1-27.6,174.6-28.6c1.1-0.3,2.1-0.8,3-1.6
	C492.3,214.3,492.4,209.8,489.7,207"/>
</svg>
