<?xml version="1.0" encoding="utf-8"?>
<!-- Generator: Adobe Illustrator 23.0.3, SVG Export Plug-In . SVG Version: 6.00 Build 0)  -->
<svg version="1.1" id="Calque_1" xmlns="http://www.w3.org/2000/svg" xmlns:xlink="http://www.w3.org/1999/xlink" x="0px" y="0px"
	 viewBox="0 0 595.3 595.3" style="enable-background:new 0 0 595.3 595.3;" xml:space="preserve">
<path d="M327.5,183.8c3.4,0,6.5-0.3,9.5-0.8c0.1,8,0.1,14.2,0.1,16.2c0.5,5.7,3.9,50.1,3.8,55.9c0,2.7-0.4,5.4-1.6,8
	c-4.1,9.4-15.1,13.7-24.5,9.5c-7.6-3.4-11.7-11-11-19.1c0.4-4.3,8.3-49,9.5-55.4c0.2-2.3,0.8-8.3,1.5-16
	C318.9,183.2,323.2,183.8,327.5,183.8 M349,237.3c0,11.7,9.5,21.2,21.2,21.2c11.7,0,21.2-9.5,21.2-21.2c0-11.7-9.5-21.2-21.2-21.2
	C358.5,216.1,349,225.6,349,237.3 M373.3,474.5c0,4.7,3.7,8.4,8.1,8.4c4.1,0,7.5-3.1,8.2-6.9l14.6-91.1c0.1-0.7,0.2-1.3,0.2-2
	c0-5.1-2.7-9.6-6.9-12C378.3,360,330,331.5,325,329.2c-3.2-1.5-6.5-2.3-10-2.3c-7.4,0-13.2,3.3-18.2,9.4
	c-4.1,5.2-32.4,54.6-41.7,70.6c-15,13.4-65.8,60.7-67.5,62.6c-3.2,3.6-3.2,8.6,0.1,11.9c3,3,7.7,3.2,11.1,0.9l76.2-54.8
	c0.4-0.3,0.9-0.7,1.3-1.1c0.2-0.2,0.6-0.7,0.8-0.9c11.1-11.7,34.2-37.6,47.1-52.6c15.3,5.8,37.9,14.2,52.1,19.3
	C375,416.2,373.4,466,373.3,474.5 M327.6,176.9c-25.2-0.2-45.4-20.8-45.2-45.9c0.2-25.2,20.8-45.4,45.9-45.2
	c25.2,0.2,45.4,20.8,45.2,45.9C373.3,156.9,352.8,177.1,327.6,176.9 M328,124.3c-3.9,0-7.1,3.1-7.2,7c0,3.9,3.1,7.1,7,7.2
	c3.9,0,7.1-3.1,7.2-7C335.1,127.5,331.9,124.3,328,124.3"/>
</svg>
