<?xml version="1.0" encoding="utf-8"?>
<!-- Generator: Adobe Illustrator 23.0.3, SVG Export Plug-In . SVG Version: 6.00 Build 0)  -->
<svg version="1.1" id="Calque_1" xmlns="http://www.w3.org/2000/svg" xmlns:xlink="http://www.w3.org/1999/xlink" x="0px" y="0px"
	 viewBox="0 0 595.3 595.3" style="enable-background:new 0 0 595.3 595.3;" xml:space="preserve">
<path d="M479.7,251.1c-7,1.6-45.9,9.5-63.9,12.2c-0.7,0.1-1.4,0.1-2.2,0.1c-0.5,0-0.9-0.1-1.4-0.2c-0.5-0.1-23.5-4.1-42.7-8.6
	c2.1-12.7,2-24.1-0.1-32.8c20.2,9.1,40,17.3,46.3,19.8c14-1.2,50.1-3.7,61.8-3.9c4.4-0.1,7.2,3.3,7.1,7
	C484.5,247.8,482.3,250.3,479.7,251.1 M301.4,242.1c7.7,1.9,16-1.3,20.3-8.4c5.3-8.7,2.6-20.2-6.2-25.5c-2.7-1.6-5.7-2.5-8.6-2.7
	c-14.7-0.9-35-1.4-48.1-1.3c-2.9-19.5-7.5-44.6-10.1-58.6c10.3,0.2,19.4-7.1,21.1-17.6c1.9-11.5-5.9-22.4-17.4-24.3
	c-11.5-1.9-22.4,5.8-24.2,17.3c-0.9,5.6,0.5,11.1,3.5,15.4c-0.1,0.4,0,0.8,0,1.3c0,0,2.9,59.1,5.1,79.8c0.5,4.9,3.8,8.9,8.9,10.4
	C251.1,229.4,282.9,238.1,301.4,242.1 M342.7,204.4c13.3,1.1,25-8.9,26.1-22.2c1.1-13.3-8.9-25-22.2-26.1
	c-13.3-1.1-25,8.9-26.1,22.2C319.4,191.7,329.4,203.4,342.7,204.4 M308.8,307.8c3.6-7.8,12.1-13.9,21.8-14
	c8.9-0.1,16.4,4.7,20.8,11.5c8.8,12.7,49.3,84.7,51.3,89.5c1.2,2.5,1.6,5.7,0.9,8.7c-1.5,6.1-6.4,9.6-13.2,10.2l-96.5,5.8
	c-23.5,10.1-98.9,38.5-103.2,40.1c-1.4,0.5-2.9,0.7-4.4,0.5c-4.6-0.7-7.8-4.9-7.1-9.5c0.4-2.7,2-4.7,4.3-6.2
	c1.4-0.9,65.3-37.3,93.9-52.2C282.5,376.6,297.2,333.2,308.8,307.8 M337.2,354.6c-9.3,16.8-17.5,31.2-23.8,42.2
	c15.6-2.4,33.7-5.1,50.5-7.7C355.2,378.3,346.7,367.2,337.2,354.6"/>
</svg>
