<?xml version="1.0" encoding="utf-8"?>
<!-- Generator: Adobe Illustrator 23.0.3, SVG Export Plug-In . SVG Version: 6.00 Build 0)  -->
<svg version="1.1" id="Calque_1" xmlns="http://www.w3.org/2000/svg" xmlns:xlink="http://www.w3.org/1999/xlink" x="0px" y="0px"
	 viewBox="0 0 595.3 595.3" style="enable-background:new 0 0 595.3 595.3;" xml:space="preserve">
<path d="M185.4,421.1c5.9,0,10.7,4.8,10.7,10.7c0,5.9-4.8,10.7-10.7,10.7c-5.9,0-10.7-4.8-10.7-10.7
	C174.7,425.9,179.5,421.1,185.4,421.1 M278.8,180.4c12.6,0,22.8-10.2,22.8-22.8c0-12.6-10.2-22.8-22.8-22.8
	c-12.6,0-22.8,10.2-22.8,22.8C256,170.2,266.2,180.4,278.8,180.4 M381.5,274.5c-0.4-6.5-3.7-12-9.2-15.7c-9.6-6.5-22.6-4-29.1,5.5
	c-7.5,9.5-49,66.6-49,66.6c-1,1.4-1.6,2.9-2,4.5l-29.5,105.8c-0.4,1.5-0.5,3.1,0,4.6c1.3,4.4,5.9,7,10.3,5.7c2.2-0.6,4-2.1,5-4.1
	c2.5-3.5,33.4-78.5,41.4-99.2c5.9-5.1,17.8-15.6,29.6-27.3c3.7,16.8,7.1,32.2,7.1,32.2c1.8,7,8.3,11.5,15.3,11.1
	c10.5-0.2,97.3-2.1,99.3-2.1c1.6,0.1,3.2-0.3,4.6-1.3c3.7-2.4,4.8-7.3,2.4-11c-1.2-1.8-3.1-3-5.1-3.5c-5.7-0.9-61-7.5-88.1-10.3
	C383.5,317.7,381.9,285.3,381.5,274.5 M259.6,305.5c-0.1,0.3-0.1,0.6-0.1,1c0,0-84,69.7-88.4,73.3c-2.2,1.8-4.3,2.6-5.9,2.4
	c-0.9-0.1-1.6-0.5-2.1-1.2c-1.5-2.1,0.9-4.6,2-5.7c2.5-2.4,2.6-5.9,0.9-7.9c-1.9-2.2-5.6-2.5-8.1-0.5c-8.1,6.6-7.4,15.2-3.6,20.4
	c2.3,3.2,5.8,5.2,9.7,5.6c1.1,0.1,2.1,0.1,3.2,0c3.7-0.3,9-3.1,12.3-5.9c7.1-6,183.5-155.6,191.2-162c1.6-1.5,2.8-3.6,3.1-5.9
	c0.4-2.5-0.3-5-1.6-7c-6.2-8.8-35.1-37.9-43.8-43.4c-2-1.3-4.4-2.2-6.9-2.5c-9.6-1.4-18.4,5.3-19.8,14.8c-0.9,6.4,1.8,12.6,6.6,16.3
	c5.2,4.4,25.6,15.6,39.2,23c-13.5,14.4-39,41.5-43.2,46.1c-0.8,0.9-1.4,2.2-1.4,3.5c0,0.1,0,0.3,0,0.4c-5,4.2-13.7,11.5-22.6,18.8
	c8.3-16.7,18.8-38.1,20.7-43.8c0.9-2.4,1.8-7.7,2.1-13.5c-14.4-12-21.9-22.7-25.1-32.1c0,12,1.8,33.7,2.7,41.8
	C277,251.4,261.2,299,259.6,305.5"/>
</svg>
