<?xml version="1.0" encoding="utf-8"?>
<!-- Generator: Adobe Illustrator 23.0.3, SVG Export Plug-In . SVG Version: 6.00 Build 0)  -->
<svg version="1.1" id="Calque_1" xmlns="http://www.w3.org/2000/svg" xmlns:xlink="http://www.w3.org/1999/xlink" x="0px" y="0px"
	 viewBox="0 0 595.3 595.3" style="enable-background:new 0 0 595.3 595.3;" xml:space="preserve">
<path d="M423.1,454.2c0.5,1.5-0.3,3.2-1.8,3.9c-0.4,0.2-1.1,0.3-1.9,0.3l-25.6,0c-0.5,0-1-0.1-1.2-0.1c-0.9-0.3-1.6-0.9-2-1.8
	c-0.7-1.6,0.1-3.5,1.7-4.1c0.2-0.1,0.5-0.2,0.7-0.2c0.3-0.1,14.9-3.3,14.9-3.3l-43.4-79.5l-53.7,27.6l-21,46.8l-12.3-4.1
	c0,0-6.8,16-7.4,16.9c-0.6,0.9-1.1,1.3-2,1.6c-0.4,0.1-0.8,0.2-1.2,0.2h-28.9c-0.5,0-0.8-0.1-1.1-0.1c-1-0.3-1.8-1-2.2-2
	c-0.7-1.8,0.1-3.8,1.9-4.6c0.2-0.1,0.3-0.1,0.6-0.2c0.2-0.1,23.7-5.3,23.7-5.3l18.8-66.6c1.1-4.4,3.8-8.2,7.4-10.7l89.4-61.7
	l25.6,15.8l-10.8,10.3l36.8,100.2l-10.6,5.1C417.2,438.7,422.6,452.7,423.1,454.2 M301.8,118.9c-0.1,0-23.6,2.1-24.8,2.3
	c-1.1,0.1-2,0.5-2.6,1.9c-0.6,1.4-5.1,15.2-5.1,15.2l-11-2.6l-14.9,43.3l-32.6,26.3l-10.1-7.1l-12.6,22.4l42.1,36
	c0,0,52.3-8.5,56-9.2c2.1-0.4,3.9-1.1,5.6-2c1.4-0.8,2.7-1.7,4-2.9c2.9-2.6,52.9-48.1,52.9-48.1s21.4,7.4,21.8,7.6
	c0.4,0.1,0.8,0.2,1,0.3c1.9,0.3,3.6-0.9,3.9-2.8c0.2-1.3-0.3-2.6-1.5-3.3c-0.3-0.2-0.6-0.4-0.6-0.4s-22.8-14.1-23.6-14.6
	c-1-0.6-2.6-0.7-3.8,0.1c-0.7,0.5-14.4,10-14.4,10l-8.1-9.7l-45.7,31.4l-23.7,0.8c0,0,11.3-11.7,13.9-14.5c1.2-1.4,2.1-2.6,2.7-4
	c0.7-1.4,1.2-2.9,1.5-4.8c0.7-3.6,11.2-59.4,11.2-59.4s15.8-5.1,19.8-6.3c0.6-0.2,0.8-0.3,1-0.4c1.3-0.8,2-2.5,1.2-4
	c-0.6-1.1-1.6-1.5-2.4-1.6C302.7,118.8,302.2,118.8,301.8,118.9 M366.1,300.9l-56.7-35c-3.2-2-7-3-11-2.9
	c-7.6,0.3-13.9,4.7-17.1,11.1l-19.6,39.5l-32.2,26.1L215,317.3c-1.4-2.1-3.4-3.8-5.7-4.9l-4.1-1.9l15.5-47.8l-37.9-32.4l-39.9,71.2
	c-2.6,4.6-3.4,10.3-1.5,15.8c2.4,7,8.4,11.7,15.2,12.8L197,337c0,0,30.6,35.5,31.8,36.7c1.1,1.2,2.8,2.1,4.6,1.9
	c2.9-0.3,5.1-2.8,4.8-5.8c-0.1-0.8-0.3-1.5-0.8-2.3c-0.5-0.9-7.8-13.1-7.8-13.1l12.1-7l4.4,6.8c0,0,32.9-19.7,33.8-20.3
	c1-0.6,2.3-1.6,3.2-2.7c0.7-0.8,13.1-15,13.1-15l30.9,11.5L366.1,300.9z M223.4,284.1c0,11.4,9.3,20.7,20.7,20.7
	c11.4,0,20.7-9.3,20.7-20.7c0-11.4-9.3-20.7-20.7-20.7C232.7,263.4,223.4,272.7,223.4,284.1 M178.6,342.4
	c-11.4,0-20.7,9.3-20.7,20.7c0,11.4,9.3,20.7,20.7,20.7c11.4,0,20.7-9.3,20.7-20.7C199.3,351.6,190,342.4,178.6,342.4"/>
</svg>
