<?xml version="1.0" encoding="utf-8"?>
<!-- Generator: Adobe Illustrator 23.0.3, SVG Export Plug-In . SVG Version: 6.00 Build 0)  -->
<svg version="1.1" id="Calque_1" xmlns="http://www.w3.org/2000/svg" xmlns:xlink="http://www.w3.org/1999/xlink" x="0px" y="0px"
	 viewBox="0 0 595.3 595.3" style="enable-background:new 0 0 595.3 595.3;" xml:space="preserve">
<path d="M434.7,185.1c11.4,0.5,20.3,10.1,19.8,21.5c-0.5,11.4-10.1,20.3-21.5,19.8c-11.4-0.5-20.3-10.1-19.8-21.5
	C413.6,193.5,423.3,184.6,434.7,185.1 M362.4,202c-2.9,2.8-4.5,6.8-3.9,11.1c0.4,3.4,2.4,6.3,4.7,8.6l6.9,6.7l-26,27.8l36.5,41.2
	l31-12.5l13.7,12.9c3.1,3,7.6,4.3,12,3.2c6.5-1.6,10.2-7.5,9.7-14.1c0,0-2.2-24.5-3.5-31.9c-0.8-6.1-3.9-10.9-7.2-13.7
	c-0.6-0.5-1.3-1.1-1.9-1.5c0,0-37.5-26.6-43.5-30.8l20.5-24.2c2.6-1,4.2-1.6,6.8-2.7c2.4-1,3.7-2,5.2-3.4c4.9-4.4,3.5-8.9,0.6-12.1
	c-2.1-2.3-4.5-3.1-7.3-2.7c-3.5,0.5-6.5,3.1-15,14.3l-5.4,4.8l-6.2-7.1L362.4,202z M184.4,222.9c-4.4,3.6-6.7,9.3-5.6,15.3
	c0.7,3.6,2.3,6.5,4.8,8.7c1.5,1.4,12,9.2,12,9.2l-8.9,27.4H243l13-27l42.7,31.5c10.8,8,16.7,12.6,21.4,18.9
	c4.6,6.1,7.2,12.3,10.6,21.8l32.4,91.9l11.3-2.8l5.1,15.3c0.1,0.3,0.2,0.6,0.4,0.8c0.5,0.7,1.2,1.2,2,1.3c0.2,0,0.5,0.1,0.8,0.1
	l28.5,0c0.2,0,0.3,0,0.5,0c0.5-0.1,0.9-0.4,1.1-0.9c0.1-0.2,0.1-0.4,0.1-0.7v-1.9c0-3.3-1.6-5.6-5-6.6c-3.7-1-15-4.2-19.9-5.6
	l-17-96l2.1-17.9l-38.7-43.6l-58.7-31l42.3-6.3l-1.3-11.6l11.9-1.7c2.7,1,4.3,1.6,7,2.5c2.5,0.8,4.2,0.9,6.2,0.9
	c6.7-0.1,8.7-4.5,8.6-8.9c0-3.2-1.3-5.4-3.7-7c-3-1.9-7-2-20.9,0.8l-94.3,0.2c-5.2-5.7-10.2-11.2-12-13c-3-3.1-6.2-2.6-8.9-1.1
	c-0.3,0.2-1.2,0.7-1.5,0.9c-0.3,0.2-0.5,0.3-0.6,0.4c-0.4,0.3-0.6,0.8-0.5,1.3c0,0.2,0.1,0.5,0.4,1c0.2,0.3,7.3,12.6,7.3,12.6
	c-0.1,0.1-1.5,0.8-2.1,1.2C206.6,207.6,189.5,218.6,184.4,222.9 M128.9,419.7c-0.1,0.2-0.2,0.3-0.2,0.5c-0.6,1.4,0.1,3,1.1,3.7
	c0.2,0.1,0.5,0.3,0.7,0.4l26.4,10.8c0.2,0.1,0.3,0.1,0.4,0.1c0.5,0.1,1-0.1,1.3-0.4c0.2-0.2,0.3-0.4,0.5-0.8
	c0.2-0.4,0.7-1.6,0.7-1.6c1.3-3.1,0.6-5.8-2.1-8c-2.1-1.6-7.2-5.6-11.5-9l68.4-83.8l30.8,30.9L234,409.1l13.3,4.5
	c0,0-4.2,16.9-4.3,17.3c-0.1,0.3-0.1,0.7-0.1,1.1c0,1.5,1,2.9,2.4,3.3c0.4,0.1,0.7,0.1,1.7,0.1l31.1-0.1c0.4,0,0.7,0,0.8,0
	c0.4-0.1,0.9-0.4,1.1-0.9c0.2-0.3,0.2-0.5,0.2-1.1l0-1.9c0-3.7-1.8-6.2-5.5-7.3c-2.5-0.7-14.3-4-14.3-4s21.6-54.2,22.6-58.2
	c0.6-2.2,0.8-4.5,0.5-6.9c-0.3-2.6-1.2-5-2.5-7.2c-1.3-2.3-39-53.3-39-53.3H183l-26.2,27h15.2l-44.4,77.6l9.5,6.8L128.9,419.7z
	 M249.4,193c11.4-0.5,20.2-10.2,19.7-21.6c-0.5-11.4-10.2-20.2-21.6-19.7c-11.4,0.5-20.2,10.2-19.7,21.6
	C228.3,184.7,238,193.6,249.4,193"/>
</svg>
