<?xml version="1.0" encoding="utf-8"?>
<!-- Generator: Adobe Illustrator 23.0.3, SVG Export Plug-In . SVG Version: 6.00 Build 0)  -->
<svg version="1.1" id="Calque_1" xmlns="http://www.w3.org/2000/svg" xmlns:xlink="http://www.w3.org/1999/xlink" x="0px" y="0px"
	 viewBox="0 0 595.3 595.3" style="enable-background:new 0 0 595.3 595.3;" xml:space="preserve">
<path d="M359,442c-1.4-0.7-2.2-2.2-2-3.8c0.1-0.5,0.2-0.9,0.4-1.4c0,0,1.3-2.6,2.3-4.4c-5.8-14.9-17-43.9-22.1-57.1l-27-14.5
	l2.9,4.6c4.6,6.7,4.8,15.3,0.9,22.1l-31.2,53.5l-15.3-4.6l-5.8,9.2l18.3,4.1c0.2,0.1,0.4,0.1,0.7,0.2c2.1,0.9,3,3.2,2.2,5.3
	c-0.6,1.5-2.1,2.4-3.6,2.4l-33.9,0.1c-1.6,0-3.2-0.9-3.8-2.5c-0.4-1-0.3-2,0-2.9c0,0,20.4-48.2,30.1-70.9L242.7,349h-29.4l19.1-43.2
	h79.1l53.7,39.8c3.6,2.7,6.1,6.4,7.2,10.7l14.3,57.7l-14.1,4.4l3.7,16.9c5.9,5.9,14.5,14.5,15.7,16c1.3,1.7,1.1,4.1-0.5,5.4
	c-1.2,1-2.8,1.1-4.1,0.4L359,442z M420.7,208.6c0.1,0.4,0,0.8-0.1,1.2c-0.1,0.3-5.1,20.8-5.9,23.9c-0.8,3.1-2.9,4.6-5.3,4.7
	c-0.4,0-1.1,0-1.8-0.1l-36.2-5.9l-5.8,13.9l-44.6-11.3l-11.8,60h-74.6l-1.7-16.5l-9.5-1.9c-0.6-0.1-3-0.7-4.2-1
	c-7.6-1.9-13.9-8.2-15.6-16.6c-0.9-4.4-0.4-8.7,1.2-12.5l20.3-46.6c3.2-7.6,9.2-13.3,17.5-15c1.3-0.3,3-0.5,4.7-0.5h12.6l35,42.2
	v-42.2h9.5c3.1,0,6,0.6,8.9,1.8l89.7,38.3c5.3-7.2,11.7-15.9,12.4-16.9c0.1-0.2,0.3-0.4,0.5-0.6c0.7-0.6,1.7-0.9,2.7-0.7
	C419.7,206.4,420.5,207.4,420.7,208.6 M306.5,252.8c1.7-0.9,2.2-3.1,1.3-4.7c-0.6-1.1-1.8-1.8-3-1.8h-26.4c-0.8,0-1.4,0.2-2.1,0.5
	c-1.3,0.7-2,2.1-2,3.5h-14.4l-2.1,16.8l47.9-14C305.9,253,306.2,252.9,306.5,252.8 M280.5,179c12.8-0.9,22.5-11.9,21.7-24.8
	c-0.8-12.8-11.9-22.5-24.8-21.7c-12.8,0.9-22.5,11.9-21.7,24.8C256.6,170.2,267.7,179.9,280.5,179"/>
</svg>
