<?xml version="1.0" encoding="utf-8"?>
<!-- Generator: Adobe Illustrator 23.0.3, SVG Export Plug-In . SVG Version: 6.00 Build 0)  -->
<svg version="1.1" id="Calque_1" xmlns="http://www.w3.org/2000/svg" xmlns:xlink="http://www.w3.org/1999/xlink" x="0px" y="0px"
	 viewBox="0 0 595.3 595.3" style="enable-background:new 0 0 595.3 595.3;" xml:space="preserve">
<path d="M324.6,215.5c-8.2-6.4-9.6-18.2-3.1-26.4c6.4-8.1,18.2-9.6,26.4-3.1c8.1,6.4,9.6,18.2,3.1,26.4
	C344.6,220.5,332.8,221.9,324.6,215.5 M300.7,253c9.1-5,12.3-16.4,7.3-25.5c-5-9.1-16.4-12.3-25.5-7.3c-9.1,5-12.3,16.4-7.3,25.5
	C280.2,254.7,291.6,258,300.7,253 M197.1,374c-0.2,1.5,0.2,3.5,1.2,4.8c2.1,2.8,6.1,3.5,9,1.4c1.1-0.8,1.8-1.9,2.2-3l24.5-70.5
	c1.5-4.5,2-10.6-0.5-15c-3.3-5.7-30.3-49-30.3-49c-5-8.1-15.7-10.7-23.9-5.7c-1.5,0.9-3.6,2.5-5.5,5.4
	C161.4,259.8,96.5,367.8,95,372.6c-0.8,2-0.5,4.3,0.8,6.1c2.1,2.8,6.1,3.5,9,1.4c0.4-0.3,1-0.9,2-2c1.3-1.5,82.2-99.8,82.2-99.8
	c8.2,8.8,16.1,16.9,23.7,24C206.9,323.2,198.5,361.6,197.1,374 M362.5,287.6c-3,3.3-5.2,10-5.5,16l-3.3,71.1
	c-0.1,2.1,0.8,4.1,2.6,5.5c2.9,2.1,6.9,1.5,9-1.4c0.6-0.8,0.9-1.8,1.1-2.7c5.1-26.3,9.9-51.6,12.2-71.3c5.1-3.8,15.6-12.2,25.2-20.1
	l11.6,34c0.6,1.9,1.8,3.6,3.5,5l69.7,56.5c2.9,2.1,6.9,1.5,9-1.4c1.9-2.6,1.5-6.1-0.6-8.3c-22.3-24.1-43.9-47-60.1-60.5
	c-0.2-12.9-2.3-40.5-5.8-53.7c-1.2-4.6-4-8-7.8-10.3c-6.3-3.8-14.6-3.5-20.1,1.4C395.2,254.2,366.5,282.9,362.5,287.6 M366.2,205.5
	c-10.1,13.4-19.8,26.8-28.3,40.6c-10.7,11-22.3,25-34.3,40.5c-14.5-2.7-28.6-5-41.9-6.4c2.7-15.6,4.5-31.5,4.2-44.7
	c-0.2-4.7-2.6-9.2-6.9-11.8c-6.8-4.2-15.7-2.1-19.9,4.7c-1.4,2.3-2.1,4.7-2.1,7.2c-0.2,14.3,2.5,34.2,5.8,53.3
	c0.4,2.6,1.7,5,4.1,6.5c1.4,0.9,3,1.3,4.6,1.3c0,0,51-0.1,53-0.1c2.3,0,2.9-0.1,4.4-1.2l78.9-71c2.2-2,3.8-4.6,4.4-7.6
	c1.7-7.8-3.2-15.5-11-17.2C375.3,198.3,369.9,200.9,366.2,205.5"/>
</svg>
