<?xml version="1.0" encoding="utf-8"?>
<!-- Generator: Adobe Illustrator 23.0.3, SVG Export Plug-In . SVG Version: 6.00 Build 0)  -->
<svg version="1.1" id="Calque_1" xmlns="http://www.w3.org/2000/svg" xmlns:xlink="http://www.w3.org/1999/xlink" x="0px" y="0px"
	 viewBox="0 0 595.3 595.3" style="enable-background:new 0 0 595.3 595.3;" xml:space="preserve">
<path d="M231.7,291.9c-11.7,7-20.5,18.2-26.6,30.3c-0.7,1.4-53.2-149.3-55.4-158.2c-1.1-4.3,1.5-8.7,5.8-9.9c3.8-1,7.8,0.9,9.4,4.4
	c3.9,7.6,34.3,71.8,37,80.1C206,246.1,219.8,270.5,231.7,291.9 M259.9,292.4c15,0,27.1-12.1,27.1-27.1c0-15-12.1-27.1-27.1-27.1
	c-15,0-27.1,12.1-27.1,27.1C232.8,280.2,245,292.4,259.9,292.4 M262.3,307.8c-11.9-1.3-22.7,7.2-24.1,19.2c-0.1,1.1-0.1,2.2-0.1,3.2
	c0.1,6.6,7.8,38.7,12.1,56.1c-26.4,3.3-65.6,11.5-89.5,16.7c5.8,5.9,13.8,9.6,22.7,9.6c8.2,0,15.6-3.1,21.3-8.2
	c5.6,5.1,13.1,8.2,21.3,8.2c8.2,0,15.6-3.1,21.3-8.2c4.9,4.5,11.8,8.1,18.8,8.1c7.8,0,15.2-4.5,16.2-12.2c2.2-17.4,2.1-66-2.2-78.1
	C277.5,314.5,270.9,308.8,262.3,307.8 M383,291.9c-11.9-21.3-25.7-45.8-29.9-53.2c-2.6-8.3-33.1-72.6-37-80.1
	c-1.6-3.5-5.5-5.4-9.4-4.4c-4.3,1.1-6.9,5.5-5.8,9.9c2.2,8.9,54.6,159.6,55.4,158.2C362.5,310.1,371.2,298.8,383,291.9 M411.2,292.4
	c15,0,27.1-12.1,27.1-27.1c0-15-12.1-27.1-27.1-27.1c-15,0-27.1,12.1-27.1,27.1C384.1,280.2,396.2,292.4,411.2,292.4 M413.5,307.8
	c-11.9-1.3-22.7,7.2-24.1,19.2c-0.1,1.1-0.1,2.2-0.1,3.2c0.1,6.6,7.8,38.7,12.1,56.1c-26.4,3.3-65.6,11.5-89.5,16.7
	c5.8,5.9,13.8,9.6,22.7,9.6c8.2,0,15.6-3.1,21.3-8.2c5.6,5.1,13.1,8.2,21.3,8.2s15.6-3.1,21.3-8.2c4.9,4.5,11.8,8.1,18.8,8.1
	c7.8,0,15.2-4.5,16.2-12.2c2.2-17.4,2.1-66-2.2-78.1C428.8,314.5,422.1,308.8,413.5,307.8"/>
</svg>
