<?xml version="1.0" encoding="utf-8"?>
<!-- Generator: Adobe Illustrator 23.0.3, SVG Export Plug-In . SVG Version: 6.00 Build 0)  -->
<svg version="1.1" id="Calque_1" xmlns="http://www.w3.org/2000/svg" xmlns:xlink="http://www.w3.org/1999/xlink" x="0px" y="0px"
	 viewBox="0 0 595.3 595.3" style="enable-background:new 0 0 595.3 595.3;" xml:space="preserve">
<path d="M414.8,302.8c30,4.5,59.2,11.5,87.4,20.7c-8.3,7.7-19.4,12.5-31.6,12.5c-10.3,0-19.8-3.4-27.5-9.1
	c-7.7,5.7-17.2,9.1-27.5,9.1c-4.3,0-8.4-0.6-12.3-1.6c7.2-7.5,11.6-17.7,11.6-28.9C414.9,304.6,414.8,303.7,414.8,302.8
	 M178.3,282.8c5.1-1.1,57.8-19.1,82.9-28.8c4.1,8.2,9.3,18.3,14.4,27.7c-63.3,5.1-123.5,21.1-178.7,46.1c7.5,5.2,16.5,8.2,26.3,8.2
	c10.3,0,19.8-3.4,27.5-9.1c7.7,5.7,17.2,9.1,27.5,9.1s19.8-3.4,27.5-9.1c7.7,5.7,17.2,9.1,27.5,9.1s19.8-3.4,27.5-9.1
	c7.7,5.7,17.2,9.1,27.5,9.1c18.8,0,34.4-11.5,42.2-27.3c0.5-1.1,1-2.2,1.4-3.4c1.9-6,1.4-12.1-1.6-17.2
	c-8.3-15.1-45.1-61.9-54.2-66.4c-0.9-0.5-1.8-0.9-2.8-1.2c-3-1-6.2-0.9-9,0c-6,1.8-89.6,43-92.6,45c-1.8,1.2-3.3,3-3.9,5.3
	c-1.5,5,1.4,10.3,6.4,11.8C175.5,282.9,176.9,283,178.3,282.8 M372.9,274.9c-16.9,0-30.6,13.7-30.6,30.6c0,16.9,13.7,30.6,30.6,30.6
	c16.9,0,30.6-13.7,30.6-30.6C403.4,288.6,389.7,274.9,372.9,274.9"/>
</svg>
