<?xml version="1.0" encoding="utf-8"?>
<!-- Generator: Adobe Illustrator 23.0.3, SVG Export Plug-In . SVG Version: 6.00 Build 0)  -->
<svg version="1.1" id="Calque_1" xmlns="http://www.w3.org/2000/svg" xmlns:xlink="http://www.w3.org/1999/xlink" x="0px" y="0px"
	 viewBox="0 0 595.3 595.3" style="enable-background:new 0 0 595.3 595.3;" xml:space="preserve">
<path d="M240.1,126.3c-1,0.2-1.9,0.1-2.7-0.1c-2.8-0.8-4.3-3.7-3.5-6.5c0.4-1.2,1.2-2.2,2.2-2.9c1.6-1.1,47.8-23.8,51.1-24.8
	c1.6-0.5,3.3-0.5,5,0c0.6,0.2,1.1,0.4,1.6,0.7c5,2.5,25.4,28.3,29.9,36.6c1.7,2.8,1.9,6.2,0.9,9.5c-0.2,0.7-0.5,1.3-0.8,1.9
	c-4.3,8.7-12.9,15-23.3,15c-5.7,0-10.9-1.9-15.2-5c-4.2,3.1-9.5,5-15.2,5c-5.7,0-10.9-1.9-15.2-5c-4.2,3.1-9.5,5-15.2,5
	c-5.7,0-10.9-1.9-15.2-5c-4.2,3.1-9.5,5-15.2,5c-5.4,0-10.4-1.7-14.5-4.5c30.5-13.8,63.7-22.6,98.6-25.4c-2.8-5.2-5.7-10.8-7.9-15.3
	C271.6,115.8,244.2,125.3,240.1,126.3 M370.8,137.5c0,0.5,0.1,0.9,0.1,1.4c0,6.2-2.4,11.9-6.3,16.1c2,0.5,4,0.8,6.2,0.8
	c5.7,0,10.9-1.9,15.2-5c4.2,3.1,9.5,5,15.2,5c6.7,0,12.8-2.6,17.4-6.9C403.1,143.8,387.2,140,370.8,137.5 M347.1,122
	c-9.3,0-16.9,7.6-16.9,16.9c0,9.3,7.6,16.9,16.9,16.9c9.3,0,16.9-7.6,16.9-16.9C364,129.6,356.4,122,347.1,122 M200.4,469.8
	c4.7,0.8,17.5,2.6,29.3,4c2.4-10.2,5.6-18.9,9.2-24.3c-7.4,0.5-15.9,1.2-22.8,1.8c6.2-14.3,15.5-35.7,17.2-39.8
	c0.5-1.1,0.6-2.4,0.2-3.7c-0.9-2.8-3.9-4.4-6.7-3.6c-1.4,0.4-2.5,1.4-3.1,2.5c-2.9,4.9-25.7,43.6-29.3,50.6
	c-1.2,2.4-1.3,5.4,0.1,7.9C195.8,467.7,198.1,469.4,200.4,469.8 M271.4,453.4c-4.8-2.3-10.6-2-15.2,1.3c-6.7,4.8-8.3,14.1-3.5,20.8
	c2,2.8,4.9,4.8,7.8,5.7c0.9,0.3,45.4,15.1,49.7,16.3c1.6,0.5,3.4,0.7,5,0.3c0.6-0.1,1.2-0.4,1.8-0.6c6-3.1,45.6-24.4,50-26.9
	l2.5,5.5c3.4-1.6,6-4.8,6.4-8.9c0.1-1.2,0-2.4-0.2-3.5l75.2-34.1c1.2-0.5,1.7-1.9,1.1-3c-0.5-1.1-1.9-1.7-3-1.1l-75.3,34.1
	c-1.8-2.3-4.5-4-7.6-4.3c-2-0.2-3.8,0.2-5.5,0.9l2.5,5.5c-4.5,1.5-36.6,13.4-48.8,18C304.3,473.1,277.7,456.4,271.4,453.4
	 M272.8,408.5v37.5c11.8-1.5,14.8-9.3,14.8-18.8C287.7,417.9,284.6,410,272.8,408.5 M266,445.3v-37c-8,0-14.7,1.8-14.7,1.8v29.4
	L266,445.3z M454.8,276.5c1.4,2.9,4.6,4.6,7.9,4.1c2.1-0.3,3.8-1.5,5-3l27.1-37.2c1.1-1.5,1.2-3.9,0-5.6c-1.5-2.2-4.5-2.7-6.6-1.2
	c-0.3,0.2-0.6,0.4-0.8,0.7c-7.6,8.1-14.9,16.1-21.9,23.6c-2-7.7-4.1-14.9-6.2-21.3c-0.7,10.3-3.3,23-6.6,35.6L454.8,276.5z
	 M430.1,221.6c-9.7,6.1-20.9,13.2-31,19.6c-1.2,0.9-2.1,2.1-2.7,3.7c-0.2,0.7-0.4,1.4-0.4,2.2l-1.6,45.9c-0.1,2.3,1.3,4.4,3.6,5.1
	c2.7,0.8,5.5-0.7,6.3-3.4c0.1-0.2,0.1-0.5,0.2-0.7c2.4-15.4,4.4-29.2,6.2-40.8c10.6-3.8,20.9-8,30-11.7c4.8-2.2,7.5-7.6,6.2-12.9
	c-1.5-6-7.6-9.6-13.6-8.1C432.1,220.6,431.1,221,430.1,221.6 M483.8,309c-2-1-42.8-20.5-46.4-21.8c-1.9-0.7-3.8-1.1-5.9-1
	c-5.3,0.2-9.9,3.6-11.9,7.9l-52.7,111.7c-0.3,0.7-0.5,1.3-0.5,2.1c0,2.7,2.2,4.9,4.9,4.9c1.7,0,3.2-0.9,4.1-2.2l61.3-92.5
	c8.4,2.4,17.9,4.9,26.4,7c-10.6,18.2-25.4,45.6-26.9,48.4c-0.5,0.9-0.7,1.7-0.7,2.7c0,3,2.4,5.4,5.4,5.4c1.7,0,3.2-0.8,4.2-2
	c0.7-0.8,41.8-54.2,42.4-55c1.2-1.6,2-3.5,2.2-5.6C490,314.7,487.7,310.9,483.8,309 M457.6,220.1c8.6,0,15.6-7,15.6-15.6
	c0-8.6-7-15.6-15.6-15.6c-8.6,0-15.6,7-15.6,15.6C442,213.1,449,220.1,457.6,220.1 M256.9,210.7c1.4-0.2,2.8-0.7,3.6-1.8l6.2-8
	c1.7-2.2,3.3-3.5,6.5-3.5h32.6c1,0,1.8-0.8,1.8-1.8v-4.9c0-1-0.8-1.8-1.8-1.8h-36.4c-3.8,0-7.3,1.7-9.8,4.5l-6.5,7.9h-86.9
	c3.8,4.1,6.7,13.7,7.6,21.4c13.8-2.6,36.1-6.4,36.1-6.4L256.9,210.7z M170.7,181.9c0-8.9-7.2-16-16-16c-8.9,0-16,7.2-16,16
	c0,8.9,7.2,16,16,16C163.6,197.9,170.7,190.7,170.7,181.9 M124.8,212.1c-1.7,3.1-17.4,32.5-19.1,35.4c-1,1.7-1.4,3.8-1,5.8
	c0.1,0.9,0.4,1.7,0.8,2.4l22.6,46.5c1.1,2.3,3.8,3.7,6.4,3.2c3.2-0.6,5.2-3.7,4.6-6.9c-0.1-0.3-0.2-0.6-0.2-0.8
	c-6-17.1-10.9-31.3-15.3-43.9c6.3-7.3,17.8-21.1,22.8-27.6c3.7-4.9,3.5-11.9-0.8-16.6c-4.8-5.3-13-5.7-18.3-0.9
	C126.3,209.9,125.4,210.9,124.8,212.1 M253.6,243.3l11.1,0.2c-0.1,2-0.1,3.9-0.2,5.6c-0.1,2.9,0.4,5,1.8,7.2
	c0.6,0.9,2.9,3.5,4.1,4.6l3.5-3.1c0,0-3.2-3.1-4.2-4.7c-0.4-0.8-0.7-2.2-0.6-3.9c0.1-1.7,0.1-3.7,0.2-5.6l19.5,0.3
	c0.4,0,0.5-0.5,0.2-0.8c-3.2-2.5-6.3-4.9-6.3-4.9s-0.7-15.2-15-15c-13.9,0.2-15.1,11.5-14.7,19.4C253,242.9,253.3,243.3,253.6,243.3
	 M364.3,310.3l-25.1-72c-0.6-1.6-2.8-1.6-3.3,0.1l-6.2,18.1c-10.2-1-31.4,1.1-50.5,16.7c-8.3,6.8-14.7,15.5-19.5,23.5
	c-6.5-2.7-15.6-6.3-23.1-9.1c5.6-6.2,13.3-14.9,14.7-17c1-1.5,1.7-3.1,2-4.8c1.1-6.5-3.3-12.7-9.9-13.8c-4.6-0.8-8.6,0.9-11.7,4.8
	c-3.1,3.9-17.5,28.3-18.5,31.4c-0.4,1.1-0.6,2.2-0.6,3.4c0.2,3.9,2.7,7,6.4,8c3.7,0.9,22.2,3.8,35.7,5.9c-1.6,3.4-2.9,6.3-3.8,8.4
	l-27.4,11.8l-24.5-36.7c0,0-9.3,3.1-13.9,11.1c-1.8,3.1-2.9,7-2.4,11.8c0.4,3.2,1.6,5.7,3.6,8c1.8,2.1,8.5,8.2,16.3,14.8l-58.1,25.5
	c16.8,18.9,38.4,25.2,62.3,26.7c21.8,1.4,37.7-1.7,64-12c2.5-1,39-16.2,55.1-23.1c-1.2,7.2-2.4,15-3.2,19.6l-14.8,2.4
	c-0.3,0.1-0.6,0.1-0.8,0.2c-1,0.4-1.7,1-2.2,2c-0.1,0.3-0.2,0.6-0.3,0.9l-4.4,13.9c0,0.1-0.1,0.2-0.1,0.3c-0.1,0.9,0.8,1.6,1.7,1.4
	c0.1,0,0.3-0.1,0.4-0.1c0,0,24.6-10.2,27.1-11.4c0.9-0.5,1.5-0.9,1.9-1.3c0.5-0.5,0.9-1.1,1.2-1.8c2-4.4,11.7-32.9,12.9-36.9
	c0.4-1.3,0.7-2.9,0.6-4.6c-0.5-4.4-4-7-7.2-7.5c-0.2,0-1.3-0.2-3.1,0c-6.3,0.7-22,3.4-32.7,5.9c4.3-26.7,13.6-38.2,23.8-45.4
	c6.6,6.1,16.9,15.8,27.8,26.8c0.6,0.6,1.6,1,2.5,0.5c1.1-0.6,6.1-3.9,6.7-4.5C364.6,311.7,364.6,311.1,364.3,310.3"/>
</svg>
