<?xml version="1.0" encoding="utf-8"?>
<!-- Generator: Adobe Illustrator 23.0.3, SVG Export Plug-In . SVG Version: 6.00 Build 0)  -->
<svg version="1.1" id="Calque_1" xmlns="http://www.w3.org/2000/svg" xmlns:xlink="http://www.w3.org/1999/xlink" x="0px" y="0px"
	 viewBox="0 0 595.3 595.3" style="enable-background:new 0 0 595.3 595.3;" xml:space="preserve">
<path d="M238.7,250c-1.2-7.3-4.5-33.5-7.2-58.2c-1-9.3-2.1-23.8-1.7-32.9c0.4-10.3,5.2-17.7,13.3-21.4c11.7-5.3,25.5-0.1,30.8,11.6
	c1.3,2.8,1.9,5.4,2.1,8.9c0.2,3.1,0,16.7-0.8,36.2c4-5,11-13.6,12.1-14.9c1.5-1.6,2.9-2.6,4.5-3.4c1.3-0.6,3.1-1.1,5.5-1.2
	c3.5-0.1,52,4.8,64,7.1c7.1,1.4,12.7,6.2,15.4,12.2c1.3,2.7,1.9,5.6,1.9,8.5c0.2,8.3-4.5,16.3-12.5,20c-5,2.3-10.4,2.5-15.2,1
	c-4.5-1.4-34.5-12.9-50.7-19.3c-0.8,0.7-18.3,16.2-26.6,23.6c-0.3,6.8-1.2,23.5-1.2,24.3c0.5-0.4,19.1-16.9,24-20.4
	c0.3-0.2,0.5-0.4,0.5-0.4c2.6-1.7,6.4-3.8,12.6-7.2c5.9,7.8,12.5,14.9,19.8,20.7c-8.9,2.1-18.1,4.2-22.6,5.2
	c-4.7,3-31.4,18.7-35.4,21c-2.8,53.3-5.5,104.9-5.9,107.7c-0.4,2.8-2,5.1-4.6,6.2c-4,1.8-9.8,0-11-5.6
	C247.4,367.6,239.4,273.1,238.7,250 M343.1,249.1c-13.9,4.8-21.4,19.9-16.6,33.8c4.8,13.9,19.9,21.4,33.8,16.6
	c13.9-4.8,21.4-19.9,16.6-33.8C372.2,251.8,357.1,244.4,343.1,249.1 M447.6,443.7c-5.5,5.6-13,9-21.5,9c-8.4,0-16-3.5-21.4-9
	c-5.4,5.6-13,9-21.4,9c-8.4,0-16-3.5-21.4-9c-5.5,5.6-13,9-21.4,9c-8.4,0-16-3.5-21.4-9c-5.4,5.6-13,9-21.4,9c-8.4,0-16-3.5-21.4-9
	c-5.4,5.6-13,9-21.4,9c-8.4,0-16-3.5-21.4-9c-5.5,5.6-13,9-21.4,9c-8.4,0-16-3.5-21.4-9c-5.5,5.6-13,9-21.5,9c-8.4,0-16-3.5-21.4-9
	c-5.4,5.6-13,9-21.4,9V470h342.8v-17.2C460.6,452.8,453.1,449.3,447.6,443.7"/>
</svg>
