<?xml version="1.0" encoding="utf-8"?>
<!-- Generator: Adobe Illustrator 23.0.3, SVG Export Plug-In . SVG Version: 6.00 Build 0)  -->
<svg version="1.1" id="Calque_1" xmlns="http://www.w3.org/2000/svg" xmlns:xlink="http://www.w3.org/1999/xlink" x="0px" y="0px"
	 viewBox="0 0 595.3 595.3" style="enable-background:new 0 0 595.3 595.3;" xml:space="preserve">
<path d="M444.4,243.3c1.7,25.7-14.7,38.9-20.9,39.4c-5.3,0.4-19.1-7.4-24.2-25.5c-23.4,3.8-56.2,9.1-61.9,9.6
	c-5.4,0.5-10.7-2.8-12.5-8.2c0,0-10.5-31.9-16-53.4c-2-7.9,1-16.6,8.1-21.5c9.2-6.3,21.7-3.9,27.9,5.2c2.2,3.2,3.3,6.7,3.5,10.3
	c0.5,12.2,0.2,29.9-0.1,41.6c4.7-0.4,10.1-0.6,15.7-0.8c-1.8-3.5-3.9-7.6-6.1-12c9.1-9.5,16.9-21.6,19.1-36.1
	c4,14.6,9,38.8,10.8,47.8c3.4,0,6.6,0.1,9.7,0.1c1.2-21.3,15.3-32.2,21-32.6C424.6,206.7,442.7,217.5,444.4,243.3 M352.6,178.6
	c11.3,8.3,27.1,5.9,35.4-5.4c8.3-11.3,5.9-27.1-5.4-35.4c-11.3-8.3-27.1-5.9-35.4,5.4C338.9,154.5,341.3,170.3,352.6,178.6
	 M294,260.5c-8.4-4.7-19.1-4-26.8,2.1c-0.5,0.4-1.2,1-1.8,1.6C246.6,282.2,142,408.7,138.4,415.8c-0.5,0.9-0.8,2-0.9,3.1
	c-0.2,4.2,3,7.7,7.2,7.9c1.7,0.1,3.3-0.5,4.6-1.4c2-1.3,98.9-85.3,134.7-116.4c9.7,4.9,20,9.8,30.7,14.6
	c-26.2,23.2-67.5,61.2-71.8,68.1c-2.6,4-1.4,9.3,2.6,11.9c2.5,1.6,5.6,1.8,8.2,0.6c9.6-4.4,92.9-63.8,102.3-73.8
	c5.9-5.9,6.2-15.2,1.1-21.5c-0.2-0.2-1-1.1-1.4-1.5C346.5,298.9,301.2,264.4,294,260.5"/>
</svg>
