<?xml version="1.0" encoding="utf-8"?>
<!-- Generator: Adobe Illustrator 23.0.3, SVG Export Plug-In . SVG Version: 6.00 Build 0)  -->
<svg version="1.1" id="Calque_1" xmlns="http://www.w3.org/2000/svg" xmlns:xlink="http://www.w3.org/1999/xlink" x="0px" y="0px"
	 viewBox="0 0 595.3 595.3" style="enable-background:new 0 0 595.3 595.3;" xml:space="preserve">
<path d="M224.6,113.2c-1.1-1.9-1.2-4.1-0.4-6.2c1.5-3.8,5.8-5.7,9.6-4.2c1,0.4,1.8,0.9,2.5,1.6h0c2.3,2.2,39.5,39.6,41.8,42.3
	c0.7,0.8,1.3,1.4,1.8,2.2c1.8,2.4,13.5,18,21.5,28.7c-13.9-1.9-22.3-0.6-30.1,4.2c-4.5-9.2-7.9-16.7-10.2-21.2
	C252.4,150.2,228.4,119.4,224.6,113.2 M242.9,223.5c13.8,1.7,26.4-8.2,28.1-22c1.7-13.8-8.2-26.4-22-28.1
	c-13.8-1.7-26.4,8.2-28.1,22C219.2,209.3,229,221.8,242.9,223.5 M347.2,300.9c-4.5,5.6-10.5,12.6-16.9,20
	c7.5,8.5,26.9,32.3,40.4,49.3c0.1-0.1,0.4-0.2,0.8-0.5c9.3-5.9,18.5-8,24.2-7.2c25.4,3.4,19.6,23.3,0.6,36.2
	c-5,3.4-34.7,22.4-34.7,22.4c31.9,16.6,61,33.8,87,49.6l-7.1,11.7c-29-17.7-59.9-35.8-93.3-53l-57.7,35.9
	c-9.5,5.6-18.7,8.1-27.5,8.6c-37.7,2.2-47.9-11.7-39.4-19.5c4.3-3.9,13-4.7,19.9-8.9l12.2-7.3c1.6-12.2,4.2-30.5,6.6-47.5
	c-56.5-21.6-120-38.5-193-45.8l1.4-13.7c66.7,6.7,130.2,21.7,193.6,45.7c1.7-12.1,3.2-21.4,3.9-26.2c0.3-2,1-4,1.7-5.5
	c0.8-1.8,36.6-67.8,40-72.9c4.1-6.4,11.4-10.7,19.6-10.8c13-0.1,23.6,10.4,23.7,23.4C353.2,291,350.9,296.6,347.2,300.9 M295,360.2
	c-1.5,6-4,15.5-6.9,26.2c10.8,4.5,21.3,9.1,31.6,13.9l24.3-14.4c3.4-2,6.9-4,10.3-6.1c-14.6-13.9-33.1-31.8-40.9-39.6
	C305.9,348.6,299.1,356,295,360.2 M305.4,408.8c-6.9-3.1-13.9-6.1-21-9.1c-2.4,8.8-5,17.7-7.3,25.9L305.4,408.8z M366.7,202
	c-3.7-0.8-50.4-10.7-55.2-11.6c-1.3-0.2-2.6-0.4-4-0.3c-10.6,0.2-19,9-18.7,19.6c0.2,10.4,8.8,18.7,19.1,18.7
	c5.4,0.1,43.2-1.9,55.1-2.9c11.7,4.1,53.3,17.8,57.9,18.7c1.1,0.2,1.6,0.3,2.5,0.3c4.4-0.1,7.8-3.7,7.7-8.1
	c-0.1-3.1-1.9-5.6-4.5-6.9c-1.1-0.6-52.6-24.5-56.6-26.3C369.2,202.8,367.5,202.2,366.7,202 M299.1,468.6c-4.8,0.5-8.6,5.5-8.6,11.1
	c0,5.6,4,9.7,8.7,9.1c4.8-0.5,8.6-5.5,8.6-11.1C307.8,472.1,303.9,468,299.1,468.6 M394.8,409.4c-4.6,0.5-8.2,5.3-8.2,10.6
	c0,5.3,3.8,9.2,8.4,8.7c4.6-0.5,8.2-5.3,8.2-10.6C403.1,412.7,399.4,408.8,394.8,409.4"/>
</svg>
