<?xml version="1.0" encoding="utf-8"?>
<!-- Generator: Adobe Illustrator 23.0.3, SVG Export Plug-In . SVG Version: 6.00 Build 0)  -->
<svg version="1.1" id="Calque_1" xmlns="http://www.w3.org/2000/svg" xmlns:xlink="http://www.w3.org/1999/xlink" x="0px" y="0px"
	 viewBox="0 0 595.3 595.3" style="enable-background:new 0 0 595.3 595.3;" xml:space="preserve">
<path d="M317.8,224.1c-12.5-1.1-21.7-12.1-20.6-24.6c1.1-12.5,12.1-21.7,24.6-20.6c12.5,1.1,21.7,12.1,20.6,24.6
	C341.3,216,330.3,225.2,317.8,224.1 M388.4,357.6c-1.1-2.3-2.8-4.4-5.2-5.9c-4.6-3-67.4-41.3-67.4-41.3c-7.6-4.7-17.1-4.2-24,0.6
	c-11.8,8-35.9,45.2-52.1,68.8c-13.9,11.1-64.1,55.4-79.1,73.4c-2.2,2.5-2.5,5.1-1.6,7.7c0.8,2.4,2.9,4.2,5.4,4.7
	c2.3,0.5,4.4-0.1,6.1-1.3l84.6-61.7c2.8-2,5.4-4.2,7.9-6.4l45.5-41c18.8,7.6,45.5,16.1,57.7,19.8c11.6,20.3,51.3,84.1,54.4,88
	c1.5,1.9,3.9,3.1,6.8,2.7c2.6-0.3,4.8-2,5.8-4.4c0.9-2.2,0.8-4.4,0-6.2L388.4,357.6z M464.7,237.3c-5.2-3.6-12.2-5.7-19.3-6.1
	c-9.6-0.7-114.4,0-114.4,0c2.1,6.3,4.5,18,4.5,30.2c16.4-3.1,39.2-8.1,47-10c0.5-0.1,1.6-0.3,2.1-0.3c7.2-0.5,24.1-2.4,38.7-4.3
	l41.1,21.7c3.4,1.8,7.6,0,8.5-3.7C476,251.7,476.6,245.6,464.7,237.3 M264.7,239.2c1,2.1,2.5,4,4.4,5.5c7.5,6.4,18.8,5.5,25.2-2
	c4.1-4.8,5.2-11.2,3.5-16.8c-3.1-11.1-18.7-40.4-26.1-52.6c-0.6-1.2-1.1-2-1.3-3.7c-0.6-13.3-3.7-42.6-5.8-56.8
	c2.3,1,4.9,1.3,7.6,0.7c6.9-1.5,11.2-8.2,9.8-15.1c-1.4-6.9-8.2-11.2-15.1-9.8c-5.8,1.2-9.8,6.2-10.1,11.9c-1.6,0-3.3,0.7-4.5,2
	c-1.1,1.1-1.7,2.6-1.8,4.1c-0.2,4.1-1.8,59.6-1,68.6C250.5,186.1,258.8,227.9,264.7,239.2"/>
</svg>
