<?xml version="1.0" encoding="utf-8"?>
<!-- Generator: Adobe Illustrator 23.0.3, SVG Export Plug-In . SVG Version: 6.00 Build 0)  -->
<svg version="1.1" id="Calque_1" xmlns="http://www.w3.org/2000/svg" xmlns:xlink="http://www.w3.org/1999/xlink" x="0px" y="0px"
	 viewBox="0 0 595.3 595.3" style="enable-background:new 0 0 595.3 595.3;" xml:space="preserve">
<path d="M302.8,237.5c-3.2-3.2-5.3-7.4-5.9-12.2c-1.3-11.4,6.9-21.7,18.3-23c7.3-0.8,14.1,2.2,18.4,7.5c2.5,3,4.1,6.7,4.6,10.8
	c1.3,11.4-6.9,21.7-18.3,23C313.4,244.3,307.2,241.9,302.8,237.5 M366.7,240c4.5-0.4,8.4-2.6,11-6c0.8-1,1.6-2.2,2.6-3.8
	c7.6-11.9,24.4-40.9,25.6-43.7c4-7.8,20-52,21-57.3c0.7-3.1-1.2-6.2-4.3-6.9c-2.5-0.6-5,0.6-6.2,2.7c-3.8,6.6-23.2,42.3-27.6,51
	c-4.9,4.6-32.6,33.5-34,35.1c-1.4,1.5-1.8,2.1-3.2,4.1c-1.9,2.7-3,6.6-2.6,10.5C349.8,234.4,357.8,240.9,366.7,240 M252.6,331.2
	c-2-1.3-23.1-14.8-30.6-19.2c13.6-5,30.6-11.5,43.3-16.5c6.3-10.8,12.6-21.6,17.9-30.5c-3-1.7-5.8-1.7-8.8-0.8
	c-1.1,0.4-2.5,0.9-4.5,1.9c-12.7,6.1-49.5,25.5-66.6,35.3c-10-5.3-18.6-9.7-27.3-13.7c-17.1-7.9-29.7-13-34.6-14.7
	c-2-0.7-3.5-0.9-4.8-0.9c-6,0-10.8,4.9-10.8,10.9c0,1.6,0.5,3.3,1.2,4.8c1.7,3.8,7.6,13.1,16,23.1l-12.4,20
	c-0.9,1.5,0.6,3.3,2.2,2.7l23-8.8c19.3,18.9,39.4,35.4,80.6,61c76.2,47.3,133.1,55.9,151.9,57c2,0.1,3-1.8,1.7-3.5
	c-12.1-16.9-40.7-41.4-99.7-82.2c4.6-3.7,9.9-8.1,15.6-12.8c0,0,2.8,3.7,4.2,5.4c1.4,1.6,3.3,3.3,5.3,4.5
	c9.8,5.6,24.7,2.7,29.6-11.5c4.7-14.1,10.5-38.5,12-45.9c1.5-7.4-3.8-14.9-11.4-16.3c-4.1-0.7-7.8,0.3-11,2.7
	c-3.2,2.4-16.9,17.1-16.9,17.1c-2.5-2.9-5.2-5.8-7.8-8.6c-6.9,8-14.7,17.1-22.2,25.7c1.9,3,3.9,6,5.7,8.8
	c-7.1,7.7-13.8,15-18.6,20.3c-2.6-1.7-12.3-8.3-13.5-9.2c1.4-1.6,51.6-59.8,51.6-59.8c-4.6-10.1-9-21.6-10.3-30.6
	c-0.4,0.3-1.3,1.1-2.1,2.3c-0.7,1-3.1,4.9-4.1,6.7C295.5,257.8,256,325.4,252.6,331.2 M447.6,456.1c-5.5,5.6-13,9-21.5,9
	c-8.4,0-16-3.5-21.4-9c-5.4,5.6-13,9-21.4,9c-8.4,0-16-3.5-21.4-9c-5.5,5.6-13,9-21.4,9c-8.4,0-16-3.5-21.4-9c-5.4,5.6-13,9-21.4,9
	c-8.4,0-16-3.5-21.4-9c-5.4,5.6-13,9-21.4,9c-8.4,0-16-3.5-21.4-9c-5.5,5.6-13,9-21.4,9c-8.4,0-16-3.5-21.4-9c-5.5,5.6-13,9-21.5,9
	c-8.4,0-16-3.5-21.4-9c-5.4,5.6-13,9-21.4,9v17.2h342.8v-17.2C460.6,465.1,453.1,461.7,447.6,456.1"/>
</svg>
