<?xml version="1.0" encoding="utf-8"?>
<!-- Generator: Adobe Illustrator 23.0.3, SVG Export Plug-In . SVG Version: 6.00 Build 0)  -->
<svg version="1.1" id="Calque_1" xmlns="http://www.w3.org/2000/svg" xmlns:xlink="http://www.w3.org/1999/xlink" x="0px" y="0px"
	 viewBox="0 0 595.3 595.3" style="enable-background:new 0 0 595.3 595.3;" xml:space="preserve">
<path d="M453.9,156.2c4.8-0.3,8.8,3.3,9.1,8.1c0.1,2.4-0.6,4.3-2.1,6.2c-4.8,5.7-86.6,87.4-86.6,87.4c-21.4,21.7-39.2,39.6-50,56.4
	c-8.9,13.9-17.1,32.3-27,70.9c0,0-23.7,100.5-26.1,108.5c-0.9,2.9-2.3,4.7-4.4,5.8c-4.2,2.2-9.5,0.6-11.7-3.6
	c-0.8-1.4-1-3.6-0.9-5.8c2.5-43,11.5-133.8,16.4-172.4l30.2-49.6c36.7-29.2,115-87,148.5-110.2C451.1,156.7,452.3,156.3,453.9,156.2
	 M188.7,265.2c-0.2-0.4-0.5-0.7-0.7-1.1c-3.8,6.2-12.5,23.6-18,34.9c-7.8-15.5-19.2-36.8-21.2-40.2c-0.2-0.4-0.6-0.9-0.8-1.2
	c-1.3-1.3-3.2-1.9-5.1-1.5c-2.3,0.5-3.9,2.3-4.2,4.6c-0.1,0.6,0,1.4,0.2,2.2c1.2,5.3,18.5,55.4,22.6,64.2c2,4.5,6.6,6.2,11.3,5.1
	c1.9-0.4,3.1-1.1,4.8-2.7c0.4-0.4,1.1-1,2.1-2.1c5.9-6.8,25.1-31.8,33-41.9c-1.2-0.8-2.3-1.6-3.5-2.4
	C201,277.6,192.9,271.7,188.7,265.2 M180.1,252.7c1,0,22.7-0.8,22.7-0.8l0.8-10.1c0,0-1.9-0.1-6.6-0.6c-4-0.4-6.7-2.1-8.8-4.6
	c-0.9-1.1-1.7-2.4-2.5-3.9c-0.8-1.5-1.6-3.2-2.5-4.9c-1.2-2.3-0.9-3.8-0.5-4.9c0.4-1.1,1.1-2.3,4.5-4c5.8-3,9.1-4.6,11.8-6
	c1.5-0.8,1.7-1.6,1.8-2.7c0.2-2.2-1.6-5.1-4.2-8.1c-3-3.5-4.8-5.1-9.5-7c-4.9-1.9-8.3-0.7-17.8,4.1c-10.3,5.2-12.8,7.5-14,13.7
	c-1.4,7-0.7,12.9,3.6,21.5C167.5,251.1,175,252.8,180.1,252.7 M292,261.5c0,0-10.9-7.2-11.9-7.8c-0.5-0.3-3.5-2.2-4.5-2.8
	c-8.1-5-20.1-9.5-20.1-9.5l-29.6,48.2c0,0,10.7,9,18,13.4c3,1.8,3.7,2.2,4.9,2.9c0.5,0.3,12,6.8,12,6.8L292,261.5z M233.6,237.9
	c3.2,1.2,6.6,1.3,9.7,0.6c1.5-0.3,3-0.9,4.3-1.6c1.2-0.6,5.4-3.2,10.9-6.8c13.3-8.6,34.2-22.7,39.7-26.9
	c12.2-5.5,55.3-28.6,59.8-31.7c0.8-0.6,1.4-1.1,1.8-1.7c1.2-1.9,1.3-4.4,0-6.4c-1.2-1.8-3.2-2.7-5.2-2.6c-0.4,0-0.8,0.1-1.5,0.3
	c-7.8,2.4-105.5,36.7-118.3,43c-6.1,3-7.6,4.7-8.8,6.2c-1.2,1.5-2.3,3.3-3,5.2C219.8,224.6,224.5,234.6,233.6,237.9"/>
</svg>
