<?xml version="1.0" encoding="utf-8"?>
<!-- Generator: Adobe Illustrator 23.0.3, SVG Export Plug-In . SVG Version: 6.00 Build 0)  -->
<svg version="1.1" id="Calque_1" xmlns="http://www.w3.org/2000/svg" xmlns:xlink="http://www.w3.org/1999/xlink" x="0px" y="0px"
	 viewBox="0 0 595.3 595.3" style="enable-background:new 0 0 595.3 595.3;" xml:space="preserve">
<path d="M414,254.9c-15.7,0.6-48.7,2.2-59.9,3c-17.2-16.3-39.8-36.8-44.3-40.1c-0.6-0.5-1.2-0.8-1.2-0.8c-2.8-1.8-6.3-2.8-9.6-2.8
	c-3.6,0-9.1,1-13.9,6.2c-4.6,5.1-4.9,11.6-4.6,14.6c0.6,5.1,3,8.5,4.9,10.5c1.3,1.3,2.9,2.5,3.8,3c8.8,5.6,48.4,28,53.8,30.6
	c3.8,1.8,7.3,2.1,11.2,1.6c10-1.1,61.1-11.6,68.3-13.9c1.9-0.6,3.2-1.6,4-3.1c0.8-1.6,0.9-3.5,0-5.8c-2-5.4-12.3-32.1-13.2-34.5
	c-9.9-25.9,10.8-40.4-1.5-72.5c-10.9-28.4-30.6-31.7-42.4-27.2c-11.8,4.5-24.3,20.1-13.4,48.5c7.7,20.1,20.4,26.5,31.2,34.7
	c-11.4,6.6-25.9,15-32.7,19.1c-7.3-2.1-23.5-6.6-35.4-9.7c8.4,7.2,22.4,20.2,32.5,29.5c2.3,0,3.9-0.1,5.1-0.3
	c1.7-0.3,3.1-0.6,4.9-1.7c3.9-2.3,22.9-17.2,35.5-27.6c2.4,3,4.5,6.6,6.2,11L414,254.9z M363.1,167.9c-7.5-19.9-0.2-33.5,9.2-37.1
	c9.3-3.6,23.9,1.7,31.6,21.5c6.1,15.9,5.2,26.5,2,35.3c-2.1,5.7-5.5,8.3-8.2,9.3c-2.7,1-7,1.4-12.3-1.5
	C377,191.1,369.2,183.8,363.1,167.9 M313,204.3c-12.7,0-23-10.3-23-23c0-12.7,10.3-23,23-23c12.7,0,23,10.3,23,23
	C336,194,325.7,204.3,313,204.3 M121.5,323.3c6.8,0,12.3,5.5,12.3,12.3c0,6.8-5.5,12.3-12.3,12.3c-6.8,0-12.3-5.5-12.3-12.3
	C109.2,328.8,114.7,323.3,121.5,323.3 M407.9,462.4c-2.5-3.2-39.8-67.4-50-86.9c-11.5-5.1-34.7-15.9-52.7-24.9
	c-6.1,19.9-11.7,37.2-15.3,46.1c-0.9,2.3-2.5,6-5.1,9.1c-2.6,3.1-6.3,5.9-8,7.2c-2.8,2.2-65.4,48.8-71.4,52.3
	c-1.1,0.6-2.2,1-3.5,1.1c-4.5,0.3-8.4-3.1-8.7-7.7c-0.1-2.3,0.5-4,2.2-6.1c2.7-3.2,50.7-49.6,65.7-63.4c2-20,8.4-61.7,10.7-72
	c1.2-5.2,2.3-8.2,4-10.7c5.8-8.7,17.3-12.2,27.6-7.7c0.8,0.3,1.5,0.7,2.3,1.1c13.8,7.4,57.9,38.6,71.4,49.9c1.5,1.2,3.3,3.1,4.2,4.3
	c1.1,1.4,2.1,3,3.1,5.1c1.6,3.5,37.2,88.2,39.3,95.5c0.5,1.6,0.6,3,0.3,4.4c-0.9,4.8-5.5,8-10.4,7.1
	C411.2,465.8,409.6,464.6,407.9,462.4"/>
</svg>
