<?xml version="1.0" encoding="utf-8"?>
<!-- Generator: Adobe Illustrator 23.0.3, SVG Export Plug-In . SVG Version: 6.00 Build 0)  -->
<svg version="1.1" id="Calque_1" xmlns="http://www.w3.org/2000/svg" xmlns:xlink="http://www.w3.org/1999/xlink" x="0px" y="0px"
	 viewBox="0 0 595.3 595.3" style="enable-background:new 0 0 595.3 595.3;" xml:space="preserve">
<path d="M216.4,276.3c-18.2,0.3-33.2-14.3-33.4-32.5c-0.3-18.2,14.3-33.2,32.5-33.5c18.2-0.3,33.2,14.3,33.4,32.5
	C249.2,261.1,234.6,276.1,216.4,276.3 M167.2,287.6c0.9,0.7,2.9,2.5,3.3,3l95.4-10.3c3.5-0.4,6.8-1.3,10-2.7l23.2-10.8
	c5.2-2.3,10.7-3.8,16.3-4.4l168.2-17.5c1.3-0.1,2.4,0.8,2.5,2l0.9,7.9c0.1,1.3-0.8,2.4-2,2.5l-124.2,12.9l-41,72
	c-3,5.5-8,8.9-14.2,9c-1,0-2-0.1-3.5-0.2l-40.1-3.6l23.4-32.2c4.5,0.7,9.3,1.6,14.1,2.4l34.9-38l-28.5,2.8L287.6,295
	c0,0-52.2,71.8-56.7,78.2c-2.3,3.3-6.6,6.3-11.5,7.1c-3.8,0.6-7.1-0.2-10.7-2c-7.2-3.7-55.3-34.7-73.2-48.1
	c-12.3-9-14.4-25.9-5.5-37.6C138.9,281,155.6,278.7,167.2,287.6 M216.8,338.9c9.2-9.5,21-20.9,31.7-31.2l-49.3,12.8
	C205.6,327.2,211.7,333.6,216.8,338.9"/>
</svg>
