<?xml version="1.0" encoding="utf-8"?>
<!-- Generator: Adobe Illustrator 23.0.3, SVG Export Plug-In . SVG Version: 6.00 Build 0)  -->
<svg version="1.1" id="Calque_1" xmlns="http://www.w3.org/2000/svg" xmlns:xlink="http://www.w3.org/1999/xlink" x="0px" y="0px"
	 viewBox="0 0 595.3 595.3" style="enable-background:new 0 0 595.3 595.3;" xml:space="preserve">
<path d="M249.2,281.3c-18.5,0-33.5-15-33.5-33.5c0-18.5,15-33.5,33.5-33.5s33.5,15,33.5,33.5C282.8,266.2,267.7,281.3,249.2,281.3
	 M479.4,336.8c4.5-0.7,7.9-4.5,7.9-9.2c0-5.1-4.2-9.3-9.3-9.3h-4c0.5-5.7,0.7-11.5,0.8-17.3h24.3c1.9,0,3.4-1.5,3.4-3.4
	c0-1.9-1.5-3.4-3.4-3.4h-24.3c-1.1-87.1-45-169.6-105.7-198.9c-1.7-0.8-3.8,0-4.6,1.7l-2.2,5c-0.8,1.7,0,3.7,1.7,4.5
	c56.5,27.3,97.4,105.2,99,187.7h-285c-7.2,0-14.3,0-20.3,0c-36.9,0-42.7,1.2-49.8,4.4c-4.9,2.2-8.9,7.6-8.9,13.7
	c0,5,2.4,9.4,6.4,12.2c11.4,7.1,64.8,29.5,74.1,31.3c4.7,0.9,10.5-9,12.9-21.8c1.2-6.4,1.4-12.4,0.6-16.9c18-2.6,28.8-4.4,31.2-4.8
	c4.4-0.8,7.7-4.5,7.7-9.1c0,0,0-0.9-0.1-2.1l230.4-0.1c-0.1,5.8-0.4,11.6-0.9,17.3h-83.5h-82.5c2.8,11.5,4.3,28.9,3.7,45.7
	c30-3.7,65.5-11.6,81.1-14.9c14.4-1.1,53.8-6.1,78.5-9.5c-11.1,67.1-47.5,125.8-95,148.8c-1.7,0.8-2.5,2.8-1.7,4.5l2.2,5
	c0.8,1.8,2.9,2.5,4.6,1.7c51.9-25,91.5-89.2,102.6-161.8C475.4,337.4,478,337,479.4,336.8"/>
</svg>
