<?xml version="1.0" encoding="utf-8"?>
<!-- Generator: Adobe Illustrator 23.0.3, SVG Export Plug-In . SVG Version: 6.00 Build 0)  -->
<svg version="1.1" id="Calque_1" xmlns="http://www.w3.org/2000/svg" xmlns:xlink="http://www.w3.org/1999/xlink" x="0px" y="0px"
	 viewBox="0 0 595.3 595.3" style="enable-background:new 0 0 595.3 595.3;" xml:space="preserve">
<path d="M209.7,275c-4.4-4.1-6.9-10-6.3-16.4c1.1-10.9,10.7-18.9,21.6-17.8c5,0.5,9.4,2.8,12.6,6.3c1.7,1.8,21.2,25.7,31.3,38.5
	c0.8-0.2,1.7-0.5,2.7-0.7c8.6-2.3,20.6-5.6,31.1-8.3l10.1-19.2c-11.6,3.6-24.3,7.2-27,7.8c-0.1,0-0.6,0.1-0.9,0.2
	c-2,0.3-5.1,0.5-15.6,1c-1.7-9.4-4.3-18.6-8.2-26.9c8.9,2,18.2,4.1,22.7,5.2c6.5-0.9,24.9-2.9,37.9-4.3
	c23.1-43.6,45.7-85.8,46.4-87.2c0.4-0.7,0.9-1.5,1.2-1.9c1.3-1.8,3.6-3.3,6.4-3.3c4.4,0,8.1,3.8,7.8,8c0,0.7-0.2,1.6-0.4,2.5
	c-2.7,10.8-31.2,92.8-40.4,114.1c-2.7,9.8-19.8,62.2-28.5,82.2c-1.2,2.8-2.4,5.2-3.3,6.5c-5.5,8.8-11.5,11.9-20.1,11.8
	c-12.5-0.1-22.5-10.3-22.3-22.8c0-2.9,0.7-5.8,1.6-8.2c1.8-5.1,8.4-19.9,19-39.8c0,0-13,6.1-17.1,7.8c-1.4,0.6-4.8,2.2-7.6,2.3
	c-3.7,0-6.7-1.8-6.7-1.8C252.9,307.7,215.6,280.6,209.7,275 M134.4,479.6h326.5v-13.7H134.4V479.6z M253.2,226.2
	c5.6-3.9,9.6-10.1,10.6-17.4c1.9-13.9-7.9-26.7-21.8-28.5c-13.9-1.9-26.7,7.9-28.5,21.8c-1.2,8.8,2.3,17.2,8.6,22.6
	c3.6,3.1,8.1,5.2,13.2,5.9C241.8,231.5,248.2,229.7,253.2,226.2"/>
</svg>
