<?xml version="1.0" encoding="utf-8"?>
<!-- Generator: Adobe Illustrator 23.0.3, SVG Export Plug-In . SVG Version: 6.00 Build 0)  -->
<svg version="1.1" id="Calque_1" xmlns="http://www.w3.org/2000/svg" xmlns:xlink="http://www.w3.org/1999/xlink" x="0px" y="0px"
	 viewBox="0 0 595.3 595.3" style="enable-background:new 0 0 595.3 595.3;" xml:space="preserve">
<path d="M155.7,306.4c1,3.2,45.9,124.8,46.8,127c0.8,1.9,2.7,3.4,5,3.4c3,0,5.4-2.4,5.4-5.4c0-0.3,0-0.6-0.1-1
	c-0.1-0.7-5.7-27.4-11.9-56.5c12-15,28.6-35.8,28.9-36.2c1.3-1.6,2.1-3.8,2.1-6c0-2.9-1.3-5.5-3.4-7.2c-1.4-1.2-41.4-34.1-46.1-37.3
	c-2.8-2-6.4-3.4-10.2-3.4c-9.5,0-17.3,7.7-17.3,17.3C154.9,303,155.2,304.8,155.7,306.4 M190.8,326c5.7,3.2,11.6,6.4,17.7,9.6
	c-3.7,5.8-7.8,12.5-11.7,18.7C194.6,344.2,192.6,334.4,190.8,326 M272.1,325.7c-2.5-2.2-24-18.4-32.9-24.8
	c-0.9-10.6-3.5-36.1-3.9-39.2c-0.1-1-0.4-2.2-0.8-3.2c-2.6-7-10.3-10.5-17.3-7.9c-6.7,2.5-10.2,9.8-8.2,16.4
	c1.3,5,11.8,36.7,13.5,41.4c0.8,2.4,2.5,4.3,4.7,5.2l25.8,12.2v19.7c0,0.6,0.1,1.2,0.4,1.7l6.8,15.4c-16.5,9-27.7,26.4-27.7,46.5
	c0,29.2,23.7,52.9,52.9,52.9c29.2,0,52.9-23.7,52.9-52.9c0-29.2-23.7-52.9-52.9-52.9c-6.1,0-12,1.1-17.4,3l-6.4-14.6v-11.6h17
	c5,0,6.7,1.9,6.7,4.4c0,2.5-1.6,4.7-6.7,4.7h-2.1c-2.2,0-4.1,1.5-4.1,3.8c0,2.2,1.8,3.9,4.1,3.9h3.1c10.6,0,13.8-6.6,13.8-11.6
	c0-6.4-4.7-12.4-14.8-12.4H272.1z M285.5,453.4c-24.5,0-44.4-19.9-44.4-44.4c0-16.6,9.1-31,22.6-38.6l17.9,40.4
	c0.7,1.6,2.3,2.5,3.9,2.5c0.6,0,1.2-0.1,1.7-0.4c2.2-1,3.1-3.5,2.2-5.6L271.6,367c4.4-1.5,9.1-2.3,14-2.3
	c24.5,0,44.4,19.9,44.4,44.4C329.9,433.5,310,453.4,285.5,453.4 M129.1,356.2c-29.2,0-52.9,23.7-52.9,52.9
	c0,29.2,23.7,52.9,52.9,52.9c29.2,0,52.9-23.7,52.9-52.9C182,379.8,158.3,356.2,129.1,356.2 M129.1,453.4
	c-24.5,0-44.4-19.9-44.4-44.4c0-24.5,19.9-44.4,44.4-44.4c24.5,0,44.4,19.9,44.4,44.4C173.4,433.5,153.5,453.4,129.1,453.4
	 M260.3,264.2c-9.3,0-16.9-7.6-16.9-16.9c0-9.3,7.6-16.9,16.9-16.9c9.3,0,16.9,7.6,16.9,16.9C277.2,256.6,269.6,264.2,260.3,264.2
	 M446,316.9c4.3-13.3,7.9-26.7,9.4-37.7c1.8,6.9,3.5,14.7,5.2,23.1c8-7.6,16.3-15.7,25-23.8c0.3-0.2,0.6-0.5,0.9-0.7
	c2.4-1.5,5.5-0.7,7,1.7c1.2,1.9,0.9,4.4-0.4,5.9l-31.4,38c-1.3,1.6-3.3,2.7-5.5,2.9c-3.6,0.3-6.9-1.7-8.2-4.9L446,316.9z
	 M425.4,261.1c0.9-0.5,2-0.8,3.1-1.1c6.5-1.2,12.8,3.1,14,9.6c1.1,5.8-2.2,11.4-7.4,13.4c-10,3.4-21.3,7.2-32.9,10.6
	c-2.7,12.3-5.7,26.9-9.3,43.2c-0.1,0.3-0.1,0.5-0.2,0.8c-1,2.8-4.2,4.2-7,3.2c-2.4-0.9-3.8-3.2-3.5-5.6l4.8-49
	c0.1-0.8,0.3-1.5,0.6-2.3c0.7-1.7,1.7-2.9,3.1-3.8C402,274,414.6,267,425.4,261.1 M476.8,358.2c4,2.3,6.2,6.5,5.6,11.1
	c-0.3,2.3-1.3,4.3-2.7,5.9c-0.7,0.8-48.2,55.3-49,56c-1.1,1.2-2.8,1.9-4.6,1.8c-3.2-0.2-5.6-2.9-5.4-6.1c0.1-1.1,0.4-2,1-2.9
	c1.7-2.9,19.4-31.2,31.9-50c-8.9-2.8-18.9-6.1-27.7-9.2l-71.6,94.8c-1,1.4-2.7,2.2-4.5,2.1c-2.9-0.2-5.1-2.7-4.9-5.6
	c0-0.8,0.3-1.5,0.6-2.2l63.7-115.9c2.4-4.5,7.6-7.8,13.2-7.7c2.2,0,4.3,0.6,6.3,1.5C432.4,333.5,474.7,356.9,476.8,358.2
	 M454.6,261.5c-9.2-0.6-16.2-8.5-15.6-17.7c0.6-9.2,8.5-16.2,17.7-15.6c9.2,0.6,16.2,8.5,15.6,17.7C471.7,255,463.8,262,454.6,261.5
	 M223.7,157.9c-1,0.2-2,0.2-2.9-0.1c-3-0.9-4.7-4-3.8-7c0.4-1.3,1.3-2.4,2.4-3.1c1.8-1.2,51.6-25.7,55.1-26.8c1.7-0.5,3.5-0.6,5.4,0
	c0.6,0.2,1.2,0.4,1.7,0.7c5.4,2.7,27.4,30.5,32.3,39.6c1.8,3,2.1,6.7,0.9,10.3c-0.2,0.7-0.5,1.4-0.8,2c-4.6,9.4-13.9,16.3-25.1,16.3
	c-6.1,0-11.8-2-16.4-5.4c-4.6,3.4-10.3,5.4-16.4,5.4c-6.1,0-11.8-2-16.4-5.4c-4.6,3.4-10.3,5.4-16.4,5.4c-6.1,0-11.8-2-16.4-5.4
	c-4.6,3.4-10.3,5.4-16.4,5.4c-5.8,0-11.2-1.8-15.7-4.9c32.9-14.9,68.8-24.5,106.5-27.5c-3-5.6-6.2-11.6-8.6-16.5
	C257.8,146.6,228.2,156.9,223.7,157.9 M364.3,169.9c17.9,2.7,35.3,6.8,52,12.3c-4.9,4.6-11.5,7.4-18.8,7.4c-6.1,0-11.8-2-16.4-5.4
	c-4.6,3.4-10.3,5.4-16.4,5.4c-2.5,0-5-0.3-7.3-1c4.3-4.5,6.9-10.6,6.9-17.2C364.4,171,364.3,170.5,364.3,169.9 M339.3,153.3
	c10,0,18.2,8.2,18.2,18.2c0,10-8.2,18.2-18.2,18.2c-10,0-18.2-8.2-18.2-18.2C321.1,161.5,329.2,153.3,339.3,153.3"/>
</svg>
