<?xml version="1.0" encoding="utf-8"?>
<!-- Generator: Adobe Illustrator 23.0.3, SVG Export Plug-In . SVG Version: 6.00 Build 0)  -->
<svg version="1.1" id="Calque_1" xmlns="http://www.w3.org/2000/svg" xmlns:xlink="http://www.w3.org/1999/xlink" x="0px" y="0px"
	 viewBox="0 0 595.3 595.3" style="enable-background:new 0 0 595.3 595.3;" xml:space="preserve">
<path d="M167.6,345c0.7,0,1.3,0.1,1.3,0.1l30.4,7.2l30.4,4.4c0.4,0.1,0.7,0.1,1,0.3c0.2,0.1,0.3,0.2,0.5,0.3l44.8,36.7l84.7-291.5
	c0.6-1.9,3.1-2.3,4.1-0.6c41.1,65.9,64.8,190.6,53.1,293.2c-0.3,2.3-2.2,4-4.6,4H284.5c58.4,16.6,109.6,43.9,137,69.6
	c-4.3,3.3-9.7,5.4-15.6,5.4c-8.4,0-15.9-4.1-20.6-10.4c-4.7,6.3-12.1,10.4-20.6,10.4c-8.4,0-15.9-4.1-20.6-10.4
	c-4.7,6.3-12.1,10.4-20.6,10.4c-8.4,0-15.9-4.1-20.6-10.4c-4.7,6.3-12.1,10.4-20.6,10.4c-8.4,0-15.9-4.1-20.6-10.4
	c-4.7,6.3-12.1,10.4-20.6,10.4c-9,0-16.9-3.9-20.5-10.3c-8.6-29.9-10.5-53.6-4.4-75.8L163.8,375c0,0-28.6,22.1-33.5,24.3
	c-3.5,1.5-7.9,0.5-9.8-3c-0.8-1.5-1-3-0.7-4.8c0.8-5,7.4-29.6,9.1-33.6c2.5-5.8,9.2-8.5,15-6c5.8,2.5,8.5,9.2,6,15
	c-1.2,2.9-2.7,5.1-4.6,8.1l12.6-6.6c1.2-0.6,2.1-0.6,3.2-0.3l106.1,26.5l-37.7-30.9c0,0-0.6,0-0.7,0l-52.1,0.3
	C175.2,355.7,171.5,349.5,167.6,345 M143.6,344.7c8.2-1,14.1-8.4,13.1-16.6c-1-8.2-8.4-14.1-16.6-13.1c-8.2,1-14.1,8.4-13.1,16.6
	C128,339.8,135.4,345.7,143.6,344.7 M162.9,409.6c-2.6,8.1,1.8,16.8,10,19.4c3,1,5.8,1.1,9.2,0.1c5.9-1.8,14.9-6.1,24-10.6
	c-0.2-8.6,0.5-16.8,2.1-24.8c-23.8,3-34,5.6-34,5.6C169.1,400.5,164.7,404.2,162.9,409.6"/>
</svg>
