<?xml version="1.0" encoding="utf-8"?>
<!-- Generator: Adobe Illustrator 23.0.3, SVG Export Plug-In . SVG Version: 6.00 Build 0)  -->
<svg version="1.1" id="Calque_1" xmlns="http://www.w3.org/2000/svg" xmlns:xlink="http://www.w3.org/1999/xlink" x="0px" y="0px"
	 viewBox="0 0 595.3 595.3" style="enable-background:new 0 0 595.3 595.3;" xml:space="preserve">
<path d="M263.6,417.3c-4.1,3.5-9.9,4.6-15.4,2.3c-3.3-1.3-86.5-43-94-47c-3.9-2.3-5.3-6.9-3.3-10.8c1.9-3.6,6.1-5.2,9.9-3.9
	c4.9,1.5,61.6,20.4,88.1,30.3c12.2-16,36.6-47.1,49.9-62.3c4.5-4.8,11-7.6,18-7.2c12.4,0.9,21.7,11.6,20.8,23.9c0,0.7-0.1,1.2-0.2,2
	c-1.7,12.9-13.5,81.7-15.3,88c-0.1,0.2-0.1,0.5-0.2,0.7c-1.5,5.2-5.9,9.2-10.5,10.5c-11,3.1-105.9,25-119.1,27.6
	c-0.4,0.1-0.7,0.1-1.1,0.2c-1.3,0.2-2.8,0-4.1-0.5c-4.6-1.7-6.9-6.7-5.3-11.3c0.9-2.4,2.4-4,4.7-5.1c2.8-1.3,73.6-26.7,104.3-37.2
	c0-7.6,0.1-17.4,0.3-27.9C279.2,402,267.3,413.9,263.6,417.3 M286.5,232.2c12.8,1.3,24.3-8,25.6-20.8c1.3-12.8-8-24.3-20.8-25.6
	c-12.8-1.3-24.3,8-25.6,20.8C264.4,219.3,273.7,230.8,286.5,232.2 M377.3,158.3c12.8,1.3,24.3-7.9,25.6-20.8
	c1.3-12.8-8-24.3-20.8-25.6c-12.8-1.3-24.3,8-25.6,20.8C355.2,145.5,364.5,157,377.3,158.3 M422.3,171.6c1.9-2.1,2.3-5.3,0.7-7.9
	c-1.9-3.1-6-4.1-9.1-2.2c-0.2,0.1-0.3,0.2-0.5,0.3c-8.4,6.2-38.2,28.1-53.8,40.6c-6.6,3.4-31.1,18.2-45.7,27.5
	c0.9,0.6,1.8,1.2,2.6,1.8c8,5.8,14.5,14.6,19.1,24.9c11.5-10.7,34.9-33.9,39-38.3c0,0,0.2-0.2,0.3-0.3c5.2-5,38.9-38,46.8-45.9
	C422,171.9,422.2,171.7,422.3,171.6 M290.1,282.7c11.5-1.8,19-12.7,17-23.8c-2-11.1-12.6-18.6-23.7-16.6c-1.2,0.2-2.3,0.5-3.4,0.9
	c-6.8,2.4-23.8,9-38.7,14.9c6.3-21.1,13.3-46.2,15.7-55.1c0.8-2.9,0.1-5.9-2.3-7.8c-3.1-2.4-7.6-1.8-10.1,1.3
	c-0.5,0.6-0.8,1.1-1.1,1.8c0,0-23.3,52.2-33,76.6c-0.3,0.7-0.5,1.4-0.6,2.2c-1.2,6.7,3.2,13,9.9,14.3c1.3,0.2,2.5,0.3,3.7,0.1
	C229.9,290.9,284.5,283.6,290.1,282.7"/>
</svg>
