<?xml version="1.0" encoding="utf-8"?>
<!-- Generator: Adobe Illustrator 23.0.3, SVG Export Plug-In . SVG Version: 6.00 Build 0)  -->
<svg version="1.1" id="Calque_1" xmlns="http://www.w3.org/2000/svg" xmlns:xlink="http://www.w3.org/1999/xlink" x="0px" y="0px"
	 viewBox="0 0 595.3 595.3" style="enable-background:new 0 0 595.3 595.3;" xml:space="preserve">
<path d="M409.4,169.9c11.5,0,20.8,9.3,20.8,20.8c0,11.5-9.3,20.8-20.8,20.8c-11.5,0-20.8-9.3-20.8-20.8
	C388.6,179.2,397.9,169.9,409.4,169.9 M332.4,235.4c0.7,2.8,0.3,5.8-0.7,8.3l-32.2,84c-0.7,2-2.2,3.9-4.5,4.6
	c-3.6,1.2-7.4-0.8-8.6-4.4c-0.4-1.2-0.4-2.5-0.1-3.7c0,0,14.3-64.2,19.5-84.6c-1.9-4.2-3.7-8.4-5.5-12.6l-4.9,17.6
	c-0.9,3.3-3.2,6.2-6,8c-5,3.2-10.9,6.9-17.1,10.8c0,0.9,0.1,1.9,0.1,2.8c0,36-29.2,65.2-65.2,65.2c-36,0-65.2-29.2-65.2-65.2
	c0-36,29.2-65.2,65.2-65.2c25.6,0,47.8,14.8,58.5,36.3c1.3-1,2.4-2,3.5-2.9c2-24.5,4.3-47.9,6.9-67.6c1.2-8.1,7.3-15,15.8-16.7
	c10.5-2.1,20.8,4.7,23.3,14.7C320.2,185.8,327.3,214.8,332.4,235.4 M206,286.7c0,0,29.1-24.9,51-42.6c-8.5-19.2-27.7-32.6-50-32.6
	c-30.2,0-54.7,24.5-54.7,54.7c0,30.2,24.5,54.7,54.7,54.7c28.9,0,52.6-22.5,54.6-51c-21.3,13.1-43.2,26.2-46.8,28.3
	c-0.1,0-0.1,0.1-0.2,0.1c-0.2,0.1-0.3,0.2-0.3,0.2c-0.6,0.3-1.4,0.6-2.2,0.8c-4,0.7-7.7-2-8.4-5.9
	C203.2,290.9,204.2,288.3,206,286.7 M353.7,249.4c-0.9-1.2-1.6-3-1.9-4.2c-4.4-25.3-7-47.2-7.6-55.7c-0.5-7.3,4-14.3,11.2-16.7
	c8.6-2.9,17.9,1.8,20.8,10.4c0.7,2.1,1,4.3,0.8,6.5c-1,11.9-3.4,39.7-4.4,50.6c1.9,2.8,34.4,49.6,34.4,49.6c0.7,1,1.1,2.3,1.1,3.7
	c0,3.6-2.8,6.5-6.4,6.5c-0.5,0-1-0.1-1.5-0.2l-24.1-5.2l-9.8,38c25.6,8.8,44,33.1,44,61.7c0,36-29.2,65.2-65.2,65.2
	c-36,0-65.2-29.2-65.2-65.2c0-36,29.2-65.2,65.2-65.2c3.8,0,7.5,0.3,11.1,1l11-42.9c0.7-2.7,3.4-4.4,6.2-3.8l13.1,2.8
	C386.4,286.1,354.6,250.6,353.7,249.4 M345.1,449.1c30.2,0,54.7-24.5,54.7-54.7c0-23.6-15.1-43.8-36.1-51.4l-13.5,52.8
	c-0.6,2.4-2.8,4-5.1,4c-0.4,0-0.9-0.1-1.3-0.2c-2.8-0.7-4.5-3.6-3.8-6.4l13.5-52.8c-2.8-0.4-5.6-0.7-8.4-0.7
	c-30.2,0-54.7,24.5-54.7,54.7C290.4,424.6,314.9,449.1,345.1,449.1"/>
</svg>
