<?xml version="1.0" encoding="utf-8"?>
<!-- Generator: Adobe Illustrator 23.0.3, SVG Export Plug-In . SVG Version: 6.00 Build 0)  -->
<svg version="1.1" id="Calque_1" xmlns="http://www.w3.org/2000/svg" xmlns:xlink="http://www.w3.org/1999/xlink" x="0px" y="0px"
	 viewBox="0 0 595.3 595.3" style="enable-background:new 0 0 595.3 595.3;" xml:space="preserve">
<path d="M314.1,315.7c-3.9,18.4-22,30.2-40.4,26.3c-18.4-3.9-30.2-22-26.3-40.4c3.9-18.4,22-30.2,40.4-26.3
	C306.3,279.2,318,297.3,314.1,315.7 M304.1,418.2c9.8,0,18.8-2.9,26.5-7.8c7.6,4.9,16.7,7.8,26.5,7.8s18.8-2.9,26.5-7.8
	c7.5,4.9,16.5,7.8,26.3,7.8c11.1,0,21.4-3.7,29.5-9.9c-45.8-16.8-125.1-41.5-141.9-43.8c-11.5-2-30.9,3.9-30.9,24.9
	c0,19.2,17.6,28,34.4,28.7C302,418.2,303,418.2,304.1,418.2 M201.9,308c-2.1-17.6-6.9-48.6-10.8-69.7c0.3,0.1,0.5,0.1,0.8,0.2
	c16.5,3.5,32.8-7,36.3-23.6c3.5-16.5-7-32.8-23.6-36.3c-16.5-3.5-32.8,7-36.3,23.6c-1.4,6.7-0.5,13.3,2.1,19.1l2.3,90.3
	c0.2,6.5,2.8,13.2,6.2,17.8l52.2,59.2c0.5-17.9,6.4-35.6,15.7-47.1C231.3,328.9,216.3,317.2,201.9,308"/>
</svg>
